STARTFONT 2.1
COMMENT
COMMENT Converted from OpenType font "PixelifySans-Regular.ttf" by "otf2bdf 3.0".
COMMENT
FONT -FreeType-Pixelify Sans-Medium-R-Normal--33-240-100-100-P-156-ISO10646-1
SIZE 24 100 100
FONTBOUNDINGBOX 39 38 -1 -8
STARTPROPERTIES 19
FOUNDRY "FreeType"
FAMILY_NAME "Pixelify Sans"
WEIGHT_NAME "Medium"
SLANT "R"
SETWIDTH_NAME "Normal"
ADD_STYLE_NAME ""
PIXEL_SIZE 33
POINT_SIZE 240
RESOLUTION_X 100
RESOLUTION_Y 100
SPACING "P"
AVERAGE_WIDTH 156
CHARSET_REGISTRY "ISO10646"
CHARSET_ENCODING "1"
FONT_ASCENT 30
FONT_DESCENT 9
COPYRIGHT "Copyright 2021 The Pixelify Sans Project Authors (https://github.com/eifetx/Pixelify-Sans)"
_OTF_FONTFILE "PixelifySans-Regular.ttf"
_OTF_PSNAME "PixelifySans-Regular"
ENDPROPERTIES
CHARS 574
STARTCHAR 0020
ENCODING 32
SWIDTH 210 0
DWIDTH 7 0
BBX 0 0 0 0
BITMAP
ENDCHAR
STARTCHAR 0021
ENCODING 33
SWIDTH 210 0
DWIDTH 7 0
BBX 3 21 2 0
BITMAP
E0
E0
E0
E0
E0
E0
E0
E0
E0
E0
E0
E0
E0
E0
E0
00
00
00
E0
E0
E0
ENDCHAR
STARTCHAR 0022
ENCODING 34
SWIDTH 480 0
DWIDTH 16 0
BBX 11 6 2 15
BITMAP
E1C0
E1C0
E1C0
1820
78E0
60C0
ENDCHAR
STARTCHAR 0023
ENCODING 35
SWIDTH 690 0
DWIDTH 23 0
BBX 19 21 2 0
BITMAP
1C0F00
1C0F00
1C0F00
1C0F00
1C0F00
1C0F00
FFFFE0
FFFFE0
FFFFE0
1C0F00
1C0F00
1C0F00
1C0F00
1C0F00
1C0F00
FFFFE0
FFFFE0
FFFFE0
1C0F00
1C0F00
1C0F00
ENDCHAR
STARTCHAR 0024
ENCODING 36
SWIDTH 600 0
DWIDTH 20 0
BBX 16 27 2 -3
BITMAP
03C0
03C0
03C0
1FF0
1FF0
1FF0
E00F
E00F
E00F
E000
E000
E000
1FF0
1FF0
1FF0
000F
000F
000F
E00F
E00F
E00F
1FF0
1FF0
1FF0
03C0
03C0
03C0
ENDCHAR
STARTCHAR 0025
ENCODING 37
SWIDTH 870 0
DWIDTH 29 0
BBX 25 21 2 0
BITMAP
1C000E00
1C000E00
1C000E00
FF807000
FF807000
FF807000
1C038000
1C038000
1C038000
001C0000
001C0000
001C0000
00E03C00
00E03C00
00E03C00
0701FF80
0701FF80
0701FF80
38003C00
38003C00
38003C00
ENDCHAR
STARTCHAR 0026
ENCODING 38
SWIDTH 690 0
DWIDTH 23 0
BBX 19 21 2 0
BITMAP
1FF000
1FF000
1FF000
E00F00
E00F00
E00F00
1C7000
1C7000
1C7000
038000
038000
038000
1C7000
1C7000
1C7000
E00F00
E00F00
E00F00
1FF1E0
1FF1E0
1FF1E0
ENDCHAR
STARTCHAR 0027
ENCODING 39
SWIDTH 270 0
DWIDTH 9 0
BBX 5 6 2 15
BITMAP
E0
E0
E0
18
78
60
ENDCHAR
STARTCHAR 0028
ENCODING 40
SWIDTH 360 0
DWIDTH 12 0
BBX 9 30 2 -5
BITMAP
0380
0380
0380
0380
0380
0380
1C00
1C00
1C00
1C00
1C00
1C00
E000
E000
E000
E000
E000
E000
1C00
1C00
1C00
1C00
1C00
1C00
0380
0380
0380
0380
0380
0380
ENDCHAR
STARTCHAR 0029
ENCODING 41
SWIDTH 360 0
DWIDTH 12 0
BBX 9 30 1 -5
BITMAP
E000
E000
E000
E000
E000
E000
1C00
1C00
1C00
1C00
1C00
1C00
0380
0380
0380
0380
0380
0380
1C00
1C00
1C00
1C00
1C00
1C00
E000
E000
E000
E000
E000
E000
ENDCHAR
STARTCHAR 002A
ENCODING 42
SWIDTH 270 0
DWIDTH 9 0
BBX 5 6 2 15
BITMAP
60
F8
F8
60
F8
D8
ENDCHAR
STARTCHAR 002B
ENCODING 43
SWIDTH 600 0
DWIDTH 20 0
BBX 16 15 2 3
BITMAP
03C0
03C0
03C0
03C0
03C0
03C0
FFFF
FFFF
FFFF
03C0
03C0
03C0
03C0
03C0
03C0
ENDCHAR
STARTCHAR 002C
ENCODING 44
SWIDTH 270 0
DWIDTH 9 0
BBX 5 6 2 -3
BITMAP
E0
E0
E0
18
60
60
ENDCHAR
STARTCHAR 002D
ENCODING 45
SWIDTH 330 0
DWIDTH 11 0
BBX 9 3 1 7
BITMAP
FF80
FF80
FF80
ENDCHAR
STARTCHAR 002E
ENCODING 46
SWIDTH 210 0
DWIDTH 7 0
BBX 3 3 2 0
BITMAP
E0
E0
E0
ENDCHAR
STARTCHAR 002F
ENCODING 47
SWIDTH 540 0
DWIDTH 18 0
BBX 14 21 2 0
BITMAP
003C
0038
0070
0070
00E0
00E0
01C0
01C0
0380
0380
0700
0700
0E00
0E00
1C00
1C00
3800
3800
7000
7000
E000
ENDCHAR
STARTCHAR 0030
ENCODING 48
SWIDTH 600 0
DWIDTH 20 0
BBX 16 21 2 0
BITMAP
1FF0
1FF0
1FF0
E00F
E00F
E00F
E00F
E00F
E00F
E00F
E00F
E00F
E00F
E00F
E00F
E00F
E00F
E00F
1FF0
1FF0
1FF0
ENDCHAR
STARTCHAR 0031
ENCODING 49
SWIDTH 390 0
DWIDTH 13 0
BBX 9 21 2 0
BITMAP
1C00
1C00
1C00
E380
E380
E380
0380
0380
0380
0380
0380
0380
0380
0380
0380
0380
0380
0380
0380
0380
0380
ENDCHAR
STARTCHAR 0032
ENCODING 50
SWIDTH 600 0
DWIDTH 20 0
BBX 16 21 2 0
BITMAP
1FF0
1FF0
1FF0
E00F
E00F
E00F
000F
000F
000F
1FF0
1FF0
1FF0
E000
E000
E000
E00F
E00F
E00F
1FF0
1FF0
1FF0
ENDCHAR
STARTCHAR 0033
ENCODING 51
SWIDTH 600 0
DWIDTH 20 0
BBX 16 21 2 0
BITMAP
1FF0
1FF0
1FF0
E00F
E00F
E00F
000F
000F
000F
1FF0
1FF0
1FF0
000F
000F
000F
E00F
E00F
E00F
1FF0
1FF0
1FF0
ENDCHAR
STARTCHAR 0034
ENCODING 52
SWIDTH 600 0
DWIDTH 20 0
BBX 16 21 2 0
BITMAP
007F
007F
007F
038F
038F
038F
1C0F
1C0F
1C0F
E00F
E00F
E00F
FFFF
FFFF
FFFF
000F
000F
000F
000F
000F
000F
ENDCHAR
STARTCHAR 0035
ENCODING 53
SWIDTH 600 0
DWIDTH 20 0
BBX 16 21 2 0
BITMAP
1FF0
1FF0
1FF0
E00F
E00F
E00F
E00F
E00F
E00F
1C00
1C00
1C00
03F0
03F0
03F0
E00F
E00F
E00F
1FF0
1FF0
1FF0
ENDCHAR
STARTCHAR 0036
ENCODING 54
SWIDTH 600 0
DWIDTH 20 0
BBX 16 21 2 0
BITMAP
1FF0
1FF0
1FF0
E00F
E00F
E00F
E000
E000
E000
FFF0
FFF0
FFF0
E00F
E00F
E00F
E00F
E00F
E00F
1FF0
1FF0
1FF0
ENDCHAR
STARTCHAR 0037
ENCODING 55
SWIDTH 600 0
DWIDTH 20 0
BBX 16 21 2 0
BITMAP
1FF0
1FF0
1FF0
E00F
E00F
E00F
000F
000F
000F
000F
000F
000F
000F
000F
000F
000F
000F
000F
000F
000F
000F
ENDCHAR
STARTCHAR 0038
ENCODING 56
SWIDTH 600 0
DWIDTH 20 0
BBX 16 21 2 0
BITMAP
1FF0
1FF0
1FF0
E00F
E00F
E00F
E00F
E00F
E00F
1FF0
1FF0
1FF0
E00F
E00F
E00F
E00F
E00F
E00F
1FF0
1FF0
1FF0
ENDCHAR
STARTCHAR 0039
ENCODING 57
SWIDTH 600 0
DWIDTH 20 0
BBX 16 21 2 0
BITMAP
1FF0
1FF0
1FF0
E00F
E00F
E00F
E00F
E00F
E00F
1FFF
1FFF
1FFF
000F
000F
000F
E00F
E00F
E00F
1FF0
1FF0
1FF0
ENDCHAR
STARTCHAR 003A
ENCODING 58
SWIDTH 210 0
DWIDTH 7 0
BBX 3 9 2 3
BITMAP
E0
E0
E0
00
00
00
E0
E0
E0
ENDCHAR
STARTCHAR 003B
ENCODING 59
SWIDTH 270 0
DWIDTH 9 0
BBX 5 12 2 0
BITMAP
E0
E0
E0
00
00
00
E0
E0
E0
18
78
60
ENDCHAR
STARTCHAR 003C
ENCODING 60
SWIDTH 600 0
DWIDTH 20 0
BBX 16 28 2 -4
BITMAP
000F
000F
000F
0078
0078
0078
03C0
03C0
03C0
1E00
1E00
1E00
F000
F000
F000
1E00
1E00
1E00
1FC0
03C0
03C0
03F8
0078
0078
007F
000F
000F
000F
ENDCHAR
STARTCHAR 003D
ENCODING 61
SWIDTH 600 0
DWIDTH 20 0
BBX 12 9 4 4
BITMAP
FFF0
FFF0
FFF0
0000
0000
FFF0
FFF0
FFF0
FFF0
ENDCHAR
STARTCHAR 003E
ENCODING 62
SWIDTH 600 0
DWIDTH 20 0
BBX 16 28 2 -4
BITMAP
F000
F000
F000
1E00
1E00
1E00
03C0
03C0
03C0
0078
0078
0078
000F
000F
000F
0078
0078
0078
03F8
03C0
03C0
1FC0
1E00
1E00
FE00
F000
F000
F000
ENDCHAR
STARTCHAR 003F
ENCODING 63
SWIDTH 600 0
DWIDTH 20 0
BBX 16 21 2 0
BITMAP
1FF0
1FF0
1FF0
E00F
E00F
E00F
E00F
E00F
E00F
03F0
03F0
03F0
0380
0380
0380
0000
0000
0000
0380
0380
0380
ENDCHAR
STARTCHAR 0040
ENCODING 64
SWIDTH 600 0
DWIDTH 20 0
BBX 16 14 2 2
BITMAP
1FE0
1FE0
6010
C00C
C7CC
C7C3
C863
C863
C86C
CFF0
C7D0
6000
1F80
1F80
ENDCHAR
STARTCHAR 0041
ENCODING 65
SWIDTH 600 0
DWIDTH 20 0
BBX 16 21 2 0
BITMAP
0380
0380
0380
1C70
1C70
1C70
E00F
E00F
E00F
E00F
E00F
E00F
FFFF
FFFF
FFFF
E00F
E00F
E00F
E00F
E00F
E00F
ENDCHAR
STARTCHAR 0042
ENCODING 66
SWIDTH 600 0
DWIDTH 20 0
BBX 16 21 2 0
BITMAP
1FF0
1FF0
1FF0
E00F
E00F
E00F
E00F
E00F
E00F
E3F0
E3F0
E3F0
E00F
E00F
E00F
E00F
E00F
E00F
1FF0
1FF0
1FF0
ENDCHAR
STARTCHAR 0043
ENCODING 67
SWIDTH 600 0
DWIDTH 20 0
BBX 16 21 2 0
BITMAP
1FF0
1FF0
1FF0
E00F
E00F
E00F
E00F
E00F
E00F
E000
E000
E000
E00F
E00F
E00F
E00F
E00F
E00F
1FF0
1FF0
1FF0
ENDCHAR
STARTCHAR 0044
ENCODING 68
SWIDTH 600 0
DWIDTH 20 0
BBX 16 21 2 0
BITMAP
FF80
FF80
FF80
E070
E070
E070
E00F
E00F
E00F
E00F
E00F
E00F
E00F
E00F
E00F
E070
E070
E070
FF80
FF80
FF80
ENDCHAR
STARTCHAR 0045
ENCODING 69
SWIDTH 600 0
DWIDTH 20 0
BBX 16 21 2 0
BITMAP
1FF0
1FF0
1FF0
E00F
E00F
E00F
E000
E000
E000
FF80
FF80
FF80
E000
E000
E000
E00F
E00F
E00F
1FF0
1FF0
1FF0
ENDCHAR
STARTCHAR 0046
ENCODING 70
SWIDTH 600 0
DWIDTH 20 0
BBX 16 21 2 0
BITMAP
FFF0
FFF0
FFF0
E00F
E00F
E00F
E000
E000
E000
FF80
FF80
FF80
E000
E000
E000
E000
E000
E000
E000
E000
E000
ENDCHAR
STARTCHAR 0047
ENCODING 71
SWIDTH 600 0
DWIDTH 20 0
BBX 16 21 2 0
BITMAP
1FF0
1FF0
1FF0
E00F
E00F
E00F
E00F
E00F
E00F
E380
E380
E380
E07F
E07F
E07F
E00F
E00F
E00F
1FF0
1FF0
1FF0
ENDCHAR
STARTCHAR 0048
ENCODING 72
SWIDTH 600 0
DWIDTH 20 0
BBX 16 21 2 0
BITMAP
E00F
E00F
E00F
E00F
E00F
E00F
E38F
E38F
E38F
FFFF
FFFF
FFFF
E00F
E00F
E00F
E00F
E00F
E00F
E00F
E00F
E00F
ENDCHAR
STARTCHAR 0049
ENCODING 73
SWIDTH 390 0
DWIDTH 13 0
BBX 9 21 2 0
BITMAP
FF80
FF80
FF80
1C00
1C00
1C00
1C00
1C00
1C00
1C00
1C00
1C00
1C00
1C00
1C00
1C00
1C00
1C00
FF80
FF80
FF80
ENDCHAR
STARTCHAR 004A
ENCODING 74
SWIDTH 600 0
DWIDTH 20 0
BBX 16 21 2 0
BITMAP
1FF0
1FF0
1FF0
000F
000F
000F
000F
000F
000F
000F
000F
000F
E00F
E00F
E00F
E00F
E00F
E00F
1FF0
1FF0
1FF0
ENDCHAR
STARTCHAR 004B
ENCODING 75
SWIDTH 600 0
DWIDTH 20 0
BBX 16 21 2 0
BITMAP
1C0F
1C0F
1C0F
E070
E070
E070
E380
E380
E380
FC00
FC00
FC00
E380
E380
E380
E070
E070
E070
E00F
E00F
E00F
ENDCHAR
STARTCHAR 004C
ENCODING 76
SWIDTH 600 0
DWIDTH 20 0
BBX 16 21 2 0
BITMAP
E000
E000
E000
E000
E000
E000
E000
E000
E000
E000
E000
E000
E000
E000
E000
E00F
E00F
E00F
1FF0
1FF0
1FF0
ENDCHAR
STARTCHAR 004D
ENCODING 77
SWIDTH 780 0
DWIDTH 26 0
BBX 22 21 2 0
BITMAP
1C01E0
1C01E0
1C01E0
E38F3C
E38F3C
E38F3C
E38F3C
E38F3C
E38F3C
E0703C
E0703C
E0703C
E0703C
E0703C
E0703C
E0703C
E0703C
E0703C
E0003C
E0003C
E0003C
ENDCHAR
STARTCHAR 004E
ENCODING 78
SWIDTH 600 0
DWIDTH 20 0
BBX 16 21 2 0
BITMAP
E00F
E00F
E00F
FC0F
FC0F
FC0F
E38F
E38F
E38F
E38F
E38F
E38F
E38F
E38F
E38F
E07F
E07F
E07F
E00F
E00F
E00F
ENDCHAR
STARTCHAR 004F
ENCODING 79
SWIDTH 600 0
DWIDTH 20 0
BBX 16 21 2 0
BITMAP
1FF0
1FF0
1FF0
E00F
E00F
E00F
E00F
E00F
E00F
E00F
E00F
E00F
E00F
E00F
E00F
E00F
E00F
E00F
1FF0
1FF0
1FF0
ENDCHAR
STARTCHAR 0050
ENCODING 80
SWIDTH 600 0
DWIDTH 20 0
BBX 16 21 2 0
BITMAP
1FF0
1FF0
1FF0
E00F
E00F
E00F
E00F
E00F
E00F
E00F
E00F
E00F
FFF0
FFF0
FFF0
E000
E000
E000
E000
E000
E000
ENDCHAR
STARTCHAR 0051
ENCODING 81
SWIDTH 600 0
DWIDTH 20 0
BBX 16 27 2 -6
BITMAP
1FF0
1FF0
1FF0
E00F
E00F
E00F
E00F
E00F
E00F
E00F
E00F
E00F
E00F
E00F
E00F
E00F
E00F
E00F
1FF0
1FF0
1FF0
0380
0380
0380
0070
0070
0070
ENDCHAR
STARTCHAR 0052
ENCODING 82
SWIDTH 600 0
DWIDTH 20 0
BBX 16 21 2 0
BITMAP
1FF0
1FF0
1FF0
E00F
E00F
E00F
E00F
E00F
E00F
E00F
E00F
E00F
FFF0
FFF0
FFF0
E0E0
E0E0
E0E0
E01C
E01C
E01C
ENDCHAR
STARTCHAR 0053
ENCODING 83
SWIDTH 600 0
DWIDTH 20 0
BBX 16 21 2 0
BITMAP
1FF0
1FF0
1FF0
E00F
E00F
E00F
E000
E000
E000
1FF0
1FF0
1FF0
000F
000F
000F
E00F
E00F
E00F
1FF0
1FF0
1FF0
ENDCHAR
STARTCHAR 0054
ENCODING 84
SWIDTH 600 0
DWIDTH 20 0
BBX 16 21 2 0
BITMAP
1FF0
1FF0
1FF0
E38F
E38F
E38F
0380
0380
0380
0380
0380
0380
0380
0380
0380
0380
0380
0380
0380
0380
0380
ENDCHAR
STARTCHAR 0055
ENCODING 85
SWIDTH 600 0
DWIDTH 20 0
BBX 16 21 2 0
BITMAP
E00F
E00F
E00F
E00F
E00F
E00F
E00F
E00F
E00F
E00F
E00F
E00F
E00F
E00F
E00F
E00F
E00F
E00F
1FF0
1FF0
1FF0
ENDCHAR
STARTCHAR 0056
ENCODING 86
SWIDTH 600 0
DWIDTH 20 0
BBX 16 21 2 0
BITMAP
E00F
E00F
E00F
E00F
E00F
E00F
E00F
E00F
E00F
E00F
E00F
E00F
1C70
1C70
1C70
1C70
1C70
1C70
0380
0380
0380
ENDCHAR
STARTCHAR 0057
ENCODING 87
SWIDTH 780 0
DWIDTH 26 0
BBX 22 21 2 0
BITMAP
E0003C
E0003C
E0003C
E0703C
E0703C
E0703C
E0703C
E0703C
E0703C
E0703C
E0703C
E0703C
E38F3C
E38F3C
E38F3C
E38F3C
E38F3C
E38F3C
1C01E0
1C01E0
1C01E0
ENDCHAR
STARTCHAR 0058
ENCODING 88
SWIDTH 600 0
DWIDTH 20 0
BBX 16 21 2 0
BITMAP
E00F
E00F
E00F
1C70
1C70
1C70
1C70
1C70
1C70
0380
0380
0380
1C70
1C70
1C70
1C70
1C70
1C70
E00F
E00F
E00F
ENDCHAR
STARTCHAR 0059
ENCODING 89
SWIDTH 600 0
DWIDTH 20 0
BBX 16 21 2 0
BITMAP
E00F
E00F
E00F
E00F
E00F
E00F
1C70
1C70
1C70
0380
0380
0380
0380
0380
0380
0380
0380
0380
0380
0380
0380
ENDCHAR
STARTCHAR 005A
ENCODING 90
SWIDTH 600 0
DWIDTH 20 0
BBX 16 21 2 0
BITMAP
FFF0
FFF0
FFF0
E00F
E00F
E00F
000F
000F
000F
1FF0
1FF0
1FF0
E000
E000
E000
E00F
E00F
E00F
1FFF
1FFF
1FFF
ENDCHAR
STARTCHAR 005B
ENCODING 91
SWIDTH 360 0
DWIDTH 12 0
BBX 9 24 2 -2
BITMAP
1F80
1F80
1F80
E000
E000
E000
E000
E000
E000
E000
E000
E000
E000
E000
E000
E000
E000
E000
E000
E000
E000
1F80
1F80
1F80
ENDCHAR
STARTCHAR 005C
ENCODING 92
SWIDTH 540 0
DWIDTH 18 0
BBX 14 21 2 0
BITMAP
E000
7000
7000
3800
3800
1C00
1C00
0E00
0E00
0700
0700
0380
0380
01C0
01C0
00E0
00E0
0070
0070
0038
003C
ENDCHAR
STARTCHAR 005D
ENCODING 93
SWIDTH 360 0
DWIDTH 12 0
BBX 9 24 1 -2
BITMAP
FC00
FC00
FC00
0380
0380
0380
0380
0380
0380
0380
0380
0380
0380
0380
0380
0380
0380
0380
0380
0380
0380
FC00
FC00
FC00
ENDCHAR
STARTCHAR 005E
ENCODING 94
SWIDTH 270 0
DWIDTH 9 0
BBX 5 3 2 18
BITMAP
60
F8
D8
ENDCHAR
STARTCHAR 005F
ENCODING 95
SWIDTH 450 0
DWIDTH 15 0
BBX 11 3 2 0
BITMAP
FFE0
FFE0
FFE0
ENDCHAR
STARTCHAR 0060
ENCODING 96
SWIDTH 270 0
DWIDTH 9 0
BBX 5 5 2 17
BITMAP
C0
E0
60
18
18
ENDCHAR
STARTCHAR 0061
ENCODING 97
SWIDTH 690 0
DWIDTH 23 0
BBX 19 15 2 0
BITMAP
1FF000
1FF000
1FF000
E00F00
E00F00
E00F00
E00F00
E00F00
E00F00
E00F00
E00F00
E00F00
1FF1E0
1FF1E0
1FF1E0
ENDCHAR
STARTCHAR 0062
ENCODING 98
SWIDTH 600 0
DWIDTH 20 0
BBX 16 21 2 0
BITMAP
E000
E000
E000
E000
E000
E000
FFF0
FFF0
FFF0
E00F
E00F
E00F
E00F
E00F
E00F
E00F
E00F
E00F
1FF0
1FF0
1FF0
ENDCHAR
STARTCHAR 0063
ENCODING 99
SWIDTH 600 0
DWIDTH 20 0
BBX 16 15 2 0
BITMAP
1FF0
1FF0
1FF0
E00F
E00F
E00F
E000
E000
E000
E00F
E00F
E00F
1FF0
1FF0
1FF0
ENDCHAR
STARTCHAR 0064
ENCODING 100
SWIDTH 600 0
DWIDTH 20 0
BBX 16 21 2 0
BITMAP
000F
000F
000F
000F
000F
000F
1FFF
1FFF
1FFF
E00F
E00F
E00F
E00F
E00F
E00F
E00F
E00F
E00F
1FF0
1FF0
1FF0
ENDCHAR
STARTCHAR 0065
ENCODING 101
SWIDTH 600 0
DWIDTH 20 0
BBX 16 15 2 0
BITMAP
1FF0
1FF0
1FF0
E00F
E00F
E00F
FF80
FF80
FF80
E00F
E00F
E00F
1FF0
1FF0
1FF0
ENDCHAR
STARTCHAR 0066
ENCODING 102
SWIDTH 600 0
DWIDTH 20 0
BBX 16 21 2 0
BITMAP
1FF0
1FF0
1FF0
E00F
E00F
E00F
E000
E000
E000
FF80
FF80
FF80
E000
E000
E000
E000
E000
E000
E000
E000
E000
ENDCHAR
STARTCHAR 0067
ENCODING 103
SWIDTH 600 0
DWIDTH 20 0
BBX 16 21 2 -6
BITMAP
1FF0
1FF0
1FF0
E00F
E00F
E00F
E00F
E00F
E00F
1FFF
1FFF
1FFF
000F
000F
000F
E00F
E00F
E00F
1FF0
1FF0
1FF0
ENDCHAR
STARTCHAR 0068
ENCODING 104
SWIDTH 600 0
DWIDTH 20 0
BBX 16 21 2 0
BITMAP
E000
E000
E000
E000
E000
E000
E3F0
E3F0
E3F0
FC0F
FC0F
FC0F
E00F
E00F
E00F
E00F
E00F
E00F
E00F
E00F
E00F
ENDCHAR
STARTCHAR 0069
ENCODING 105
SWIDTH 210 0
DWIDTH 7 0
BBX 3 21 2 0
BITMAP
E0
E0
E0
00
00
00
E0
E0
E0
E0
E0
E0
E0
E0
E0
E0
E0
E0
E0
E0
E0
ENDCHAR
STARTCHAR 006A
ENCODING 106
SWIDTH 510 0
DWIDTH 17 0
BBX 12 15 2 0
BITMAP
0070
0070
0070
0070
0070
0070
0070
0070
0070
E070
E070
E070
1F80
1F80
1F80
ENDCHAR
STARTCHAR 006B
ENCODING 107
SWIDTH 600 0
DWIDTH 20 0
BBX 16 21 2 0
BITMAP
E000
E000
E000
E000
E000
E000
E00F
E00F
E00F
E3F0
E3F0
E3F0
FC00
FC00
FC00
E3F0
E3F0
E3F0
E00F
E00F
E00F
ENDCHAR
STARTCHAR 006C
ENCODING 108
SWIDTH 210 0
DWIDTH 7 0
BBX 3 21 2 0
BITMAP
E0
E0
E0
E0
E0
E0
E0
E0
E0
E0
E0
E0
E0
E0
E0
E0
E0
E0
E0
E0
E0
ENDCHAR
STARTCHAR 006D
ENCODING 109
SWIDTH 780 0
DWIDTH 26 0
BBX 22 15 2 0
BITMAP
FF8FE0
FF8FE0
FF8FE0
E0703C
E0703C
E0703C
E0703C
E0703C
E0703C
E0703C
E0703C
E0703C
E0703C
E0703C
E0703C
ENDCHAR
STARTCHAR 006E
ENCODING 110
SWIDTH 600 0
DWIDTH 20 0
BBX 16 15 2 0
BITMAP
FFF0
FFF0
FFF0
E00F
E00F
E00F
E00F
E00F
E00F
E00F
E00F
E00F
E00F
E00F
E00F
ENDCHAR
STARTCHAR 006F
ENCODING 111
SWIDTH 600 0
DWIDTH 20 0
BBX 16 15 2 0
BITMAP
1FF0
1FF0
1FF0
E00F
E00F
E00F
E00F
E00F
E00F
E00F
E00F
E00F
1FF0
1FF0
1FF0
ENDCHAR
STARTCHAR 0070
ENCODING 112
SWIDTH 600 0
DWIDTH 20 0
BBX 16 21 2 -6
BITMAP
1FF0
1FF0
1FF0
E00F
E00F
E00F
E00F
E00F
E00F
E00F
E00F
E00F
FFF0
FFF0
FFF0
E000
E000
E000
E000
E000
E000
ENDCHAR
STARTCHAR 0071
ENCODING 113
SWIDTH 600 0
DWIDTH 20 0
BBX 16 21 2 -6
BITMAP
1FF0
1FF0
1FF0
E00F
E00F
E00F
E00F
E00F
E00F
E00F
E00F
E00F
1FFF
1FFF
1FFF
000F
000F
000F
000F
000F
000F
ENDCHAR
STARTCHAR 0072
ENCODING 114
SWIDTH 600 0
DWIDTH 20 0
BBX 16 15 2 0
BITMAP
1FF0
1FF0
1FF0
E00F
E00F
E00F
E000
E000
E000
E000
E000
E000
E000
E000
E000
ENDCHAR
STARTCHAR 0073
ENCODING 115
SWIDTH 600 0
DWIDTH 20 0
BBX 16 15 2 0
BITMAP
1FFF
1FFF
1FFF
E000
E000
E000
1FF0
1FF0
1FF0
000F
000F
000F
FFF0
FFF0
FFF0
ENDCHAR
STARTCHAR 0074
ENCODING 116
SWIDTH 690 0
DWIDTH 23 0
BBX 19 21 2 0
BITMAP
1C0000
1C0000
1C0000
1C0000
1C0000
1C0000
FFFF00
FFFF00
FFFF00
1C0000
1C0000
1C0000
1C0000
1C0000
1C0000
1C01E0
1C01E0
1C01E0
03FF00
03FF00
03FF00
ENDCHAR
STARTCHAR 0075
ENCODING 117
SWIDTH 600 0
DWIDTH 20 0
BBX 16 15 2 0
BITMAP
E00F
E00F
E00F
E00F
E00F
E00F
E00F
E00F
E00F
E00F
E00F
E00F
1FF0
1FF0
1FF0
ENDCHAR
STARTCHAR 0076
ENCODING 118
SWIDTH 570 0
DWIDTH 19 0
BBX 15 15 2 0
BITMAP
E00E
E00E
E00E
E00E
E00E
E00E
1C70
1C70
1C70
1C70
1C70
1C70
0380
0380
0380
ENDCHAR
STARTCHAR 0077
ENCODING 119
SWIDTH 780 0
DWIDTH 26 0
BBX 22 15 2 0
BITMAP
E0703C
E0703C
E0703C
E0703C
E0703C
E0703C
E0703C
E0703C
E0703C
E0703C
E0703C
E0703C
FF8FE0
FF8FE0
FF8FE0
ENDCHAR
STARTCHAR 0078
ENCODING 120
SWIDTH 600 0
DWIDTH 20 0
BBX 16 15 2 0
BITMAP
E00F
E00F
E00F
1C70
1C70
1C70
0380
0380
0380
1C70
1C70
1C70
E00F
E00F
E00F
ENDCHAR
STARTCHAR 0079
ENCODING 121
SWIDTH 600 0
DWIDTH 20 0
BBX 16 21 2 -6
BITMAP
E00F
E00F
E00F
E00F
E00F
E00F
E00F
E00F
E00F
1FFF
1FFF
1FFF
000F
000F
000F
E00F
E00F
E00F
1FF0
1FF0
1FF0
ENDCHAR
STARTCHAR 007A
ENCODING 122
SWIDTH 600 0
DWIDTH 20 0
BBX 16 15 2 0
BITMAP
FFFF
FFFF
FFFF
0070
0070
0070
0380
0380
0380
1C00
1C00
1C00
FFFF
FFFF
FFFF
ENDCHAR
STARTCHAR 007B
ENCODING 123
SWIDTH 450 0
DWIDTH 15 0
BBX 12 28 1 -4
BITMAP
0380
0380
0380
1C70
1C70
1C70
1C00
1C00
1C00
1C00
1C00
1C00
E000
E000
E000
1C00
1C00
1C00
1C00
1C00
1C00
1C70
1C70
1C70
1FF0
0380
0380
0380
ENDCHAR
STARTCHAR 007C
ENCODING 124
SWIDTH 210 0
DWIDTH 7 0
BBX 3 21 2 0
BITMAP
E0
E0
E0
E0
E0
E0
E0
E0
E0
E0
E0
E0
E0
E0
E0
E0
E0
E0
E0
E0
E0
ENDCHAR
STARTCHAR 007D
ENCODING 125
SWIDTH 450 0
DWIDTH 15 0
BBX 12 28 1 -4
BITMAP
1C00
1C00
1C00
E380
E380
E380
0380
0380
0380
0380
0380
0380
0070
0070
0070
0380
0380
0380
0380
0380
0380
E380
E380
E380
FF80
1C00
1C00
1C00
ENDCHAR
STARTCHAR 007E
ENCODING 126
SWIDTH 600 0
DWIDTH 20 0
BBX 8 3 6 7
BITMAP
FB
FB
DF
ENDCHAR
STARTCHAR 00A0
ENCODING 160
SWIDTH 210 0
DWIDTH 7 0
BBX 0 0 0 0
BITMAP
ENDCHAR
STARTCHAR 00A1
ENCODING 161
SWIDTH 210 0
DWIDTH 7 0
BBX 3 21 2 0
BITMAP
E0
E0
E0
00
00
00
E0
E0
E0
E0
E0
E0
E0
E0
E0
E0
E0
E0
E0
E0
E0
ENDCHAR
STARTCHAR 00A2
ENCODING 162
SWIDTH 600 0
DWIDTH 20 0
BBX 16 22 2 0
BITMAP
03C0
03C0
03C0
1FF0
1FF0
1FF0
FFFF
E00F
E00F
E00F
E000
E000
E00F
E00F
E00F
FFFF
1FF0
1FF0
1FF0
03C0
03C0
03C0
ENDCHAR
STARTCHAR 00A3
ENCODING 163
SWIDTH 690 0
DWIDTH 23 0
BBX 19 21 2 0
BITMAP
03FF00
03FF00
03FF00
1C01E0
1C01E0
1C01E0
1C0000
1C0000
1C0000
1FF000
1FF000
1FF000
1C0000
1C0000
1C0000
1C01E0
1C01E0
1C01E0
FFFF00
FFFF00
FFFF00
ENDCHAR
STARTCHAR 00A4
ENCODING 164
SWIDTH 450 0
DWIDTH 15 0
BBX 11 11 2 5
BITMAP
C060
C060
1F00
3FC0
20C0
20C0
20C0
20C0
1F00
DF60
C060
ENDCHAR
STARTCHAR 00A5
ENCODING 165
SWIDTH 600 0
DWIDTH 20 0
BBX 16 21 2 0
BITMAP
E00F
E00F
E00F
E00F
E00F
E00F
1C70
1C70
1C70
0380
0380
1FF0
1FF0
1FF0
0380
1FF0
1FF0
1FF0
1FF0
0380
0380
ENDCHAR
STARTCHAR 00A7
ENCODING 167
SWIDTH 600 0
DWIDTH 20 0
BBX 16 21 2 0
BITMAP
1FF0
1FF0
1FF0
E00F
E00F
E00F
E000
E000
E000
1FF0
1FF0
1FF0
FFFF
FFFF
FFFF
E000
E000
E000
1FFF
1FFF
1FFF
ENDCHAR
STARTCHAR 00A8
ENCODING 168
SWIDTH 300 0
DWIDTH 10 0
BBX 10 3 0 16
BITMAP
E1C0
E1C0
E1C0
ENDCHAR
STARTCHAR 00A9
ENCODING 169
SWIDTH 420 0
DWIDTH 14 0
BBX 9 9 2 12
BITMAP
3F00
3F00
C180
CD80
D380
DF80
C180
FF80
3F00
ENDCHAR
STARTCHAR 00AA
ENCODING 170
SWIDTH 390 0
DWIDTH 13 0
BBX 9 10 2 11
BITMAP
3C00
3C00
C300
C300
C300
C300
3C80
3C80
0000
3C00
ENDCHAR
STARTCHAR 00AB
ENCODING 171
SWIDTH 870 0
DWIDTH 29 0
BBX 26 28 1 -4
BITMAP
000F01C0
000F01C0
000F01C0
00700E00
00700E00
00700E00
03807000
03807000
03807000
1C038000
1C038000
1C038000
E01C0000
E01C0000
E01C0000
1C038000
1C038000
1C038000
1F83F000
03807000
03807000
03F07E00
00700E00
00700E00
007F0FC0
000F01C0
000F01C0
000F01C0
ENDCHAR
STARTCHAR 00AC
ENCODING 172
SWIDTH 600 0
DWIDTH 20 0
BBX 12 6 4 7
BITMAP
FFF0
FFF0
FFF0
0070
0070
0070
ENDCHAR
STARTCHAR 00AE
ENCODING 174
SWIDTH 420 0
DWIDTH 14 0
BBX 9 9 2 12
BITMAP
3F00
3F00
C180
C180
DD80
D180
C180
FF80
3F00
ENDCHAR
STARTCHAR 00AF
ENCODING 175
SWIDTH 300 0
DWIDTH 10 0
BBX 10 3 0 18
BITMAP
FFC0
FFC0
FFC0
ENDCHAR
STARTCHAR 00B0
ENCODING 176
SWIDTH 300 0
DWIDTH 10 0
BBX 6 6 2 13
BITMAP
78
C4
C4
C4
FC
78
ENDCHAR
STARTCHAR 00B1
ENCODING 177
SWIDTH 600 0
DWIDTH 20 0
BBX 14 16 3 0
BITMAP
0780
0780
0780
0780
FFFC
FFFC
FFFC
0780
0780
0780
0780
0000
0000
FFFC
FFFC
FFFC
ENDCHAR
STARTCHAR 00B2
ENCODING 178
SWIDTH 360 0
DWIDTH 12 0
BBX 8 11 2 10
BITMAP
3E
3E
C3
03
03
3E
FE
C0
C3
FF
3E
ENDCHAR
STARTCHAR 00B3
ENCODING 179
SWIDTH 360 0
DWIDTH 12 0
BBX 8 11 2 10
BITMAP
3E
3E
C3
03
03
3E
03
03
C3
FF
3E
ENDCHAR
STARTCHAR 00B4
ENCODING 180
SWIDTH 300 0
DWIDTH 10 0
BBX 5 5 2 18
BITMAP
18
18
60
E0
C0
ENDCHAR
STARTCHAR 00B5
ENCODING 181
SWIDTH 600 0
DWIDTH 20 0
BBX 16 21 2 -6
BITMAP
E00F
E00F
E00F
E00F
E00F
E00F
E00F
E00F
E00F
E00F
E00F
E00F
FFF0
FFF0
FFF0
E000
E000
E000
E000
E000
E000
ENDCHAR
STARTCHAR 00B6
ENCODING 182
SWIDTH 780 0
DWIDTH 26 0
BBX 22 27 2 -6
BITMAP
1FFFFC
1FFFFC
1FFFFC
FFFC30
FFFC30
FFFC30
FFFC30
FFFC30
FFFC30
FFFC30
FFFC30
FFFC30
1FFC30
1FFC30
1FFC30
000C30
000C30
000C30
000C30
000C30
000C30
000C30
000C30
000C30
000C30
000C30
000C30
ENDCHAR
STARTCHAR 00B7
ENCODING 183
SWIDTH 210 0
DWIDTH 7 0
BBX 3 3 2 9
BITMAP
E0
E0
E0
ENDCHAR
STARTCHAR 00B8
ENCODING 184
SWIDTH 300 0
DWIDTH 10 0
BBX 8 8 1 -7
BITMAP
18
18
18
06
C7
C1
3E
3E
ENDCHAR
STARTCHAR 00B9
ENCODING 185
SWIDTH 270 0
DWIDTH 9 0
BBX 5 11 2 10
BITMAP
20
20
D8
18
18
18
18
18
18
18
18
ENDCHAR
STARTCHAR 00BA
ENCODING 186
SWIDTH 360 0
DWIDTH 12 0
BBX 8 10 2 11
BITMAP
3C
FF
C3
C3
C3
C3
3C
3C
00
3C
ENDCHAR
STARTCHAR 00BB
ENCODING 187
SWIDTH 840 0
DWIDTH 28 0
BBX 26 28 0 -4
BITMAP
F01C0000
F01C0000
F01C0000
1E038000
1E038000
1E038000
03C07000
03C07000
03C07000
00780E00
00780E00
00780E00
000F01C0
000F01C0
000F01C0
00780E00
00780E00
00780E00
03F87E00
03C07000
03C07000
1FC3F000
1E038000
1E038000
FE1F8000
F01C0000
F01C0000
F01C0000
ENDCHAR
STARTCHAR 00BC
ENCODING 188
SWIDTH 870 0
DWIDTH 29 0
BBX 25 21 2 0
BITMAP
2000E000
2000E000
D800E000
1807E000
1807E000
1807E000
18070000
18070000
181C0000
181C0000
181C0380
00FC0380
00FC0D80
00FC1D80
00E01980
00E06180
07007F80
07007F80
07000180
07000180
07000180
ENDCHAR
STARTCHAR 00BD
ENCODING 189
SWIDTH 810 0
DWIDTH 27 0
BBX 23 21 2 0
BITMAP
200380
200380
D80380
181F80
181F80
181F80
181E00
181E00
187000
18707C
187186
03F186
03F006
03F07E
03807C
038180
0E0186
0E0186
0E0186
0E0186
0E007C
ENDCHAR
STARTCHAR 00BE
ENCODING 190
SWIDTH 960 0
DWIDTH 32 0
BBX 28 21 2 0
BITMAP
3E003C00
3E003C00
C3003C00
0300FC00
0300FC00
3E00FC00
0300E000
0300E000
C3070000
FF070000
3E0700F0
001F00F0
001F01B0
001F07B0
001C0630
001C0C30
00E00FF0
00E00FF0
00E00030
00E00030
00E00030
ENDCHAR
STARTCHAR 00BF
ENCODING 191
SWIDTH 600 0
DWIDTH 20 0
BBX 16 21 2 0
BITMAP
0380
0380
0380
0000
0000
0000
0380
0380
0380
1F80
1F80
1F80
E00F
E00F
E00F
E00F
E00F
E00F
1FF0
1FF0
1FF0
ENDCHAR
STARTCHAR 00C0
ENCODING 192
SWIDTH 600 0
DWIDTH 20 0
BBX 16 28 2 0
BITMAP
0C00
0E00
0600
0180
0180
0000
0000
0380
0380
0380
1C70
1C70
1C70
E00F
E00F
E00F
E00F
E00F
E00F
FFFF
FFFF
FFFF
E00F
E00F
E00F
E00F
E00F
E00F
ENDCHAR
STARTCHAR 00C1
ENCODING 193
SWIDTH 600 0
DWIDTH 20 0
BBX 16 28 2 0
BITMAP
00C0
03C0
0300
0600
0600
0000
0000
0380
0380
0380
1C70
1C70
1C70
E00F
E00F
E00F
E00F
E00F
E00F
FFFF
FFFF
FFFF
E00F
E00F
E00F
E00F
E00F
E00F
ENDCHAR
STARTCHAR 00C2
ENCODING 194
SWIDTH 600 0
DWIDTH 20 0
BBX 16 27 2 0
BITMAP
0180
0180
06C0
06C0
0000
0000
0380
0380
0380
1C70
1C70
1C70
E00F
E00F
E00F
E00F
E00F
E00F
FFFF
FFFF
FFFF
E00F
E00F
E00F
E00F
E00F
E00F
ENDCHAR
STARTCHAR 00C3
ENCODING 195
SWIDTH 600 0
DWIDTH 20 0
BBX 16 27 2 0
BITMAP
1F30
1F30
19F0
19F0
0000
0000
0380
0380
0380
1C70
1C70
1C70
E00F
E00F
E00F
E00F
E00F
E00F
FFFF
FFFF
FFFF
E00F
E00F
E00F
E00F
E00F
E00F
ENDCHAR
STARTCHAR 00C4
ENCODING 196
SWIDTH 600 0
DWIDTH 20 0
BBX 16 27 2 0
BITMAP
1C38
1C38
1C38
1C38
0000
0000
0380
0380
0380
1C70
1C70
1C70
E00F
E00F
E00F
E00F
E00F
E00F
FFFF
FFFF
FFFF
E00F
E00F
E00F
E00F
E00F
E00F
ENDCHAR
STARTCHAR 00C5
ENCODING 197
SWIDTH 600 0
DWIDTH 20 0
BBX 16 27 2 0
BITMAP
0380
0280
0380
0380
0000
0000
0380
0380
0380
1C70
1C70
1C70
E00F
E00F
E00F
E00F
E00F
E00F
FFFF
FFFF
FFFF
E00F
E00F
E00F
E00F
E00F
E00F
ENDCHAR
STARTCHAR 00C6
ENCODING 198
SWIDTH 960 0
DWIDTH 32 0
BBX 28 21 2 0
BITMAP
0381FF80
0381FF80
0381FF80
1C7F00F0
1C7F00F0
1C7F00F0
E00F0000
E00F0000
E00F0000
E00FFC00
E00FFC00
E00FFC00
FFFF0000
FFFF0000
FFFF0000
E00F00F0
E00F00F0
E00F00F0
E00FFF80
E00FFF80
E00FFF80
ENDCHAR
STARTCHAR 00C7
ENCODING 199
SWIDTH 600 0
DWIDTH 20 0
BBX 16 28 2 -7
BITMAP
1FF0
1FF0
1FF0
E00F
E00F
E00F
E00F
E00F
E00F
E000
E000
E000
E00F
E00F
E00F
E00F
E00F
E00F
1FF0
1FF0
1FF0
0180
0180
00C0
0CF0
0C30
07C0
07C0
ENDCHAR
STARTCHAR 00C8
ENCODING 200
SWIDTH 600 0
DWIDTH 20 0
BBX 16 28 2 0
BITMAP
0C00
0E00
0600
0180
0180
0000
0000
1FF0
1FF0
1FF0
E00F
E00F
E00F
E000
E000
E000
FF80
FF80
FF80
E000
E000
E000
E00F
E00F
E00F
1FF0
1FF0
1FF0
ENDCHAR
STARTCHAR 00C9
ENCODING 201
SWIDTH 600 0
DWIDTH 20 0
BBX 16 28 2 0
BITMAP
00C0
03C0
0300
0600
0600
0000
0000
1FF0
1FF0
1FF0
E00F
E00F
E00F
E000
E000
E000
FF80
FF80
FF80
E000
E000
E000
E00F
E00F
E00F
1FF0
1FF0
1FF0
ENDCHAR
STARTCHAR 00CA
ENCODING 202
SWIDTH 600 0
DWIDTH 20 0
BBX 16 27 2 0
BITMAP
0180
0180
06C0
06C0
0000
0000
1FF0
1FF0
1FF0
E00F
E00F
E00F
E000
E000
E000
FF80
FF80
FF80
E000
E000
E000
E00F
E00F
E00F
1FF0
1FF0
1FF0
ENDCHAR
STARTCHAR 00CB
ENCODING 203
SWIDTH 600 0
DWIDTH 20 0
BBX 16 27 2 0
BITMAP
1C38
1C38
1C38
1C38
0000
0000
1FF0
1FF0
1FF0
E00F
E00F
E00F
E000
E000
E000
FF80
FF80
FF80
E000
E000
E000
E00F
E00F
E00F
1FF0
1FF0
1FF0
ENDCHAR
STARTCHAR 00CC
ENCODING 204
SWIDTH 390 0
DWIDTH 13 0
BBX 9 28 2 0
BITMAP
6000
7000
3000
0C00
0C00
0000
0000
FF80
FF80
FF80
1C00
1C00
1C00
1C00
1C00
1C00
1C00
1C00
1C00
1C00
1C00
1C00
1C00
1C00
1C00
FF80
FF80
FF80
ENDCHAR
STARTCHAR 00CD
ENCODING 205
SWIDTH 390 0
DWIDTH 13 0
BBX 9 28 2 0
BITMAP
0600
1E00
1800
3000
3000
0000
0000
FF80
FF80
FF80
1C00
1C00
1C00
1C00
1C00
1C00
1C00
1C00
1C00
1C00
1C00
1C00
1C00
1C00
1C00
FF80
FF80
FF80
ENDCHAR
STARTCHAR 00CE
ENCODING 206
SWIDTH 390 0
DWIDTH 13 0
BBX 9 27 2 0
BITMAP
0C00
0C00
3600
3600
0000
0000
FF80
FF80
FF80
1C00
1C00
1C00
1C00
1C00
1C00
1C00
1C00
1C00
1C00
1C00
1C00
1C00
1C00
1C00
FF80
FF80
FF80
ENDCHAR
STARTCHAR 00CF
ENCODING 207
SWIDTH 390 0
DWIDTH 13 0
BBX 10 27 2 0
BITMAP
E1C0
E1C0
E1C0
E1C0
0000
0000
FF80
FF80
FF80
1C00
1C00
1C00
1C00
1C00
1C00
1C00
1C00
1C00
1C00
1C00
1C00
1C00
1C00
1C00
FF80
FF80
FF80
ENDCHAR
STARTCHAR 00D0
ENCODING 208
SWIDTH 600 0
DWIDTH 20 0
BBX 17 21 1 0
BITMAP
7FC000
7FC000
7FC000
703800
703800
703800
700780
700780
700780
700780
FE0780
FE0780
FE0780
700780
700780
703800
703800
703800
7FC000
7FC000
7FC000
ENDCHAR
STARTCHAR 00D1
ENCODING 209
SWIDTH 600 0
DWIDTH 20 0
BBX 16 27 2 0
BITMAP
1F30
1F30
19F0
19F0
0000
0000
E00F
E00F
E00F
FC0F
FC0F
FC0F
E38F
E38F
E38F
E38F
E38F
E38F
E38F
E38F
E38F
E07F
E07F
E07F
E00F
E00F
E00F
ENDCHAR
STARTCHAR 00D2
ENCODING 210
SWIDTH 600 0
DWIDTH 20 0
BBX 16 28 2 0
BITMAP
0C00
0E00
0600
0180
0180
0000
0000
1FF0
1FF0
1FF0
E00F
E00F
E00F
E00F
E00F
E00F
E00F
E00F
E00F
E00F
E00F
E00F
E00F
E00F
E00F
1FF0
1FF0
1FF0
ENDCHAR
STARTCHAR 00D3
ENCODING 211
SWIDTH 600 0
DWIDTH 20 0
BBX 16 28 2 0
BITMAP
00C0
03C0
0300
0600
0600
0000
0000
1FF0
1FF0
1FF0
E00F
E00F
E00F
E00F
E00F
E00F
E00F
E00F
E00F
E00F
E00F
E00F
E00F
E00F
E00F
1FF0
1FF0
1FF0
ENDCHAR
STARTCHAR 00D4
ENCODING 212
SWIDTH 600 0
DWIDTH 20 0
BBX 16 27 2 0
BITMAP
0180
0180
06C0
06C0
0000
0000
1FF0
1FF0
1FF0
E00F
E00F
E00F
E00F
E00F
E00F
E00F
E00F
E00F
E00F
E00F
E00F
E00F
E00F
E00F
1FF0
1FF0
1FF0
ENDCHAR
STARTCHAR 00D5
ENCODING 213
SWIDTH 600 0
DWIDTH 20 0
BBX 16 27 2 0
BITMAP
1F30
1F30
19F0
19F0
0000
0000
1FF0
1FF0
1FF0
E00F
E00F
E00F
E00F
E00F
E00F
E00F
E00F
E00F
E00F
E00F
E00F
E00F
E00F
E00F
1FF0
1FF0
1FF0
ENDCHAR
STARTCHAR 00D6
ENCODING 214
SWIDTH 600 0
DWIDTH 20 0
BBX 16 27 2 0
BITMAP
1C38
1C38
1C38
1C38
0000
0000
1FF0
1FF0
1FF0
E00F
E00F
E00F
E00F
E00F
E00F
E00F
E00F
E00F
E00F
E00F
E00F
E00F
E00F
E00F
1FF0
1FF0
1FF0
ENDCHAR
STARTCHAR 00D7
ENCODING 215
SWIDTH 600 0
DWIDTH 20 0
BBX 14 13 3 4
BITMAP
2010
7038
F87C
3CF8
1FF0
0FE0
07C0
0FC0
1FE0
3EF0
FC7C
7838
3010
ENDCHAR
STARTCHAR 00D8
ENCODING 216
SWIDTH 630 0
DWIDTH 21 0
BBX 17 24 2 -2
BITMAP
000780
0FFF00
0FFE00
0FFE00
701F00
703F00
703F00
707700
70F700
70E700
71E700
71C700
73C700
738700
778700
770700
7E0700
7E0700
7C0700
3FF800
3FF800
7FF800
700000
F00000
ENDCHAR
STARTCHAR 00D9
ENCODING 217
SWIDTH 600 0
DWIDTH 20 0
BBX 16 28 2 0
BITMAP
0C00
0E00
0600
0180
0180
0000
0000
E00F
E00F
E00F
E00F
E00F
E00F
E00F
E00F
E00F
E00F
E00F
E00F
E00F
E00F
E00F
E00F
E00F
E00F
1FF0
1FF0
1FF0
ENDCHAR
STARTCHAR 00DA
ENCODING 218
SWIDTH 600 0
DWIDTH 20 0
BBX 16 28 2 0
BITMAP
00C0
03C0
0300
0600
0600
0000
0000
E00F
E00F
E00F
E00F
E00F
E00F
E00F
E00F
E00F
E00F
E00F
E00F
E00F
E00F
E00F
E00F
E00F
E00F
1FF0
1FF0
1FF0
ENDCHAR
STARTCHAR 00DB
ENCODING 219
SWIDTH 600 0
DWIDTH 20 0
BBX 16 27 2 0
BITMAP
0180
0180
06C0
06C0
0000
0000
E00F
E00F
E00F
E00F
E00F
E00F
E00F
E00F
E00F
E00F
E00F
E00F
E00F
E00F
E00F
E00F
E00F
E00F
1FF0
1FF0
1FF0
ENDCHAR
STARTCHAR 00DC
ENCODING 220
SWIDTH 600 0
DWIDTH 20 0
BBX 16 27 2 0
BITMAP
1C38
1C38
1C38
1C38
0000
0000
E00F
E00F
E00F
E00F
E00F
E00F
E00F
E00F
E00F
E00F
E00F
E00F
E00F
E00F
E00F
E00F
E00F
E00F
1FF0
1FF0
1FF0
ENDCHAR
STARTCHAR 00DD
ENCODING 221
SWIDTH 600 0
DWIDTH 20 0
BBX 16 28 2 0
BITMAP
00C0
03C0
0300
0600
0600
0000
0000
E00F
E00F
E00F
E00F
E00F
E00F
1C70
1C70
1C70
0380
0380
0380
0380
0380
0380
0380
0380
0380
0380
0380
0380
ENDCHAR
STARTCHAR 00DE
ENCODING 222
SWIDTH 600 0
DWIDTH 20 0
BBX 16 21 2 0
BITMAP
E000
E000
E000
FFF0
FFF0
FFF0
FFFF
E00F
E00F
E00F
E00F
E00F
E00F
E00F
E00F
FFFF
FFF0
FFF0
FFF0
E000
E000
ENDCHAR
STARTCHAR 00DF
ENCODING 223
SWIDTH 600 0
DWIDTH 20 0
BBX 16 21 2 0
BITMAP
FFF0
FFF0
FFF0
E00F
E00F
E00F
E00F
E00F
E00F
E3F0
E3F0
E3F0
E00F
E00F
E00F
E00F
E00F
E00F
E3F0
E3F0
E3F0
ENDCHAR
STARTCHAR 00E0
ENCODING 224
SWIDTH 690 0
DWIDTH 23 0
BBX 19 22 2 0
BITMAP
0C0000
0E0000
020000
018000
018000
000000
000000
1FF000
1FF000
1FF000
E00F00
E00F00
E00F00
E00F00
E00F00
E00F00
E00F00
E00F00
E00F00
1FF1E0
1FF1E0
1FF1E0
ENDCHAR
STARTCHAR 00E1
ENCODING 225
SWIDTH 690 0
DWIDTH 23 0
BBX 19 22 2 0
BITMAP
00C000
01C000
018000
060000
060000
000000
000000
1FF000
1FF000
1FF000
E00F00
E00F00
E00F00
E00F00
E00F00
E00F00
E00F00
E00F00
E00F00
1FF1E0
1FF1E0
1FF1E0
ENDCHAR
STARTCHAR 00E2
ENCODING 226
SWIDTH 690 0
DWIDTH 23 0
BBX 19 21 2 0
BITMAP
018000
018000
026000
026000
000000
000000
1FF000
1FF000
1FF000
E00F00
E00F00
E00F00
E00F00
E00F00
E00F00
E00F00
E00F00
E00F00
1FF1E0
1FF1E0
1FF1E0
ENDCHAR
STARTCHAR 00E3
ENCODING 227
SWIDTH 690 0
DWIDTH 23 0
BBX 19 21 2 0
BITMAP
0FB000
0FB000
0DF000
0DF000
000000
000000
1FF000
1FF000
1FF000
E00F00
E00F00
E00F00
E00F00
E00F00
E00F00
E00F00
E00F00
E00F00
1FF1E0
1FF1E0
1FF1E0
ENDCHAR
STARTCHAR 00E4
ENCODING 228
SWIDTH 690 0
DWIDTH 23 0
BBX 19 21 2 0
BITMAP
1C3800
1C3800
1C3800
1C3800
000000
000000
1FF000
1FF000
1FF000
E00F00
E00F00
E00F00
E00F00
E00F00
E00F00
E00F00
E00F00
E00F00
1FF1E0
1FF1E0
1FF1E0
ENDCHAR
STARTCHAR 00E5
ENCODING 229
SWIDTH 690 0
DWIDTH 23 0
BBX 19 21 2 0
BITMAP
03C000
024000
03C000
03C000
000000
000000
1FF000
1FF000
1FF000
E00F00
E00F00
E00F00
E00F00
E00F00
E00F00
E00F00
E00F00
E00F00
1FF1E0
1FF1E0
1FF1E0
ENDCHAR
STARTCHAR 00E6
ENCODING 230
SWIDTH 1140 0
DWIDTH 38 0
BBX 34 15 2 0
BITMAP
1FF007FE00
1FF007FE00
1FF007FE00
E00F3C03C0
E00F3C03C0
E00F3C03C0
E00F3FF000
E00F3FF000
E00F3FF000
E00F3C03C0
E00F3C03C0
E00F3C03C0
1FF1E7FE00
1FF1E7FE00
1FF1E7FE00
ENDCHAR
STARTCHAR 00E7
ENCODING 231
SWIDTH 600 0
DWIDTH 20 0
BBX 16 22 2 -7
BITMAP
1FF0
1FF0
1FF0
E00F
E00F
E00F
E000
E000
E000
E00F
E00F
E00F
1FF0
1FF0
1FF0
0180
0180
00C0
0CF0
0C30
07C0
07C0
ENDCHAR
STARTCHAR 00E8
ENCODING 232
SWIDTH 600 0
DWIDTH 20 0
BBX 16 22 2 0
BITMAP
0C00
0E00
0600
0180
0180
0000
0000
1FF0
1FF0
1FF0
E00F
E00F
E00F
FF80
FF80
FF80
E00F
E00F
E00F
1FF0
1FF0
1FF0
ENDCHAR
STARTCHAR 00E9
ENCODING 233
SWIDTH 600 0
DWIDTH 20 0
BBX 16 22 2 0
BITMAP
00C0
03C0
0300
0600
0600
0000
0000
1FF0
1FF0
1FF0
E00F
E00F
E00F
FF80
FF80
FF80
E00F
E00F
E00F
1FF0
1FF0
1FF0
ENDCHAR
STARTCHAR 00EA
ENCODING 234
SWIDTH 600 0
DWIDTH 20 0
BBX 16 21 2 0
BITMAP
0180
0180
06C0
06C0
0000
0000
1FF0
1FF0
1FF0
E00F
E00F
E00F
FF80
FF80
FF80
E00F
E00F
E00F
1FF0
1FF0
1FF0
ENDCHAR
STARTCHAR 00EB
ENCODING 235
SWIDTH 600 0
DWIDTH 20 0
BBX 16 21 2 0
BITMAP
1C38
1C38
1C38
1C38
0000
0000
1FF0
1FF0
1FF0
E00F
E00F
E00F
FF80
FF80
FF80
E00F
E00F
E00F
1FF0
1FF0
1FF0
ENDCHAR
STARTCHAR 00EC
ENCODING 236
SWIDTH 210 0
DWIDTH 7 0
BBX 5 22 0 0
BITMAP
C0
E0
60
18
18
00
00
38
38
38
38
38
38
38
38
38
38
38
38
38
38
38
ENDCHAR
STARTCHAR 00ED
ENCODING 237
SWIDTH 210 0
DWIDTH 7 0
BBX 5 22 1 0
BITMAP
18
78
60
C0
C0
00
00
70
70
70
70
70
70
70
70
70
70
70
70
70
70
70
ENDCHAR
STARTCHAR 00EE
ENCODING 238
SWIDTH 210 0
DWIDTH 7 0
BBX 5 21 1 0
BITMAP
30
30
D8
D8
00
00
70
70
70
70
70
70
70
70
70
70
70
70
70
70
70
ENDCHAR
STARTCHAR 00EF
ENCODING 239
SWIDTH 210 0
DWIDTH 7 0
BBX 9 21 -1 0
BITMAP
F380
F380
F380
F380
0000
0000
1C00
1C00
1C00
1C00
1C00
1C00
1C00
1C00
1C00
1C00
1C00
1C00
1C00
1C00
1C00
ENDCHAR
STARTCHAR 00F0
ENCODING 240
SWIDTH 600 0
DWIDTH 20 0
BBX 17 23 2 0
BITMAP
000780
000E00
1FFE00
1FFC00
1FF800
E07F00
E0FF00
E0EF00
01CF00
000F00
000F00
1FFF00
1FFF00
1FFF00
E00F00
E00F00
E00F00
E00F00
E00F00
E00F00
1FF000
1FF000
1FF000
ENDCHAR
STARTCHAR 00F1
ENCODING 241
SWIDTH 600 0
DWIDTH 20 0
BBX 16 21 2 0
BITMAP
1F30
1F30
19F0
19F0
0000
0000
FFF0
FFF0
FFF0
E00F
E00F
E00F
E00F
E00F
E00F
E00F
E00F
E00F
E00F
E00F
E00F
ENDCHAR
STARTCHAR 00F2
ENCODING 242
SWIDTH 600 0
DWIDTH 20 0
BBX 16 22 2 0
BITMAP
0C00
0E00
0600
0180
0180
0000
0000
1FF0
1FF0
1FF0
E00F
E00F
E00F
E00F
E00F
E00F
E00F
E00F
E00F
1FF0
1FF0
1FF0
ENDCHAR
STARTCHAR 00F3
ENCODING 243
SWIDTH 600 0
DWIDTH 20 0
BBX 16 22 2 0
BITMAP
00C0
03C0
0300
0600
0600
0000
0000
1FF0
1FF0
1FF0
E00F
E00F
E00F
E00F
E00F
E00F
E00F
E00F
E00F
1FF0
1FF0
1FF0
ENDCHAR
STARTCHAR 00F4
ENCODING 244
SWIDTH 600 0
DWIDTH 20 0
BBX 16 21 2 0
BITMAP
0180
0180
06C0
06C0
0000
0000
1FF0
1FF0
1FF0
E00F
E00F
E00F
E00F
E00F
E00F
E00F
E00F
E00F
1FF0
1FF0
1FF0
ENDCHAR
STARTCHAR 00F5
ENCODING 245
SWIDTH 600 0
DWIDTH 20 0
BBX 16 21 2 0
BITMAP
1F30
1F30
19F0
19F0
0000
0000
1FF0
1FF0
1FF0
E00F
E00F
E00F
E00F
E00F
E00F
E00F
E00F
E00F
1FF0
1FF0
1FF0
ENDCHAR
STARTCHAR 00F6
ENCODING 246
SWIDTH 600 0
DWIDTH 20 0
BBX 16 21 2 0
BITMAP
1C38
1C38
1C38
1C38
0000
0000
1FF0
1FF0
1FF0
E00F
E00F
E00F
E00F
E00F
E00F
E00F
E00F
E00F
1FF0
1FF0
1FF0
ENDCHAR
STARTCHAR 00F7
ENCODING 247
SWIDTH 600 0
DWIDTH 20 0
BBX 12 14 4 3
BITMAP
0F00
0F00
0F00
0000
0000
0000
FFF0
FFF0
FFF0
0000
0000
0F00
0F00
0F00
ENDCHAR
STARTCHAR 00F8
ENCODING 248
SWIDTH 600 0
DWIDTH 20 0
BBX 17 20 1 -3
BITMAP
000380
000700
0FFF00
0FFE00
0FFC00
703F80
707F80
707780
70E780
71E780
73C780
738780
770780
7F0780
0FF800
1FF800
3FF800
780000
700000
E00000
ENDCHAR
STARTCHAR 00F9
ENCODING 249
SWIDTH 600 0
DWIDTH 20 0
BBX 16 22 2 0
BITMAP
0C00
0E00
0600
0180
0180
0000
0000
E00F
E00F
E00F
E00F
E00F
E00F
E00F
E00F
E00F
E00F
E00F
E00F
1FF0
1FF0
1FF0
ENDCHAR
STARTCHAR 00FA
ENCODING 250
SWIDTH 600 0
DWIDTH 20 0
BBX 16 22 2 0
BITMAP
00C0
03C0
0300
0600
0600
0000
0000
E00F
E00F
E00F
E00F
E00F
E00F
E00F
E00F
E00F
E00F
E00F
E00F
1FF0
1FF0
1FF0
ENDCHAR
STARTCHAR 00FB
ENCODING 251
SWIDTH 600 0
DWIDTH 20 0
BBX 16 21 2 0
BITMAP
0180
0180
06C0
06C0
0000
0000
E00F
E00F
E00F
E00F
E00F
E00F
E00F
E00F
E00F
E00F
E00F
E00F
1FF0
1FF0
1FF0
ENDCHAR
STARTCHAR 00FC
ENCODING 252
SWIDTH 600 0
DWIDTH 20 0
BBX 16 21 2 0
BITMAP
1C38
1C38
1C38
1C38
0000
0000
E00F
E00F
E00F
E00F
E00F
E00F
E00F
E00F
E00F
E00F
E00F
E00F
1FF0
1FF0
1FF0
ENDCHAR
STARTCHAR 00FD
ENCODING 253
SWIDTH 600 0
DWIDTH 20 0
BBX 16 28 2 -6
BITMAP
00C0
03C0
0300
0600
0600
0000
0000
E00F
E00F
E00F
E00F
E00F
E00F
E00F
E00F
E00F
1FFF
1FFF
1FFF
000F
000F
000F
E00F
E00F
E00F
1FF0
1FF0
1FF0
ENDCHAR
STARTCHAR 00FE
ENCODING 254
SWIDTH 600 0
DWIDTH 20 0
BBX 16 21 2 0
BITMAP
E000
E000
E000
E000
FFF0
FFF0
FFF0
FFFF
E00F
E00F
E00F
E00F
E00F
E00F
E00F
E00F
FFFF
FFF0
FFF0
FFF0
E000
ENDCHAR
STARTCHAR 00FF
ENCODING 255
SWIDTH 600 0
DWIDTH 20 0
BBX 16 27 2 -6
BITMAP
1C38
1C38
1C38
1C38
0000
0000
E00F
E00F
E00F
E00F
E00F
E00F
E00F
E00F
E00F
1FFF
1FFF
1FFF
000F
000F
000F
E00F
E00F
E00F
1FF0
1FF0
1FF0
ENDCHAR
STARTCHAR 0100
ENCODING 256
SWIDTH 600 0
DWIDTH 20 0
BBX 16 26 2 0
BITMAP
1FF8
1FF8
1FF8
0000
0000
0380
0380
0380
1C70
1C70
1C70
E00F
E00F
E00F
E00F
E00F
E00F
FFFF
FFFF
FFFF
E00F
E00F
E00F
E00F
E00F
E00F
ENDCHAR
STARTCHAR 0101
ENCODING 257
SWIDTH 690 0
DWIDTH 23 0
BBX 19 20 2 0
BITMAP
1FF800
1FF800
1FF800
000000
000000
1FF000
1FF000
1FF000
E00F00
E00F00
E00F00
E00F00
E00F00
E00F00
E00F00
E00F00
E00F00
1FF1E0
1FF1E0
1FF1E0
ENDCHAR
STARTCHAR 0102
ENCODING 258
SWIDTH 600 0
DWIDTH 20 0
BBX 16 27 2 0
BITMAP
0830
0830
0FF0
0FF0
0000
0000
0380
0380
0380
1C70
1C70
1C70
E00F
E00F
E00F
E00F
E00F
E00F
FFFF
FFFF
FFFF
E00F
E00F
E00F
E00F
E00F
E00F
ENDCHAR
STARTCHAR 0103
ENCODING 259
SWIDTH 690 0
DWIDTH 23 0
BBX 19 21 2 0
BITMAP
0C3000
0C3000
0FF000
0FF000
000000
000000
1FF000
1FF000
1FF000
E00F00
E00F00
E00F00
E00F00
E00F00
E00F00
E00F00
E00F00
E00F00
1FF1E0
1FF1E0
1FF1E0
ENDCHAR
STARTCHAR 0104
ENCODING 260
SWIDTH 600 0
DWIDTH 20 0
BBX 18 28 2 -7
BITMAP
038000
038000
038000
1C7000
1C7000
1C7000
E00F00
E00F00
E00F00
E00F00
E00F00
E00F00
FFFF00
FFFF00
FFFF00
E00F00
E00F00
E00F00
E00F00
E00F00
E00F00
000600
000600
001800
0038C0
0030C0
001F00
001F00
ENDCHAR
STARTCHAR 0105
ENCODING 261
SWIDTH 690 0
DWIDTH 23 0
BBX 21 22 2 -7
BITMAP
1FF000
1FF000
1FF000
E00F00
E00F00
E00F00
E00F00
E00F00
E00F00
E00F00
E00F00
E00F00
1FF1E0
1FF1E0
1FF1E0
0000C0
0000C0
000300
000718
000618
0003E0
0003E0
ENDCHAR
STARTCHAR 0106
ENCODING 262
SWIDTH 600 0
DWIDTH 20 0
BBX 16 28 2 0
BITMAP
00C0
03C0
0300
0600
0600
0000
0000
1FF0
1FF0
1FF0
E00F
E00F
E00F
E00F
E00F
E00F
E000
E000
E000
E00F
E00F
E00F
E00F
E00F
E00F
1FF0
1FF0
1FF0
ENDCHAR
STARTCHAR 0107
ENCODING 263
SWIDTH 600 0
DWIDTH 20 0
BBX 16 22 2 0
BITMAP
00C0
03C0
0300
0600
0600
0000
0000
1FF0
1FF0
1FF0
E00F
E00F
E00F
E000
E000
E000
E00F
E00F
E00F
1FF0
1FF0
1FF0
ENDCHAR
STARTCHAR 0108
ENCODING 264
SWIDTH 600 0
DWIDTH 20 0
BBX 16 27 2 0
BITMAP
0180
0180
06C0
06C0
0000
0000
1FF0
1FF0
1FF0
E00F
E00F
E00F
E00F
E00F
E00F
E000
E000
E000
E00F
E00F
E00F
E00F
E00F
E00F
1FF0
1FF0
1FF0
ENDCHAR
STARTCHAR 0109
ENCODING 265
SWIDTH 600 0
DWIDTH 20 0
BBX 16 21 2 0
BITMAP
0180
0180
06C0
06C0
0000
0000
1FF0
1FF0
1FF0
E00F
E00F
E00F
E000
E000
E000
E00F
E00F
E00F
1FF0
1FF0
1FF0
ENDCHAR
STARTCHAR 010A
ENCODING 266
SWIDTH 600 0
DWIDTH 20 0
BBX 16 27 2 0
BITMAP
0380
0380
0380
0380
0000
0000
1FF0
1FF0
1FF0
E00F
E00F
E00F
E00F
E00F
E00F
E000
E000
E000
E00F
E00F
E00F
E00F
E00F
E00F
1FF0
1FF0
1FF0
ENDCHAR
STARTCHAR 010B
ENCODING 267
SWIDTH 600 0
DWIDTH 20 0
BBX 16 21 2 0
BITMAP
0380
0380
0380
0380
0000
0000
1FF0
1FF0
1FF0
E00F
E00F
E00F
E000
E000
E000
E00F
E00F
E00F
1FF0
1FF0
1FF0
ENDCHAR
STARTCHAR 010C
ENCODING 268
SWIDTH 600 0
DWIDTH 20 0
BBX 16 27 2 0
BITMAP
06C0
06C0
0180
0180
0000
0000
1FF0
1FF0
1FF0
E00F
E00F
E00F
E00F
E00F
E00F
E000
E000
E000
E00F
E00F
E00F
E00F
E00F
E00F
1FF0
1FF0
1FF0
ENDCHAR
STARTCHAR 010D
ENCODING 269
SWIDTH 600 0
DWIDTH 20 0
BBX 16 21 2 0
BITMAP
06C0
06C0
0180
0180
0000
0000
1FF0
1FF0
1FF0
E00F
E00F
E00F
E000
E000
E000
E00F
E00F
E00F
1FF0
1FF0
1FF0
ENDCHAR
STARTCHAR 010E
ENCODING 270
SWIDTH 600 0
DWIDTH 20 0
BBX 16 27 2 0
BITMAP
0D80
0D80
0600
0600
0000
0000
FF80
FF80
FF80
E070
E070
E070
E00F
E00F
E00F
E00F
E00F
E00F
E00F
E00F
E00F
E070
E070
E070
FF80
FF80
FF80
ENDCHAR
STARTCHAR 010F
ENCODING 271
SWIDTH 600 0
DWIDTH 20 0
BBX 21 21 2 0
BITMAP
000FF0
000FF0
000FF0
000F18
000F30
000F30
1FFF00
1FFF00
1FFF00
E00F00
E00F00
E00F00
E00F00
E00F00
E00F00
E00F00
E00F00
E00F00
1FF000
1FF000
1FF000
ENDCHAR
STARTCHAR 0110
ENCODING 272
SWIDTH 600 0
DWIDTH 20 0
BBX 17 21 1 0
BITMAP
7FC000
7FC000
7FC000
703800
703800
703800
700780
700780
700780
700780
FE0780
FE0780
FE0780
700780
700780
703800
703800
703800
7FC000
7FC000
7FC000
ENDCHAR
STARTCHAR 0111
ENCODING 273
SWIDTH 600 0
DWIDTH 20 0
BBX 16 21 2 0
BITMAP
000F
07FF
07FF
07FF
07FF
000F
1FFF
1FFF
1FFF
E00F
E00F
E00F
E00F
E00F
E00F
E00F
E00F
E00F
1FF0
1FF0
1FF0
ENDCHAR
STARTCHAR 0112
ENCODING 274
SWIDTH 600 0
DWIDTH 20 0
BBX 16 26 2 0
BITMAP
1FF8
1FF8
1FF8
0000
0000
1FF0
1FF0
1FF0
E00F
E00F
E00F
E000
E000
E000
FF80
FF80
FF80
E000
E000
E000
E00F
E00F
E00F
1FF0
1FF0
1FF0
ENDCHAR
STARTCHAR 0113
ENCODING 275
SWIDTH 600 0
DWIDTH 20 0
BBX 16 20 2 0
BITMAP
1FF8
1FF8
1FF8
0000
0000
1FF0
1FF0
1FF0
E00F
E00F
E00F
FF80
FF80
FF80
E00F
E00F
E00F
1FF0
1FF0
1FF0
ENDCHAR
STARTCHAR 0114
ENCODING 276
SWIDTH 600 0
DWIDTH 20 0
BBX 16 27 2 0
BITMAP
0830
0830
0FF0
0FF0
0000
0000
1FF0
1FF0
1FF0
E00F
E00F
E00F
E000
E000
E000
FF80
FF80
FF80
E000
E000
E000
E00F
E00F
E00F
1FF0
1FF0
1FF0
ENDCHAR
STARTCHAR 0115
ENCODING 277
SWIDTH 600 0
DWIDTH 20 0
BBX 16 21 2 0
BITMAP
0830
0830
0FF0
0FF0
0000
0000
1FF0
1FF0
1FF0
E00F
E00F
E00F
FF80
FF80
FF80
E00F
E00F
E00F
1FF0
1FF0
1FF0
ENDCHAR
STARTCHAR 0116
ENCODING 278
SWIDTH 600 0
DWIDTH 20 0
BBX 16 27 2 0
BITMAP
0380
0380
0380
0380
0000
0000
1FF0
1FF0
1FF0
E00F
E00F
E00F
E000
E000
E000
FF80
FF80
FF80
E000
E000
E000
E00F
E00F
E00F
1FF0
1FF0
1FF0
ENDCHAR
STARTCHAR 0117
ENCODING 279
SWIDTH 600 0
DWIDTH 20 0
BBX 16 21 2 0
BITMAP
0380
0380
0380
0380
0000
0000
1FF0
1FF0
1FF0
E00F
E00F
E00F
FF80
FF80
FF80
E00F
E00F
E00F
1FF0
1FF0
1FF0
ENDCHAR
STARTCHAR 0118
ENCODING 280
SWIDTH 600 0
DWIDTH 20 0
BBX 16 28 2 -7
BITMAP
1FF0
1FF0
1FF0
E00F
E00F
E00F
E000
E000
E000
FF80
FF80
FF80
E000
E000
E000
E00F
E00F
E00F
1FF0
1FF0
1FF0
0180
0180
0600
0E30
0C30
07C0
07C0
ENDCHAR
STARTCHAR 0119
ENCODING 281
SWIDTH 600 0
DWIDTH 20 0
BBX 16 22 2 -7
BITMAP
1FF0
1FF0
1FF0
E00F
E00F
E00F
FF80
FF80
FF80
E00F
E00F
E00F
1FF0
1FF0
1FF0
0180
0180
0600
0E30
0C30
07C0
07C0
ENDCHAR
STARTCHAR 011A
ENCODING 282
SWIDTH 600 0
DWIDTH 20 0
BBX 16 27 2 0
BITMAP
06C0
06C0
0180
0180
0000
0000
1FF0
1FF0
1FF0
E00F
E00F
E00F
E000
E000
E000
FF80
FF80
FF80
E000
E000
E000
E00F
E00F
E00F
1FF0
1FF0
1FF0
ENDCHAR
STARTCHAR 011B
ENCODING 283
SWIDTH 600 0
DWIDTH 20 0
BBX 16 21 2 0
BITMAP
06C0
06C0
0180
0180
0000
0000
1FF0
1FF0
1FF0
E00F
E00F
E00F
FF80
FF80
FF80
E00F
E00F
E00F
1FF0
1FF0
1FF0
ENDCHAR
STARTCHAR 011C
ENCODING 284
SWIDTH 600 0
DWIDTH 20 0
BBX 16 27 2 0
BITMAP
0180
0180
06C0
06C0
0000
0000
1FF0
1FF0
1FF0
E00F
E00F
E00F
E00F
E00F
E00F
E380
E380
E380
E07F
E07F
E07F
E00F
E00F
E00F
1FF0
1FF0
1FF0
ENDCHAR
STARTCHAR 011D
ENCODING 285
SWIDTH 600 0
DWIDTH 20 0
BBX 16 27 2 -6
BITMAP
0180
0180
06C0
06C0
0000
0000
1FF0
1FF0
1FF0
E00F
E00F
E00F
E00F
E00F
E00F
1FFF
1FFF
1FFF
000F
000F
000F
E00F
E00F
E00F
1FF0
1FF0
1FF0
ENDCHAR
STARTCHAR 011E
ENCODING 286
SWIDTH 600 0
DWIDTH 20 0
BBX 16 27 2 0
BITMAP
0830
0830
0FF0
0FF0
0000
0000
1FF0
1FF0
1FF0
E00F
E00F
E00F
E00F
E00F
E00F
E380
E380
E380
E07F
E07F
E07F
E00F
E00F
E00F
1FF0
1FF0
1FF0
ENDCHAR
STARTCHAR 011F
ENCODING 287
SWIDTH 600 0
DWIDTH 20 0
BBX 16 27 2 -6
BITMAP
0830
0830
0FF0
0FF0
0000
0000
1FF0
1FF0
1FF0
E00F
E00F
E00F
E00F
E00F
E00F
1FFF
1FFF
1FFF
000F
000F
000F
E00F
E00F
E00F
1FF0
1FF0
1FF0
ENDCHAR
STARTCHAR 0120
ENCODING 288
SWIDTH 600 0
DWIDTH 20 0
BBX 16 27 2 0
BITMAP
0380
0380
0380
0380
0000
0000
1FF0
1FF0
1FF0
E00F
E00F
E00F
E00F
E00F
E00F
E380
E380
E380
E07F
E07F
E07F
E00F
E00F
E00F
1FF0
1FF0
1FF0
ENDCHAR
STARTCHAR 0121
ENCODING 289
SWIDTH 600 0
DWIDTH 20 0
BBX 16 27 2 -6
BITMAP
0380
0380
0380
0380
0000
0000
1FF0
1FF0
1FF0
E00F
E00F
E00F
E00F
E00F
E00F
1FFF
1FFF
1FFF
000F
000F
000F
E00F
E00F
E00F
1FF0
1FF0
1FF0
ENDCHAR
STARTCHAR 0122
ENCODING 290
SWIDTH 600 0
DWIDTH 20 0
BBX 16 29 2 -8
BITMAP
1FF0
1FF0
1FF0
E00F
E00F
E00F
E00F
E00F
E00F
E380
E380
E380
E07F
E07F
E07F
E00F
E00F
E00F
1FF0
1FF0
1FF0
0000
0000
0380
0380
0380
0060
01E0
0180
ENDCHAR
STARTCHAR 0123
ENCODING 291
SWIDTH 600 0
DWIDTH 20 0
BBX 16 30 2 -6
BITMAP
0180
0180
0600
07C0
01C0
01C0
01C0
0000
0000
1FF0
1FF0
1FF0
E00F
E00F
E00F
E00F
E00F
E00F
1FFF
1FFF
1FFF
000F
000F
000F
E00F
E00F
E00F
1FF0
1FF0
1FF0
ENDCHAR
STARTCHAR 0124
ENCODING 292
SWIDTH 600 0
DWIDTH 20 0
BBX 16 27 2 0
BITMAP
0180
0180
06C0
06C0
0000
0000
E00F
E00F
E00F
E00F
E00F
E00F
E38F
E38F
E38F
FFFF
FFFF
FFFF
E00F
E00F
E00F
E00F
E00F
E00F
E00F
E00F
E00F
ENDCHAR
STARTCHAR 0125
ENCODING 293
SWIDTH 600 0
DWIDTH 20 0
BBX 16 27 2 0
BITMAP
0180
0180
06C0
06C0
0000
0000
E000
E000
E000
E000
E000
E000
E3F0
E3F0
E3F0
FC0F
FC0F
FC0F
E00F
E00F
E00F
E00F
E00F
E00F
E00F
E00F
E00F
ENDCHAR
STARTCHAR 0126
ENCODING 294
SWIDTH 600 0
DWIDTH 20 0
BBX 16 21 2 0
BITMAP
E00F
FFFF
FFFF
FFFF
FFFF
E00F
E38F
E38F
E38F
FFFF
FFFF
FFFF
E00F
E00F
E00F
E00F
E00F
E00F
E00F
E00F
E00F
ENDCHAR
STARTCHAR 0127
ENCODING 295
SWIDTH 600 0
DWIDTH 20 0
BBX 17 21 1 0
BITMAP
700000
FF0000
FF0000
FF0000
700000
700000
71F800
71F800
71F800
7E0780
7E0780
7E0780
700780
700780
700780
700780
700780
700780
700780
700780
700780
ENDCHAR
STARTCHAR 0128
ENCODING 296
SWIDTH 390 0
DWIDTH 13 0
BBX 9 27 2 0
BITMAP
F980
F980
DF80
DF80
0000
0000
FF80
FF80
FF80
1C00
1C00
1C00
1C00
1C00
1C00
1C00
1C00
1C00
1C00
1C00
1C00
1C00
1C00
1C00
FF80
FF80
FF80
ENDCHAR
STARTCHAR 0129
ENCODING 297
SWIDTH 210 0
DWIDTH 7 0
BBX 9 21 -1 0
BITMAP
F980
F980
DF80
DF80
0000
0000
1C00
1C00
1C00
1C00
1C00
1C00
1C00
1C00
1C00
1C00
1C00
1C00
1C00
1C00
1C00
ENDCHAR
STARTCHAR 012A
ENCODING 298
SWIDTH 390 0
DWIDTH 13 0
BBX 10 26 2 0
BITMAP
FFC0
FFC0
FFC0
0000
0000
FF80
FF80
FF80
1C00
1C00
1C00
1C00
1C00
1C00
1C00
1C00
1C00
1C00
1C00
1C00
1C00
1C00
1C00
FF80
FF80
FF80
ENDCHAR
STARTCHAR 012B
ENCODING 299
SWIDTH 210 0
DWIDTH 7 0
BBX 10 20 -1 0
BITMAP
FFC0
FFC0
FFC0
0000
0000
1C00
1C00
1C00
1C00
1C00
1C00
1C00
1C00
1C00
1C00
1C00
1C00
1C00
1C00
1C00
ENDCHAR
STARTCHAR 012C
ENCODING 300
SWIDTH 390 0
DWIDTH 13 0
BBX 9 27 2 0
BITMAP
4180
4180
7F80
7F80
0000
0000
FF80
FF80
FF80
1C00
1C00
1C00
1C00
1C00
1C00
1C00
1C00
1C00
1C00
1C00
1C00
1C00
1C00
1C00
FF80
FF80
FF80
ENDCHAR
STARTCHAR 012D
ENCODING 301
SWIDTH 210 0
DWIDTH 7 0
BBX 8 21 0 0
BITMAP
83
FF
FF
00
00
00
38
38
38
38
38
38
38
38
38
38
38
38
38
38
38
ENDCHAR
STARTCHAR 012E
ENCODING 302
SWIDTH 390 0
DWIDTH 13 0
BBX 9 28 2 -7
BITMAP
FF80
FF80
FF80
1C00
1C00
1C00
1C00
1C00
1C00
1C00
1C00
1C00
1C00
1C00
1C00
1C00
1C00
1C00
FF80
FF80
FF80
0C00
0C00
3000
7180
6180
3E00
3E00
ENDCHAR
STARTCHAR 012F
ENCODING 303
SWIDTH 210 0
DWIDTH 7 0
BBX 8 28 0 -7
BITMAP
38
38
38
38
00
00
38
38
38
38
38
38
38
38
38
38
38
38
38
38
38
18
18
60
E3
C3
7C
7C
ENDCHAR
STARTCHAR 0130
ENCODING 304
SWIDTH 390 0
DWIDTH 13 0
BBX 9 27 2 0
BITMAP
1C00
1C00
1C00
1C00
0000
0000
FF80
FF80
FF80
1C00
1C00
1C00
1C00
1C00
1C00
1C00
1C00
1C00
1C00
1C00
1C00
1C00
1C00
1C00
FF80
FF80
FF80
ENDCHAR
STARTCHAR 0131
ENCODING 305
SWIDTH 210 0
DWIDTH 7 0
BBX 3 15 2 0
BITMAP
E0
E0
E0
E0
E0
E0
E0
E0
E0
E0
E0
E0
E0
E0
E0
ENDCHAR
STARTCHAR 0132
ENCODING 306
SWIDTH 990 0
DWIDTH 33 0
BBX 29 21 2 0
BITMAP
FF80FFC0
FF80FFC0
FF80FFC0
1C000038
1C000038
1C000038
1C000038
1C000038
1C000038
1C000038
1C000038
1C000038
1C078038
1C078038
1C078038
1C078038
1C078038
1C078038
FF80FFC0
FF80FFC0
FF80FFC0
ENDCHAR
STARTCHAR 0133
ENCODING 307
SWIDTH 690 0
DWIDTH 23 0
BBX 19 15 2 0
BITMAP
E000E0
E000E0
E000E0
E000E0
E000E0
E000E0
E000E0
E000E0
E000E0
E1C0E0
E1C0E0
E1C0E0
E03F00
E03F00
E03F00
ENDCHAR
STARTCHAR 0134
ENCODING 308
SWIDTH 600 0
DWIDTH 20 0
BBX 16 27 2 0
BITMAP
0180
0180
06C0
06C0
0000
0000
1FF0
1FF0
1FF0
000F
000F
000F
000F
000F
000F
000F
000F
000F
E00F
E00F
E00F
E00F
E00F
E00F
1FF0
1FF0
1FF0
ENDCHAR
STARTCHAR 0135
ENCODING 309
SWIDTH 510 0
DWIDTH 17 0
BBX 13 21 2 0
BITMAP
0030
0030
00D8
00D8
0000
0000
0070
0070
0070
0070
0070
0070
0070
0070
0070
E070
E070
E070
1F80
1F80
1F80
ENDCHAR
STARTCHAR 0136
ENCODING 310
SWIDTH 600 0
DWIDTH 20 0
BBX 16 29 2 -8
BITMAP
1C0F
1C0F
1C0F
E070
E070
E070
E380
E380
E380
FC00
FC00
FC00
E380
E380
E380
E070
E070
E070
E00F
E00F
E00F
0000
0000
0380
0380
0380
0060
01E0
0180
ENDCHAR
STARTCHAR 0137
ENCODING 311
SWIDTH 600 0
DWIDTH 20 0
BBX 16 29 2 -8
BITMAP
E000
E000
E000
E000
E000
E000
E00F
E00F
E00F
E3F0
E3F0
E3F0
FC00
FC00
FC00
E3F0
E3F0
E3F0
E00F
E00F
E00F
0000
0000
0380
0380
0380
0060
01E0
0180
ENDCHAR
STARTCHAR 0139
ENCODING 313
SWIDTH 600 0
DWIDTH 20 0
BBX 16 28 2 0
BITMAP
00C0
03C0
0300
0600
0600
0000
0000
E000
E000
E000
E000
E000
E000
E000
E000
E000
E000
E000
E000
E000
E000
E000
E00F
E00F
E00F
1FF0
1FF0
1FF0
ENDCHAR
STARTCHAR 013A
ENCODING 314
SWIDTH 210 0
DWIDTH 7 0
BBX 5 28 1 0
BITMAP
18
78
60
C0
C0
00
00
70
70
70
70
70
70
70
70
70
70
70
70
70
70
70
70
70
70
70
70
70
ENDCHAR
STARTCHAR 013B
ENCODING 315
SWIDTH 600 0
DWIDTH 20 0
BBX 16 29 2 -8
BITMAP
E000
E000
E000
E000
E000
E000
E000
E000
E000
E000
E000
E000
E000
E000
E000
E00F
E00F
E00F
1FF0
1FF0
1FF0
0000
0000
0380
0380
0380
0060
01E0
0180
ENDCHAR
STARTCHAR 013C
ENCODING 316
SWIDTH 210 0
DWIDTH 7 0
BBX 5 29 2 -8
BITMAP
E0
E0
E0
E0
E0
E0
E0
E0
E0
E0
E0
E0
E0
E0
E0
E0
E0
E0
E0
E0
E0
00
00
E0
E0
E0
18
78
60
ENDCHAR
STARTCHAR 013D
ENCODING 317
SWIDTH 600 0
DWIDTH 20 0
BBX 16 21 2 0
BITMAP
E070
E070
E070
E00C
E030
E030
E000
E000
E000
E000
E000
E000
E000
E000
E000
E00F
E00F
E00F
1FF0
1FF0
1FF0
ENDCHAR
STARTCHAR 013E
ENCODING 318
SWIDTH 210 0
DWIDTH 7 0
BBX 9 21 2 0
BITMAP
EE00
EE00
EE00
E180
E200
E200
E000
E000
E000
E000
E000
E000
E000
E000
E000
E000
E000
E000
E000
E000
E000
ENDCHAR
STARTCHAR 013F
ENCODING 319
SWIDTH 600 0
DWIDTH 20 0
BBX 16 21 2 0
BITMAP
E000
E000
E000
E000
E380
E380
E380
E000
E000
E000
E000
E000
E000
E000
E000
E00F
E00F
E00F
1FF0
1FF0
1FF0
ENDCHAR
STARTCHAR 0140
ENCODING 320
SWIDTH 210 0
DWIDTH 7 0
BBX 3 21 2 0
BITMAP
E0
E0
E0
E0
E0
E0
E0
E0
E0
E0
E0
E0
E0
E0
E0
E0
E0
E0
E0
E0
E0
ENDCHAR
STARTCHAR 0141
ENCODING 321
SWIDTH 600 0
DWIDTH 20 0
BBX 19 21 -1 0
BITMAP
1C0000
1C0000
1C0000
1C8000
1CC000
1DC000
1F8000
1F0000
1F0000
1E0000
1C0000
3C0000
3C0000
7C0000
FC0000
5C01E0
1C01E0
1C01E0
03FF00
03FF00
03FF00
ENDCHAR
STARTCHAR 0142
ENCODING 322
SWIDTH 240 0
DWIDTH 8 0
BBX 9 21 -1 0
BITMAP
1C00
1C00
1C00
1C00
1D00
1D80
1F80
1F00
1E00
1E00
1C00
1C00
3C00
3C00
7C00
FC00
7C00
1C00
1C00
1C00
1C00
ENDCHAR
STARTCHAR 0143
ENCODING 323
SWIDTH 600 0
DWIDTH 20 0
BBX 16 28 2 0
BITMAP
00C0
03C0
0300
0600
0600
0000
0000
E00F
E00F
E00F
FC0F
FC0F
FC0F
E38F
E38F
E38F
E38F
E38F
E38F
E38F
E38F
E38F
E07F
E07F
E07F
E00F
E00F
E00F
ENDCHAR
STARTCHAR 0144
ENCODING 324
SWIDTH 600 0
DWIDTH 20 0
BBX 16 22 2 0
BITMAP
00C0
03C0
0300
0600
0600
0000
0000
FFF0
FFF0
FFF0
E00F
E00F
E00F
E00F
E00F
E00F
E00F
E00F
E00F
E00F
E00F
E00F
ENDCHAR
STARTCHAR 0145
ENCODING 325
SWIDTH 600 0
DWIDTH 20 0
BBX 16 29 2 -8
BITMAP
E00F
E00F
E00F
FC0F
FC0F
FC0F
E38F
E38F
E38F
E38F
E38F
E38F
E38F
E38F
E38F
E07F
E07F
E07F
E00F
E00F
E00F
0000
0000
0380
0380
0380
0060
01E0
0180
ENDCHAR
STARTCHAR 0146
ENCODING 326
SWIDTH 600 0
DWIDTH 20 0
BBX 16 23 2 -8
BITMAP
FFF0
FFF0
FFF0
E00F
E00F
E00F
E00F
E00F
E00F
E00F
E00F
E00F
E00F
E00F
E00F
0000
0000
0380
0380
0380
0060
01E0
0180
ENDCHAR
STARTCHAR 0147
ENCODING 327
SWIDTH 600 0
DWIDTH 20 0
BBX 16 27 2 0
BITMAP
06C0
06C0
0180
0180
0000
0000
E00F
E00F
E00F
FC0F
FC0F
FC0F
E38F
E38F
E38F
E38F
E38F
E38F
E38F
E38F
E38F
E07F
E07F
E07F
E00F
E00F
E00F
ENDCHAR
STARTCHAR 0148
ENCODING 328
SWIDTH 600 0
DWIDTH 20 0
BBX 16 21 2 0
BITMAP
06C0
06C0
0180
0180
0000
0000
FFF0
FFF0
FFF0
E00F
E00F
E00F
E00F
E00F
E00F
E00F
E00F
E00F
E00F
E00F
E00F
ENDCHAR
STARTCHAR 0149
ENCODING 329
SWIDTH 660 0
DWIDTH 22 0
BBX 20 21 0 0
BITMAP
F00000
F00000
F00000
180000
380000
300000
07FF80
07FF80
07FF80
070070
070070
070070
070070
070070
070070
070070
070070
070070
070070
070070
070070
ENDCHAR
STARTCHAR 014A
ENCODING 330
SWIDTH 600 0
DWIDTH 20 0
BBX 16 29 2 -8
BITMAP
E00F
E00F
E00F
FC0F
FC0F
FC0F
E38F
E38F
E38F
E38F
E38F
E38F
E38F
E38F
E38F
E07F
E07F
E07F
E00F
E00F
E00F
000F
000F
1C0F
1C0F
1C0F
03F0
03F0
03F0
ENDCHAR
STARTCHAR 014B
ENCODING 331
SWIDTH 600 0
DWIDTH 20 0
BBX 16 23 2 -8
BITMAP
FFF0
FFF0
FFF0
E00F
E00F
E00F
E00F
E00F
E00F
E00F
E00F
E00F
E00F
E00F
E00F
000F
000F
1C0F
1C0F
1C0F
03F0
03F0
03F0
ENDCHAR
STARTCHAR 014C
ENCODING 332
SWIDTH 600 0
DWIDTH 20 0
BBX 16 26 2 0
BITMAP
1FF8
1FF8
1FF8
0000
0000
1FF0
1FF0
1FF0
E00F
E00F
E00F
E00F
E00F
E00F
E00F
E00F
E00F
E00F
E00F
E00F
E00F
E00F
E00F
1FF0
1FF0
1FF0
ENDCHAR
STARTCHAR 014D
ENCODING 333
SWIDTH 600 0
DWIDTH 20 0
BBX 16 20 2 0
BITMAP
1FF8
1FF8
1FF8
0000
0000
1FF0
1FF0
1FF0
E00F
E00F
E00F
E00F
E00F
E00F
E00F
E00F
E00F
1FF0
1FF0
1FF0
ENDCHAR
STARTCHAR 014E
ENCODING 334
SWIDTH 600 0
DWIDTH 20 0
BBX 16 27 2 0
BITMAP
0830
0830
0FF0
0FF0
0000
0000
1FF0
1FF0
1FF0
E00F
E00F
E00F
E00F
E00F
E00F
E00F
E00F
E00F
E00F
E00F
E00F
E00F
E00F
E00F
1FF0
1FF0
1FF0
ENDCHAR
STARTCHAR 014F
ENCODING 335
SWIDTH 600 0
DWIDTH 20 0
BBX 16 21 2 0
BITMAP
0830
0830
0FF0
0FF0
0000
0000
1FF0
1FF0
1FF0
E00F
E00F
E00F
E00F
E00F
E00F
E00F
E00F
E00F
1FF0
1FF0
1FF0
ENDCHAR
STARTCHAR 0150
ENCODING 336
SWIDTH 600 0
DWIDTH 20 0
BBX 16 28 2 0
BITMAP
1980
1FE0
0660
0330
0330
0000
0000
1FF0
1FF0
1FF0
E00F
E00F
E00F
E00F
E00F
E00F
E00F
E00F
E00F
E00F
E00F
E00F
E00F
E00F
E00F
1FF0
1FF0
1FF0
ENDCHAR
STARTCHAR 0151
ENCODING 337
SWIDTH 600 0
DWIDTH 20 0
BBX 16 22 2 0
BITMAP
1980
1FE0
0660
0330
0330
0000
0000
1FF0
1FF0
1FF0
E00F
E00F
E00F
E00F
E00F
E00F
E00F
E00F
E00F
1FF0
1FF0
1FF0
ENDCHAR
STARTCHAR 0152
ENCODING 338
SWIDTH 960 0
DWIDTH 32 0
BBX 28 21 2 0
BITMAP
1FF1FF80
1FF1FF80
1FF1FF80
E00F00F0
E00F00F0
E00F00F0
E00F0000
E00F0000
E00F0000
E00FFC00
E00FFC00
E00FFC00
E00F0000
E00F0000
E00F0000
E00F00F0
E00F00F0
E00F00F0
1FF1FF80
1FF1FF80
1FF1FF80
ENDCHAR
STARTCHAR 0153
ENCODING 339
SWIDTH 960 0
DWIDTH 32 0
BBX 28 15 2 0
BITMAP
1FF1FF80
1FF1FF80
1FF1FF80
E00F00F0
E00F00F0
E00F00F0
E00FFC00
E00FFC00
E00FFC00
E00F00F0
E00F00F0
E00F00F0
1FF1FF80
1FF1FF80
1FF1FF80
ENDCHAR
STARTCHAR 0154
ENCODING 340
SWIDTH 600 0
DWIDTH 20 0
BBX 16 28 2 0
BITMAP
00C0
03C0
0300
0600
0600
0000
0000
1FF0
1FF0
1FF0
E00F
E00F
E00F
E00F
E00F
E00F
E00F
E00F
E00F
FFF0
FFF0
FFF0
E0E0
E0E0
E0E0
E01C
E01C
E01C
ENDCHAR
STARTCHAR 0155
ENCODING 341
SWIDTH 600 0
DWIDTH 20 0
BBX 16 22 2 0
BITMAP
00C0
03C0
0300
0600
0600
0000
0000
1FF0
1FF0
1FF0
E00F
E00F
E00F
E000
E000
E000
E000
E000
E000
E000
E000
E000
ENDCHAR
STARTCHAR 0156
ENCODING 342
SWIDTH 600 0
DWIDTH 20 0
BBX 16 29 2 -8
BITMAP
1FF0
1FF0
1FF0
E00F
E00F
E00F
E00F
E00F
E00F
E00F
E00F
E00F
FFF0
FFF0
FFF0
E0E0
E0E0
E0E0
E01C
E01C
E01C
0000
0000
0380
0380
0380
0060
01E0
0180
ENDCHAR
STARTCHAR 0157
ENCODING 343
SWIDTH 600 0
DWIDTH 20 0
BBX 16 23 2 -8
BITMAP
1FF0
1FF0
1FF0
E00F
E00F
E00F
E000
E000
E000
E000
E000
E000
E000
E000
E000
0000
0000
0380
0380
0380
0060
01E0
0180
ENDCHAR
STARTCHAR 0158
ENCODING 344
SWIDTH 600 0
DWIDTH 20 0
BBX 16 27 2 0
BITMAP
06C0
06C0
0180
0180
0000
0000
1FF0
1FF0
1FF0
E00F
E00F
E00F
E00F
E00F
E00F
E00F
E00F
E00F
FFF0
FFF0
FFF0
E0E0
E0E0
E0E0
E01C
E01C
E01C
ENDCHAR
STARTCHAR 0159
ENCODING 345
SWIDTH 600 0
DWIDTH 20 0
BBX 16 21 2 0
BITMAP
06C0
06C0
0180
0180
0000
0000
1FF0
1FF0
1FF0
E00F
E00F
E00F
E000
E000
E000
E000
E000
E000
E000
E000
E000
ENDCHAR
STARTCHAR 015A
ENCODING 346
SWIDTH 600 0
DWIDTH 20 0
BBX 16 28 2 0
BITMAP
00C0
03C0
0300
0600
0600
0000
0000
1FF0
1FF0
1FF0
E00F
E00F
E00F
E000
E000
E000
1FF0
1FF0
1FF0
000F
000F
000F
E00F
E00F
E00F
1FF0
1FF0
1FF0
ENDCHAR
STARTCHAR 015B
ENCODING 347
SWIDTH 600 0
DWIDTH 20 0
BBX 16 22 2 0
BITMAP
0060
00E0
00C0
0300
0300
0000
0000
1FFF
1FFF
1FFF
E000
E000
E000
1FF0
1FF0
1FF0
000F
000F
000F
FFF0
FFF0
FFF0
ENDCHAR
STARTCHAR 015C
ENCODING 348
SWIDTH 600 0
DWIDTH 20 0
BBX 16 27 2 0
BITMAP
0180
0180
06C0
06C0
0000
0000
1FF0
1FF0
1FF0
E00F
E00F
E00F
E000
E000
E000
1FF0
1FF0
1FF0
000F
000F
000F
E00F
E00F
E00F
1FF0
1FF0
1FF0
ENDCHAR
STARTCHAR 015D
ENCODING 349
SWIDTH 600 0
DWIDTH 20 0
BBX 16 21 2 0
BITMAP
00C0
00C0
01B0
01B0
0000
0000
1FFF
1FFF
1FFF
E000
E000
E000
1FF0
1FF0
1FF0
000F
000F
000F
FFF0
FFF0
FFF0
ENDCHAR
STARTCHAR 015E
ENCODING 350
SWIDTH 600 0
DWIDTH 20 0
BBX 16 28 2 -7
BITMAP
1FF0
1FF0
1FF0
E00F
E00F
E00F
E000
E000
E000
1FF0
1FF0
1FF0
000F
000F
000F
E00F
E00F
E00F
1FF0
1FF0
1FF0
0180
0180
00C0
0CF0
0C30
07C0
07C0
ENDCHAR
STARTCHAR 015F
ENCODING 351
SWIDTH 600 0
DWIDTH 20 0
BBX 16 22 2 -7
BITMAP
1FFF
1FFF
1FFF
E000
E000
E000
1FF0
1FF0
1FF0
000F
000F
000F
FFF0
FFF0
FFF0
0180
0180
00C0
0CF0
0C30
07C0
07C0
ENDCHAR
STARTCHAR 0160
ENCODING 352
SWIDTH 600 0
DWIDTH 20 0
BBX 16 27 2 0
BITMAP
06C0
06C0
0180
0180
0000
0000
1FF0
1FF0
1FF0
E00F
E00F
E00F
E000
E000
E000
1FF0
1FF0
1FF0
000F
000F
000F
E00F
E00F
E00F
1FF0
1FF0
1FF0
ENDCHAR
STARTCHAR 0161
ENCODING 353
SWIDTH 600 0
DWIDTH 20 0
BBX 16 21 2 0
BITMAP
01B0
01B0
00C0
00C0
0000
0000
1FFF
1FFF
1FFF
E000
E000
E000
1FF0
1FF0
1FF0
000F
000F
000F
FFF0
FFF0
FFF0
ENDCHAR
STARTCHAR 0162
ENCODING 354
SWIDTH 600 0
DWIDTH 20 0
BBX 16 28 2 -7
BITMAP
1FF0
1FF0
1FF0
E38F
E38F
E38F
0380
0380
0380
0380
0380
0380
0380
0380
0380
0380
0380
0380
0380
0380
0380
0180
0180
00C0
0CF0
0C30
07C0
07C0
ENDCHAR
STARTCHAR 0163
ENCODING 355
SWIDTH 690 0
DWIDTH 23 0
BBX 19 28 2 -7
BITMAP
1C0000
1C0000
1C0000
1C0000
1C0000
1C0000
FFFF00
FFFF00
FFFF00
1C0000
1C0000
1C0000
1C0000
1C0000
1C0000
1C01E0
1C01E0
1C01E0
03FF00
03FF00
03FF00
006000
006000
001800
031C00
030C00
00F800
00F800
ENDCHAR
STARTCHAR 0164
ENCODING 356
SWIDTH 600 0
DWIDTH 20 0
BBX 16 27 2 0
BITMAP
06C0
06C0
0180
0180
0000
0000
1FF0
1FF0
1FF0
E38F
E38F
E38F
0380
0380
0380
0380
0380
0380
0380
0380
0380
0380
0380
0380
0380
0380
0380
ENDCHAR
STARTCHAR 0165
ENCODING 357
SWIDTH 690 0
DWIDTH 23 0
BBX 21 21 2 0
BITMAP
1C00E0
1C00E0
1C00E0
1C0018
1C0060
1C0060
FFFF00
FFFF00
FFFF00
1C0000
1C0000
1C0000
1C0000
1C0000
1C0000
1C01E0
1C01E0
1C01E0
03FF00
03FF00
03FF00
ENDCHAR
STARTCHAR 0166
ENCODING 358
SWIDTH 600 0
DWIDTH 20 0
BBX 16 21 2 0
BITMAP
1FF0
1FF0
1FF0
E38F
E38F
E38F
0380
0380
1FF0
1FF0
1FF0
0380
0380
0380
0380
0380
0380
0380
0380
0380
0380
ENDCHAR
STARTCHAR 0167
ENCODING 359
SWIDTH 690 0
DWIDTH 23 0
BBX 19 21 2 0
BITMAP
1C0000
1C0000
1C0000
1C0000
1C0000
1C0000
FFFF00
FFFF00
FFFF00
1C0000
1C0000
1C0000
FF8000
FF8000
FF8000
FF81E0
1C01E0
1C01E0
03FF00
03FF00
03FF00
ENDCHAR
STARTCHAR 0168
ENCODING 360
SWIDTH 600 0
DWIDTH 20 0
BBX 16 27 2 0
BITMAP
1F30
1F30
19F0
19F0
0000
0000
E00F
E00F
E00F
E00F
E00F
E00F
E00F
E00F
E00F
E00F
E00F
E00F
E00F
E00F
E00F
E00F
E00F
E00F
1FF0
1FF0
1FF0
ENDCHAR
STARTCHAR 0169
ENCODING 361
SWIDTH 600 0
DWIDTH 20 0
BBX 16 21 2 0
BITMAP
1F30
1F30
19F0
19F0
0000
0000
E00F
E00F
E00F
E00F
E00F
E00F
E00F
E00F
E00F
E00F
E00F
E00F
1FF0
1FF0
1FF0
ENDCHAR
STARTCHAR 016A
ENCODING 362
SWIDTH 600 0
DWIDTH 20 0
BBX 16 26 2 0
BITMAP
1FF8
1FF8
1FF8
0000
0000
E00F
E00F
E00F
E00F
E00F
E00F
E00F
E00F
E00F
E00F
E00F
E00F
E00F
E00F
E00F
E00F
E00F
E00F
1FF0
1FF0
1FF0
ENDCHAR
STARTCHAR 016B
ENCODING 363
SWIDTH 600 0
DWIDTH 20 0
BBX 16 20 2 0
BITMAP
1FF8
1FF8
1FF8
0000
0000
E00F
E00F
E00F
E00F
E00F
E00F
E00F
E00F
E00F
E00F
E00F
E00F
1FF0
1FF0
1FF0
ENDCHAR
STARTCHAR 016C
ENCODING 364
SWIDTH 600 0
DWIDTH 20 0
BBX 16 27 2 0
BITMAP
0830
0830
0FF0
0FF0
0000
0000
E00F
E00F
E00F
E00F
E00F
E00F
E00F
E00F
E00F
E00F
E00F
E00F
E00F
E00F
E00F
E00F
E00F
E00F
1FF0
1FF0
1FF0
ENDCHAR
STARTCHAR 016D
ENCODING 365
SWIDTH 600 0
DWIDTH 20 0
BBX 16 21 2 0
BITMAP
0830
0830
0FF0
0FF0
0000
0000
E00F
E00F
E00F
E00F
E00F
E00F
E00F
E00F
E00F
E00F
E00F
E00F
1FF0
1FF0
1FF0
ENDCHAR
STARTCHAR 016E
ENCODING 366
SWIDTH 600 0
DWIDTH 20 0
BBX 16 27 2 0
BITMAP
0380
0280
0380
0380
0000
0000
E00F
E00F
E00F
E00F
E00F
E00F
E00F
E00F
E00F
E00F
E00F
E00F
E00F
E00F
E00F
E00F
E00F
E00F
1FF0
1FF0
1FF0
ENDCHAR
STARTCHAR 016F
ENCODING 367
SWIDTH 600 0
DWIDTH 20 0
BBX 16 21 2 0
BITMAP
0380
0280
0380
0380
0000
0000
E00F
E00F
E00F
E00F
E00F
E00F
E00F
E00F
E00F
E00F
E00F
E00F
1FF0
1FF0
1FF0
ENDCHAR
STARTCHAR 0170
ENCODING 368
SWIDTH 600 0
DWIDTH 20 0
BBX 16 28 2 0
BITMAP
1980
1FE0
0660
0330
0330
0000
0000
E00F
E00F
E00F
E00F
E00F
E00F
E00F
E00F
E00F
E00F
E00F
E00F
E00F
E00F
E00F
E00F
E00F
E00F
1FF0
1FF0
1FF0
ENDCHAR
STARTCHAR 0171
ENCODING 369
SWIDTH 600 0
DWIDTH 20 0
BBX 16 22 2 0
BITMAP
1980
1FE0
0660
0330
0330
0000
0000
E00F
E00F
E00F
E00F
E00F
E00F
E00F
E00F
E00F
E00F
E00F
E00F
1FF0
1FF0
1FF0
ENDCHAR
STARTCHAR 0172
ENCODING 370
SWIDTH 600 0
DWIDTH 20 0
BBX 16 28 2 -7
BITMAP
E00F
E00F
E00F
E00F
E00F
E00F
E00F
E00F
E00F
E00F
E00F
E00F
E00F
E00F
E00F
E00F
E00F
E00F
1FF0
1FF0
1FF0
0180
0180
0600
0E30
0C30
07C0
07C0
ENDCHAR
STARTCHAR 0173
ENCODING 371
SWIDTH 600 0
DWIDTH 20 0
BBX 16 22 2 -7
BITMAP
E00F
E00F
E00F
E00F
E00F
E00F
E00F
E00F
E00F
E00F
E00F
E00F
1FF0
1FF0
1FF0
0180
0180
0600
0E30
0C30
07C0
07C0
ENDCHAR
STARTCHAR 0174
ENCODING 372
SWIDTH 780 0
DWIDTH 26 0
BBX 22 27 2 0
BITMAP
003000
003000
00D800
00D800
000000
000000
E0003C
E0003C
E0003C
E0703C
E0703C
E0703C
E0703C
E0703C
E0703C
E0703C
E0703C
E0703C
E38F3C
E38F3C
E38F3C
E38F3C
E38F3C
E38F3C
1C01E0
1C01E0
1C01E0
ENDCHAR
STARTCHAR 0175
ENCODING 373
SWIDTH 780 0
DWIDTH 26 0
BBX 22 21 2 0
BITMAP
003000
003000
00D800
00D800
000000
000000
E0703C
E0703C
E0703C
E0703C
E0703C
E0703C
E0703C
E0703C
E0703C
E0703C
E0703C
E0703C
FF8FE0
FF8FE0
FF8FE0
ENDCHAR
STARTCHAR 0176
ENCODING 374
SWIDTH 600 0
DWIDTH 20 0
BBX 16 27 2 0
BITMAP
0180
0180
06C0
06C0
0000
0000
E00F
E00F
E00F
E00F
E00F
E00F
1C70
1C70
1C70
0380
0380
0380
0380
0380
0380
0380
0380
0380
0380
0380
0380
ENDCHAR
STARTCHAR 0177
ENCODING 375
SWIDTH 600 0
DWIDTH 20 0
BBX 16 27 2 -6
BITMAP
0180
0180
06C0
06C0
0000
0000
E00F
E00F
E00F
E00F
E00F
E00F
E00F
E00F
E00F
1FFF
1FFF
1FFF
000F
000F
000F
E00F
E00F
E00F
1FF0
1FF0
1FF0
ENDCHAR
STARTCHAR 0178
ENCODING 376
SWIDTH 600 0
DWIDTH 20 0
BBX 16 27 2 0
BITMAP
1C38
1C38
1C38
1C38
0000
0000
E00F
E00F
E00F
E00F
E00F
E00F
1C70
1C70
1C70
0380
0380
0380
0380
0380
0380
0380
0380
0380
0380
0380
0380
ENDCHAR
STARTCHAR 0179
ENCODING 377
SWIDTH 600 0
DWIDTH 20 0
BBX 16 28 2 0
BITMAP
00C0
03C0
0300
0600
0600
0000
0000
FFF0
FFF0
FFF0
E00F
E00F
E00F
000F
000F
000F
1FF0
1FF0
1FF0
E000
E000
E000
E00F
E00F
E00F
1FFF
1FFF
1FFF
ENDCHAR
STARTCHAR 017A
ENCODING 378
SWIDTH 600 0
DWIDTH 20 0
BBX 16 22 2 0
BITMAP
00C0
03C0
0300
0600
0600
0000
0000
FFFF
FFFF
FFFF
0070
0070
0070
0380
0380
0380
1C00
1C00
1C00
FFFF
FFFF
FFFF
ENDCHAR
STARTCHAR 017B
ENCODING 379
SWIDTH 600 0
DWIDTH 20 0
BBX 16 27 2 0
BITMAP
0380
0380
0380
0380
0000
0000
FFF0
FFF0
FFF0
E00F
E00F
E00F
000F
000F
000F
1FF0
1FF0
1FF0
E000
E000
E000
E00F
E00F
E00F
1FFF
1FFF
1FFF
ENDCHAR
STARTCHAR 017C
ENCODING 380
SWIDTH 600 0
DWIDTH 20 0
BBX 16 21 2 0
BITMAP
0380
0380
0380
0380
0000
0000
FFFF
FFFF
FFFF
0070
0070
0070
0380
0380
0380
1C00
1C00
1C00
FFFF
FFFF
FFFF
ENDCHAR
STARTCHAR 017D
ENCODING 381
SWIDTH 600 0
DWIDTH 20 0
BBX 16 27 2 0
BITMAP
06C0
06C0
0180
0180
0000
0000
FFF0
FFF0
FFF0
E00F
E00F
E00F
000F
000F
000F
1FF0
1FF0
1FF0
E000
E000
E000
E00F
E00F
E00F
1FFF
1FFF
1FFF
ENDCHAR
STARTCHAR 017E
ENCODING 382
SWIDTH 600 0
DWIDTH 20 0
BBX 16 21 2 0
BITMAP
06C0
06C0
0180
0180
0000
0000
FFFF
FFFF
FFFF
0070
0070
0070
0380
0380
0380
1C00
1C00
1C00
FFFF
FFFF
FFFF
ENDCHAR
STARTCHAR 0192
ENCODING 402
SWIDTH 600 0
DWIDTH 20 0
BBX 19 24 -1 -3
BITMAP
03FE00
03FE00
03FE00
1C01E0
1C01E0
1C01E0
1C0000
1C0000
1C0000
1FF000
1FF000
1FF000
1C0000
1C0000
1C0000
1C0000
1C0000
1C0000
1C0000
1C0000
1C0000
FC0000
FC0000
FC0000
ENDCHAR
STARTCHAR 01FC
ENCODING 508
SWIDTH 960 0
DWIDTH 32 0
BBX 28 28 2 0
BITMAP
00018000
00078000
00060000
000C0000
000C0000
00000000
00000000
0381FF80
0381FF80
0381FF80
1C7F00F0
1C7F00F0
1C7F00F0
E00F0000
E00F0000
E00F0000
E00FFC00
E00FFC00
E00FFC00
FFFF0000
FFFF0000
FFFF0000
E00F00F0
E00F00F0
E00F00F0
E00FFF80
E00FFF80
E00FFF80
ENDCHAR
STARTCHAR 01FD
ENCODING 509
SWIDTH 1140 0
DWIDTH 38 0
BBX 34 22 2 0
BITMAP
0000180000
0000780000
0000600000
0000C00000
0000C00000
0000000000
0000000000
1FF007FE00
1FF007FE00
1FF007FE00
E00F3C03C0
E00F3C03C0
E00F3C03C0
E00F3FF000
E00F3FF000
E00F3FF000
E00F3C03C0
E00F3C03C0
E00F3C03C0
1FF1E7FE00
1FF1E7FE00
1FF1E7FE00
ENDCHAR
STARTCHAR 01FE
ENCODING 510
SWIDTH 630 0
DWIDTH 21 0
BBX 17 32 2 -2
BITMAP
00C000
01C000
018000
060000
060000
000000
000000
000080
000700
0FFF00
0FFE00
0FFE00
701F00
703F00
703F00
707700
70F700
70E700
71E700
71C700
73C700
738700
778700
770700
7E0700
7E0700
7C0700
3FF800
3FF800
7FF800
700000
F00000
ENDCHAR
STARTCHAR 01FF
ENCODING 511
SWIDTH 600 0
DWIDTH 20 0
BBX 17 25 1 -3
BITMAP
006000
01E000
018000
030000
030000
000380
000700
0FFF00
0FFE00
0FFC00
703F80
707F80
707780
70E780
71E780
73C780
738780
770780
7F0780
0FF800
1FF800
3FF800
780000
700000
E00000
ENDCHAR
STARTCHAR 0218
ENCODING 536
SWIDTH 600 0
DWIDTH 20 0
BBX 16 29 2 -8
BITMAP
1FF0
1FF0
1FF0
E00F
E00F
E00F
E000
E000
E000
1FF0
1FF0
1FF0
000F
000F
000F
E00F
E00F
E00F
1FF0
1FF0
1FF0
0000
0000
0380
0380
0380
0060
01E0
0180
ENDCHAR
STARTCHAR 0219
ENCODING 537
SWIDTH 600 0
DWIDTH 20 0
BBX 16 23 2 -8
BITMAP
1FFF
1FFF
1FFF
E000
E000
E000
1FF0
1FF0
1FF0
000F
000F
000F
FFF0
FFF0
FFF0
0000
0000
0380
0380
0380
0060
01E0
0180
ENDCHAR
STARTCHAR 021A
ENCODING 538
SWIDTH 600 0
DWIDTH 20 0
BBX 16 29 2 -8
BITMAP
1FF0
1FF0
1FF0
E38F
E38F
E38F
0380
0380
0380
0380
0380
0380
0380
0380
0380
0380
0380
0380
0380
0380
0380
0000
0000
0380
0380
0380
0060
01E0
0180
ENDCHAR
STARTCHAR 021B
ENCODING 539
SWIDTH 690 0
DWIDTH 23 0
BBX 19 29 2 -8
BITMAP
1C0000
1C0000
1C0000
1C0000
1C0000
1C0000
FFFF00
FFFF00
FFFF00
1C0000
1C0000
1C0000
1C0000
1C0000
1C0000
1C01E0
1C01E0
1C01E0
03FF00
03FF00
03FF00
000000
000000
00F000
00F000
00F000
001800
003800
003000
ENDCHAR
STARTCHAR 0237
ENCODING 567
SWIDTH 510 0
DWIDTH 17 0
BBX 12 15 2 0
BITMAP
0070
0070
0070
0070
0070
0070
0070
0070
0070
E070
E070
E070
1F80
1F80
1F80
ENDCHAR
STARTCHAR 02C6
ENCODING 710
SWIDTH 300 0
DWIDTH 10 0
BBX 4 4 3 17
BITMAP
60
60
90
90
ENDCHAR
STARTCHAR 02C7
ENCODING 711
SWIDTH 300 0
DWIDTH 10 0
BBX 4 4 3 17
BITMAP
90
90
60
60
ENDCHAR
STARTCHAR 02D8
ENCODING 728
SWIDTH 300 0
DWIDTH 10 0
BBX 8 3 1 18
BITMAP
C3
FF
FF
ENDCHAR
STARTCHAR 02D9
ENCODING 729
SWIDTH 300 0
DWIDTH 10 0
BBX 3 3 4 18
BITMAP
E0
E0
E0
ENDCHAR
STARTCHAR 02DA
ENCODING 730
SWIDTH 300 0
DWIDTH 10 0
BBX 4 3 3 18
BITMAP
F0
B0
F0
ENDCHAR
STARTCHAR 02DB
ENCODING 731
SWIDTH 300 0
DWIDTH 10 0
BBX 8 8 1 -7
BITMAP
18
18
18
20
E3
C3
3C
3C
ENDCHAR
STARTCHAR 02DC
ENCODING 732
SWIDTH 300 0
DWIDTH 10 0
BBX 8 4 1 17
BITMAP
FB
FB
DF
DF
ENDCHAR
STARTCHAR 02DD
ENCODING 733
SWIDTH 300 0
DWIDTH 10 0
BBX 9 5 0 18
BITMAP
CC00
CC00
3300
3B80
1980
ENDCHAR
STARTCHAR 0300
ENCODING 768
SWIDTH 0 0
DWIDTH 0 0
BBX 5 5 2 17
BITMAP
C0
E0
60
18
18
ENDCHAR
STARTCHAR 0301
ENCODING 769
SWIDTH 0 0
DWIDTH 0 0
BBX 4 5 3 17
BITMAP
10
70
60
80
80
ENDCHAR
STARTCHAR 0302
ENCODING 770
SWIDTH 0 0
DWIDTH 0 0
BBX 4 4 3 17
BITMAP
60
60
90
90
ENDCHAR
STARTCHAR 0303
ENCODING 771
SWIDTH 0 0
DWIDTH 0 0
BBX 8 4 1 17
BITMAP
FB
FB
DF
DF
ENDCHAR
STARTCHAR 0304
ENCODING 772
SWIDTH 0 0
DWIDTH 0 0
BBX 10 3 0 17
BITMAP
FFC0
FFC0
FFC0
ENDCHAR
STARTCHAR 0306
ENCODING 774
SWIDTH 0 0
DWIDTH 0 0
BBX 8 4 1 17
BITMAP
C3
C3
FF
FF
ENDCHAR
STARTCHAR 0307
ENCODING 775
SWIDTH 0 0
DWIDTH 0 0
BBX 4 4 3 17
BITMAP
F0
F0
F0
F0
ENDCHAR
STARTCHAR 0308
ENCODING 776
SWIDTH 0 0
DWIDTH 0 0
BBX 10 4 0 17
BITMAP
E1C0
E1C0
E1C0
E1C0
ENDCHAR
STARTCHAR 030A
ENCODING 778
SWIDTH 0 0
DWIDTH 0 0
BBX 4 4 3 17
BITMAP
F0
90
F0
F0
ENDCHAR
STARTCHAR 030B
ENCODING 779
SWIDTH 0 0
DWIDTH 0 0
BBX 8 5 1 17
BITMAP
88
EE
66
11
11
ENDCHAR
STARTCHAR 030C
ENCODING 780
SWIDTH 0 0
DWIDTH 0 0
BBX 4 4 3 17
BITMAP
90
90
60
60
ENDCHAR
STARTCHAR 0312
ENCODING 786
SWIDTH 0 0
DWIDTH 0 0
BBX 4 7 3 17
BITMAP
60
60
80
F0
70
70
70
ENDCHAR
STARTCHAR 0326
ENCODING 806
SWIDTH 0 0
DWIDTH 0 0
BBX 5 6 3 -8
BITMAP
E0
E0
E0
18
78
60
ENDCHAR
STARTCHAR 0327
ENCODING 807
SWIDTH 0 0
DWIDTH 0 0
BBX 8 8 1 -7
BITMAP
18
18
18
04
C7
C3
3C
3C
ENDCHAR
STARTCHAR 0328
ENCODING 808
SWIDTH 0 0
DWIDTH 0 0
BBX 8 8 1 -7
BITMAP
18
18
18
20
E3
C3
3C
3C
ENDCHAR
STARTCHAR 0386
ENCODING 902
SWIDTH 600 0
DWIDTH 20 0
BBX 16 28 2 0
BITMAP
0070
00F0
01E0
01C0
0180
0000
0000
0380
0380
0380
1C70
1C70
1C70
E00F
E00F
E00F
E00F
E00F
E00F
FFFF
FFFF
FFFF
E00F
E00F
E00F
E00F
E00F
E00F
ENDCHAR
STARTCHAR 0388
ENCODING 904
SWIDTH 600 0
DWIDTH 20 0
BBX 16 28 2 0
BITMAP
0070
00F0
01E0
01C0
0180
0000
0000
1FF0
1FF0
1FF0
E00F
E00F
E00F
E000
E000
E000
FF80
FF80
FF80
E000
E000
E000
E00F
E00F
E00F
1FF0
1FF0
1FF0
ENDCHAR
STARTCHAR 0389
ENCODING 905
SWIDTH 600 0
DWIDTH 20 0
BBX 16 26 2 0
BITMAP
0180
0180
0180
0000
0000
E00F
E00F
E00F
E00F
E00F
E00F
E38F
E38F
E38F
FFFF
FFFF
FFFF
E00F
E00F
E00F
E00F
E00F
E00F
E00F
E00F
E00F
ENDCHAR
STARTCHAR 038A
ENCODING 906
SWIDTH 390 0
DWIDTH 13 0
BBX 9 26 2 0
BITMAP
0C00
0C00
0C00
0000
0000
FF80
FF80
FF80
1C00
1C00
1C00
1C00
1C00
1C00
1C00
1C00
1C00
1C00
1C00
1C00
1C00
1C00
1C00
FF80
FF80
FF80
ENDCHAR
STARTCHAR 038C
ENCODING 908
SWIDTH 600 0
DWIDTH 20 0
BBX 16 26 2 0
BITMAP
0180
0180
0180
0000
0000
1FF0
1FF0
1FF0
E00F
E00F
E00F
E00F
E00F
E00F
E00F
E00F
E00F
E00F
E00F
E00F
E00F
E00F
E00F
1FF0
1FF0
1FF0
ENDCHAR
STARTCHAR 038E
ENCODING 910
SWIDTH 600 0
DWIDTH 20 0
BBX 16 26 2 0
BITMAP
0180
0180
0180
0000
0000
E00F
E00F
E00F
E00F
E00F
E00F
1C70
1C70
1C70
0380
0380
0380
0380
0380
0380
0380
0380
0380
0380
0380
0380
ENDCHAR
STARTCHAR 038F
ENCODING 911
SWIDTH 600 0
DWIDTH 20 0
BBX 19 28 0 0
BITMAP
001C00
003C00
007800
007000
006000
000000
000000
07FC00
07FC00
07FC00
3803C0
3803C0
3803C0
3803C0
3803C0
3803C0
3803C0
3803C0
3803C0
3803C0
3803C0
3803C0
3803C0
3803C0
3803C0
F803E0
F803E0
F803E0
ENDCHAR
STARTCHAR 0391
ENCODING 913
SWIDTH 600 0
DWIDTH 20 0
BBX 16 21 2 0
BITMAP
0380
0380
0380
1C70
1C70
1C70
E00F
E00F
E00F
E00F
E00F
E00F
FFFF
FFFF
FFFF
E00F
E00F
E00F
E00F
E00F
E00F
ENDCHAR
STARTCHAR 0392
ENCODING 914
SWIDTH 600 0
DWIDTH 20 0
BBX 16 21 2 0
BITMAP
1FF0
1FF0
1FF0
E00F
E00F
E00F
E00F
E00F
E00F
E3F0
E3F0
E3F0
E00F
E00F
E00F
E00F
E00F
E00F
1FF0
1FF0
1FF0
ENDCHAR
STARTCHAR 0393
ENCODING 915
SWIDTH 480 0
DWIDTH 16 0
BBX 12 21 2 0
BITMAP
FFF0
FFF0
FFF0
E000
E000
E000
E000
E000
E000
E000
E000
E000
E000
E000
E000
E000
E000
E000
E000
E000
E000
ENDCHAR
STARTCHAR 0395
ENCODING 917
SWIDTH 600 0
DWIDTH 20 0
BBX 16 21 2 0
BITMAP
1FF0
1FF0
1FF0
E00F
E00F
E00F
E000
E000
E000
FF80
FF80
FF80
E000
E000
E000
E00F
E00F
E00F
1FF0
1FF0
1FF0
ENDCHAR
STARTCHAR 0396
ENCODING 918
SWIDTH 600 0
DWIDTH 20 0
BBX 16 21 2 0
BITMAP
FFF0
FFF0
FFF0
E00F
E00F
E00F
000F
000F
000F
1FF0
1FF0
1FF0
E000
E000
E000
E00F
E00F
E00F
1FFF
1FFF
1FFF
ENDCHAR
STARTCHAR 0397
ENCODING 919
SWIDTH 600 0
DWIDTH 20 0
BBX 16 21 2 0
BITMAP
E00F
E00F
E00F
E00F
E00F
E00F
E38F
E38F
E38F
FFFF
FFFF
FFFF
E00F
E00F
E00F
E00F
E00F
E00F
E00F
E00F
E00F
ENDCHAR
STARTCHAR 0398
ENCODING 920
SWIDTH 600 0
DWIDTH 20 0
BBX 16 21 2 0
BITMAP
1FF0
1FF0
1FF0
E00F
E00F
E00F
E00F
E00F
E00F
E00F
E7CF
E7CF
E00F
E00F
E00F
E00F
E00F
E00F
1FF0
1FF0
1FF0
ENDCHAR
STARTCHAR 0399
ENCODING 921
SWIDTH 390 0
DWIDTH 13 0
BBX 9 21 2 0
BITMAP
FF80
FF80
FF80
1C00
1C00
1C00
1C00
1C00
1C00
1C00
1C00
1C00
1C00
1C00
1C00
1C00
1C00
1C00
FF80
FF80
FF80
ENDCHAR
STARTCHAR 039A
ENCODING 922
SWIDTH 600 0
DWIDTH 20 0
BBX 16 21 2 0
BITMAP
1C0F
1C0F
1C0F
E070
E070
E070
E380
E380
E380
FC00
FC00
FC00
E380
E380
E380
E070
E070
E070
E00F
E00F
E00F
ENDCHAR
STARTCHAR 039B
ENCODING 923
SWIDTH 600 0
DWIDTH 20 0
BBX 16 21 2 0
BITMAP
0380
0380
0380
1C70
1C70
1C70
1C70
1C70
1C70
E00F
E00F
E00F
E00F
E00F
E00F
E00F
E00F
E00F
E00F
E00F
E00F
ENDCHAR
STARTCHAR 039C
ENCODING 924
SWIDTH 780 0
DWIDTH 26 0
BBX 22 21 2 0
BITMAP
1C01E0
1C01E0
1C01E0
E38F3C
E38F3C
E38F3C
E38F3C
E38F3C
E38F3C
E0703C
E0703C
E0703C
E0703C
E0703C
E0703C
E0703C
E0703C
E0703C
E0003C
E0003C
E0003C
ENDCHAR
STARTCHAR 039D
ENCODING 925
SWIDTH 600 0
DWIDTH 20 0
BBX 16 21 2 0
BITMAP
E00F
E00F
E00F
FC0F
FC0F
FC0F
E38F
E38F
E38F
E38F
E38F
E38F
E38F
E38F
E38F
E07F
E07F
E07F
E00F
E00F
E00F
ENDCHAR
STARTCHAR 039E
ENCODING 926
SWIDTH 390 0
DWIDTH 13 0
BBX 9 21 2 0
BITMAP
FF80
FF80
FF80
0000
0000
0000
0000
0000
0000
FF80
FF80
FF80
0000
0000
0000
0000
0000
0000
FF80
FF80
FF80
ENDCHAR
STARTCHAR 039F
ENCODING 927
SWIDTH 600 0
DWIDTH 20 0
BBX 16 21 2 0
BITMAP
1FF0
1FF0
1FF0
E00F
E00F
E00F
E00F
E00F
E00F
E00F
E00F
E00F
E00F
E00F
E00F
E00F
E00F
E00F
1FF0
1FF0
1FF0
ENDCHAR
STARTCHAR 03A0
ENCODING 928
SWIDTH 600 0
DWIDTH 20 0
BBX 16 21 2 0
BITMAP
FFFF
FFFF
FFFF
E00F
E00F
E00F
E00F
E00F
E00F
E00F
E00F
E00F
E00F
E00F
E00F
E00F
E00F
E00F
E00F
E00F
E00F
ENDCHAR
STARTCHAR 03A1
ENCODING 929
SWIDTH 600 0
DWIDTH 20 0
BBX 16 21 2 0
BITMAP
1FF0
1FF0
1FF0
E00F
E00F
E00F
E00F
E00F
E00F
E00F
E00F
E00F
FFF0
FFF0
FFF0
E000
E000
E000
E000
E000
E000
ENDCHAR
STARTCHAR 03A3
ENCODING 931
SWIDTH 780 0
DWIDTH 26 0
BBX 22 21 2 0
BITMAP
1FFFFC
1FFFFC
1FFFFC
E00000
E00000
E00000
1F8000
1F8000
1F8000
007FE0
007FE0
007FE0
1F8000
1F8000
1F8000
E00000
E00000
E00000
1FFFFC
1FFFFC
1FFFFC
ENDCHAR
STARTCHAR 03A4
ENCODING 932
SWIDTH 600 0
DWIDTH 20 0
BBX 16 21 2 0
BITMAP
1FF0
1FF0
1FF0
E38F
E38F
E38F
0380
0380
0380
0380
0380
0380
0380
0380
0380
0380
0380
0380
0380
0380
0380
ENDCHAR
STARTCHAR 03A5
ENCODING 933
SWIDTH 600 0
DWIDTH 20 0
BBX 16 21 2 0
BITMAP
E00F
E00F
E00F
E00F
E00F
E00F
1C70
1C70
1C70
0380
0380
0380
0380
0380
0380
0380
0380
0380
0380
0380
0380
ENDCHAR
STARTCHAR 03A6
ENCODING 934
SWIDTH 600 0
DWIDTH 20 0
BBX 16 21 2 0
BITMAP
0380
0380
0380
1FF0
1C70
1C70
FFFF
E38F
E38F
E38F
E38F
E38F
E38F
E38F
E38F
FFFF
1C70
1C70
1FF0
0380
0380
ENDCHAR
STARTCHAR 03A7
ENCODING 935
SWIDTH 600 0
DWIDTH 20 0
BBX 16 21 2 0
BITMAP
E00F
E00F
E00F
1C70
1C70
1C70
1C70
1C70
1C70
0380
0380
0380
1C70
1C70
1C70
1C70
1C70
1C70
E00F
E00F
E00F
ENDCHAR
STARTCHAR 03A8
ENCODING 936
SWIDTH 600 0
DWIDTH 20 0
BBX 16 21 2 0
BITMAP
E38F
E38F
E38F
E38F
E38F
E38F
E38F
E38F
E38F
E38F
E38F
1FF0
1FF0
1FF0
0380
0380
0380
0380
0380
0380
0380
ENDCHAR
STARTCHAR 03AA
ENCODING 938
SWIDTH 390 0
DWIDTH 13 0
BBX 10 27 2 0
BITMAP
E1C0
E1C0
E1C0
E1C0
0000
0000
FF80
FF80
FF80
1C00
1C00
1C00
1C00
1C00
1C00
1C00
1C00
1C00
1C00
1C00
1C00
1C00
1C00
1C00
FF80
FF80
FF80
ENDCHAR
STARTCHAR 03AB
ENCODING 939
SWIDTH 600 0
DWIDTH 20 0
BBX 16 26 2 0
BITMAP
0830
0830
0830
0000
0000
E00F
E00F
E00F
E00F
E00F
E00F
1C70
1C70
1C70
0380
0380
0380
0380
0380
0380
0380
0380
0380
0380
0380
0380
ENDCHAR
STARTCHAR 03AC
ENCODING 940
SWIDTH 600 0
DWIDTH 20 0
BBX 16 24 2 -3
BITMAP
0180
0180
0180
0000
0000
0000
1FF0
1FF0
1FF0
E00F
E00F
E00F
E00F
E00F
E00F
E00F
E00F
E00F
1FFF
1FFF
1FFF
000F
000F
000F
ENDCHAR
STARTCHAR 03AD
ENCODING 941
SWIDTH 600 0
DWIDTH 20 0
BBX 16 21 2 0
BITMAP
0180
0180
0180
0000
0000
0000
1FF0
1FF0
1FF0
E00F
E00F
E00F
FF80
FF80
FF80
E00F
E00F
E00F
1FF0
1FF0
1FF0
ENDCHAR
STARTCHAR 03AE
ENCODING 942
SWIDTH 600 0
DWIDTH 20 0
BBX 16 27 2 -6
BITMAP
0180
0180
0180
0000
0000
0000
FFF0
FFF0
FFF0
E00F
E00F
E00F
E00F
E00F
E00F
E00F
E00F
E00F
E00F
E00F
E00F
000F
000F
000F
000F
000F
000F
ENDCHAR
STARTCHAR 03AF
ENCODING 943
SWIDTH 390 0
DWIDTH 13 0
BBX 9 26 2 0
BITMAP
0C00
0C00
0C00
0000
0000
FF80
FF80
FF80
1C00
1C00
1C00
1C00
1C00
1C00
1C00
1C00
1C00
1C00
1C00
1C00
1C00
1C00
1C00
FF80
FF80
FF80
ENDCHAR
STARTCHAR 03B1
ENCODING 945
SWIDTH 600 0
DWIDTH 20 0
BBX 16 18 2 -3
BITMAP
1FF0
1FF0
1FF0
E00F
E00F
E00F
E00F
E00F
E00F
E00F
E00F
E00F
1FFF
1FFF
1FFF
000F
000F
000F
ENDCHAR
STARTCHAR 03B2
ENCODING 946
SWIDTH 600 0
DWIDTH 20 0
BBX 16 27 2 -6
BITMAP
FFF0
FFF0
FFF0
E00F
E00F
E00F
E00F
E00F
E00F
E3F0
E3F0
E3F0
E00F
E00F
E00F
E00F
E00F
E00F
E3F0
E3F0
E3F0
E000
E000
E000
E000
E000
E000
ENDCHAR
STARTCHAR 03B3
ENCODING 947
SWIDTH 570 0
DWIDTH 19 0
BBX 15 15 2 0
BITMAP
E00E
E00E
1C70
1C70
1C70
1C70
1C70
1C70
0380
0380
0380
0380
0380
0380
0380
ENDCHAR
STARTCHAR 03B4
ENCODING 948
SWIDTH 600 0
DWIDTH 20 0
BBX 16 21 2 0
BITMAP
0070
0070
0070
0380
0380
0380
1FF0
1FF0
1FF0
E00F
E00F
E00F
E00F
E00F
E00F
E00F
E00F
E00F
1FF0
1FF0
1FF0
ENDCHAR
STARTCHAR 03B5
ENCODING 949
SWIDTH 600 0
DWIDTH 20 0
BBX 16 15 2 0
BITMAP
1FF0
1FF0
1FF0
E00F
E00F
E00F
FF80
FF80
FF80
E00F
E00F
E00F
1FF0
1FF0
1FF0
ENDCHAR
STARTCHAR 03B6
ENCODING 950
SWIDTH 600 0
DWIDTH 20 0
BBX 16 27 2 -6
BITMAP
1FF0
1FF0
1FF0
000F
000F
000F
000F
000F
000F
1FF0
1FF0
1FF0
E000
E000
E000
E00F
E00F
E00F
1FFF
1FFF
1FFF
000F
000F
000F
007F
007F
007F
ENDCHAR
STARTCHAR 03B7
ENCODING 951
SWIDTH 600 0
DWIDTH 20 0
BBX 16 21 2 -6
BITMAP
FFF0
FFF0
FFF0
E00F
E00F
E00F
E00F
E00F
E00F
E00F
E00F
E00F
E00F
E00F
E00F
000F
000F
000F
000F
000F
000F
ENDCHAR
STARTCHAR 03B8
ENCODING 952
SWIDTH 600 0
DWIDTH 20 0
BBX 16 15 2 0
BITMAP
1FF0
1FF0
1FF0
E00F
E00F
E00F
E00F
E7CF
E7CF
E00F
E00F
E00F
1FF0
1FF0
1FF0
ENDCHAR
STARTCHAR 03B9
ENCODING 953
SWIDTH 210 0
DWIDTH 7 0
BBX 3 21 2 0
BITMAP
E0
E0
E0
00
00
00
E0
E0
E0
E0
E0
E0
E0
E0
E0
E0
E0
E0
E0
E0
E0
ENDCHAR
STARTCHAR 03BA
ENCODING 954
SWIDTH 600 0
DWIDTH 20 0
BBX 16 21 2 0
BITMAP
E000
E000
E000
E000
E000
E000
E00F
E00F
E00F
E3F0
E3F0
E3F0
FC00
FC00
FC00
E3F0
E3F0
E3F0
E00F
E00F
E00F
ENDCHAR
STARTCHAR 03BB
ENCODING 955
SWIDTH 600 0
DWIDTH 20 0
BBX 16 21 2 0
BITMAP
0380
0380
0380
0380
0380
0380
0380
0380
0380
0380
0380
0380
1C70
1C70
1C70
E00F
E00F
E00F
E00F
E00F
E00F
ENDCHAR
STARTCHAR 03BC
ENCODING 956
SWIDTH 780 0
DWIDTH 26 0
BBX 22 21 2 0
BITMAP
1C01E0
1C01E0
1C01E0
E38F3C
E38F3C
E38F3C
E38F3C
E38F3C
E38F3C
E0703C
E0703C
E0703C
E0703C
E0703C
E0703C
E0703C
E0703C
E0703C
E0003C
E0003C
E0003C
ENDCHAR
STARTCHAR 03BD
ENCODING 957
SWIDTH 570 0
DWIDTH 19 0
BBX 15 15 2 0
BITMAP
E00E
E00E
E00E
E00E
E00E
E00E
1C70
1C70
1C70
1C70
1C70
1C70
0380
0380
0380
ENDCHAR
STARTCHAR 03BE
ENCODING 958
SWIDTH 600 0
DWIDTH 20 0
BBX 18 27 0 -6
BITMAP
FFFC00
FFFC00
FFFC00
3803C0
3803C0
3803C0
380000
380000
380000
07FC00
07FC00
07FC00
380000
380000
380000
3803C0
3803C0
3803C0
07FFC0
07FFC0
07FFC0
0003C0
0003C0
0003C0
00FFC0
00FFC0
00FFC0
ENDCHAR
STARTCHAR 03BF
ENCODING 959
SWIDTH 600 0
DWIDTH 20 0
BBX 16 15 2 0
BITMAP
1FF0
1FF0
1FF0
E00F
E00F
E00F
E00F
E00F
E00F
E00F
E00F
E00F
1FF0
1FF0
1FF0
ENDCHAR
STARTCHAR 03C0
ENCODING 960
SWIDTH 960 0
DWIDTH 32 0
BBX 28 15 2 0
BITMAP
1FF1FF80
1FF1FF80
1FF1FF80
E38F3CF0
E38F3CF0
E38F3CF0
03803C00
03803C00
03803C00
03803C00
03803C00
03803C00
03803C00
03803C00
03803C00
ENDCHAR
STARTCHAR 03C1
ENCODING 961
SWIDTH 600 0
DWIDTH 20 0
BBX 16 21 2 -6
BITMAP
1FF0
1FF0
1FF0
E00F
E00F
E00F
E00F
E00F
E00F
E00F
E00F
E00F
FFF0
FFF0
FFF0
E000
E000
E000
E000
E000
E000
ENDCHAR
STARTCHAR 03C3
ENCODING 963
SWIDTH 600 0
DWIDTH 20 0
BBX 17 15 2 0
BITMAP
1FFF80
1FFF80
1FFF80
E00F00
E00F00
E00F00
E00F00
E00F00
E00F00
E00F00
E00F00
E00F00
1FF000
1FF000
1FF000
ENDCHAR
STARTCHAR 03C4
ENCODING 964
SWIDTH 600 0
DWIDTH 20 0
BBX 16 15 2 0
BITMAP
1FF0
1FF0
1FF0
E38F
E38F
E38F
0380
0380
0380
0380
0380
0380
0380
0380
0380
ENDCHAR
STARTCHAR 03C5
ENCODING 965
SWIDTH 600 0
DWIDTH 20 0
BBX 16 22 2 0
BITMAP
0070
00F0
01E0
01C0
0180
0000
0000
E00F
E00F
E00F
E00F
E00F
E00F
E00F
E00F
E00F
E00F
E00F
E00F
1FF0
1FF0
1FF0
ENDCHAR
STARTCHAR 03C6
ENCODING 966
SWIDTH 600 0
DWIDTH 20 0
BBX 16 21 2 0
BITMAP
0380
0380
0380
1FF0
1FF0
1FF0
E38F
E38F
E38F
E38F
E38F
E38F
E38F
E38F
E38F
1FF0
1FF0
1FF0
0380
0380
0380
ENDCHAR
STARTCHAR 03C7
ENCODING 967
SWIDTH 600 0
DWIDTH 20 0
BBX 16 15 2 0
BITMAP
E00F
E00F
E00F
1C70
1C70
1C70
0380
0380
0380
1C70
1C70
1C70
E00F
E00F
E00F
ENDCHAR
STARTCHAR 03C8
ENCODING 968
SWIDTH 600 0
DWIDTH 20 0
BBX 16 21 2 0
BITMAP
0380
0380
0380
E38F
E38F
E38F
E38F
E38F
E38F
E38F
E38F
E38F
E38F
E38F
E38F
1FF0
1FF0
1FF0
0380
0380
0380
ENDCHAR
STARTCHAR 03C9
ENCODING 969
SWIDTH 780 0
DWIDTH 26 0
BBX 22 15 2 0
BITMAP
E0703C
E0703C
E0703C
E0703C
E0703C
E0703C
E0703C
E0703C
E0703C
E0703C
E0703C
E0703C
FF8FE0
FF8FE0
FF8FE0
ENDCHAR
STARTCHAR 03CA
ENCODING 970
SWIDTH 390 0
DWIDTH 13 0
BBX 10 27 2 0
BITMAP
E1C0
E1C0
E1C0
E1C0
0000
0000
FF80
FF80
FF80
1C00
1C00
1C00
1C00
1C00
1C00
1C00
1C00
1C00
1C00
1C00
1C00
1C00
1C00
1C00
FF80
FF80
FF80
ENDCHAR
STARTCHAR 03CB
ENCODING 971
SWIDTH 600 0
DWIDTH 20 0
BBX 16 26 2 0
BITMAP
0830
0830
0830
0000
0000
E00F
E00F
E00F
E00F
E00F
E00F
1C70
1C70
1C70
0380
0380
0380
0380
0380
0380
0380
0380
0380
0380
0380
0380
ENDCHAR
STARTCHAR 03CC
ENCODING 972
SWIDTH 600 0
DWIDTH 20 0
BBX 16 21 2 0
BITMAP
0180
0180
0180
0000
0000
0000
1FF0
1FF0
1FF0
E00F
E00F
E00F
E00F
E00F
E00F
E00F
E00F
E00F
1FF0
1FF0
1FF0
ENDCHAR
STARTCHAR 03CD
ENCODING 973
SWIDTH 600 0
DWIDTH 20 0
BBX 16 21 2 0
BITMAP
0180
0180
0180
0000
0000
0000
E00F
E00F
E00F
E00F
E00F
E00F
E00F
E00F
E00F
E00F
E00F
E00F
1FF0
1FF0
1FF0
ENDCHAR
STARTCHAR 03CE
ENCODING 974
SWIDTH 780 0
DWIDTH 26 0
BBX 22 21 2 0
BITMAP
003000
003000
003000
000000
000000
000000
E0703C
E0703C
E0703C
E0703C
E0703C
E0703C
E0703C
E0703C
E0703C
E0703C
E0703C
E0703C
FF8FE0
FF8FE0
FF8FE0
ENDCHAR
STARTCHAR 0401
ENCODING 1025
SWIDTH 600 0
DWIDTH 20 0
BBX 16 26 2 0
BITMAP
0830
0830
0830
0000
0000
1FF0
1FF0
1FF0
E00F
E00F
E00F
E000
E000
E000
FF80
FF80
FF80
E000
E000
E000
E00F
E00F
E00F
1FF0
1FF0
1FF0
ENDCHAR
STARTCHAR 0402
ENCODING 1026
SWIDTH 600 0
DWIDTH 20 0
BBX 19 21 -1 0
BITMAP
FFC000
FFC000
FFC000
1C0000
1C0000
1C0000
1FFE00
1FFE00
1FFE00
1C01E0
1C01E0
1C01E0
1C01E0
1C01E0
1C01E0
1C01E0
1C01E0
1C01E0
03FE00
03FE00
03FE00
ENDCHAR
STARTCHAR 0403
ENCODING 1027
SWIDTH 480 0
DWIDTH 16 0
BBX 12 21 2 0
BITMAP
FFF0
FFF0
FFF0
E000
E000
E000
E000
E000
E000
E000
E000
E000
E000
E000
E000
E000
E000
E000
E000
E000
E000
ENDCHAR
STARTCHAR 0404
ENCODING 1028
SWIDTH 600 0
DWIDTH 20 0
BBX 16 21 2 0
BITMAP
1FF0
1FF0
1FF0
E00F
E00F
E00F
E000
E000
E000
1FF0
1FF0
1FF0
E000
E000
E000
E00F
E00F
E00F
1FF0
1FF0
1FF0
ENDCHAR
STARTCHAR 0405
ENCODING 1029
SWIDTH 600 0
DWIDTH 20 0
BBX 16 15 2 0
BITMAP
1FFF
1FFF
1FFF
E000
E000
E000
1FF0
1FF0
1FF0
000F
000F
000F
FFF0
FFF0
FFF0
ENDCHAR
STARTCHAR 0407
ENCODING 1031
SWIDTH 270 0
DWIDTH 9 0
BBX 11 21 -1 0
BITMAP
F0E0
F0E0
F0E0
0000
0000
0000
0E00
0E00
0E00
0E00
0E00
0E00
0E00
0E00
0E00
0E00
0E00
0E00
0E00
0E00
0E00
ENDCHAR
STARTCHAR 0408
ENCODING 1032
SWIDTH 600 0
DWIDTH 20 0
BBX 16 21 2 0
BITMAP
1FF0
1FF0
1FF0
000F
000F
000F
000F
000F
000F
000F
000F
000F
E00F
E00F
E00F
E00F
E00F
E00F
1FF0
1FF0
1FF0
ENDCHAR
STARTCHAR 0409
ENCODING 1033
SWIDTH 690 0
DWIDTH 23 0
BBX 19 21 2 0
BITMAP
1FFFE0
1FFFE0
1FFFE0
1C01E0
1C01E0
1C01E0
1C01E0
1C01E0
1C01E0
1C01E0
1C01E0
1C01E0
1C01E0
1C01E0
1C01E0
1C01E0
1C01E0
1C01E0
FC01E0
FC01E0
FC01E0
ENDCHAR
STARTCHAR 040A
ENCODING 1034
SWIDTH 960 0
DWIDTH 32 0
BBX 28 21 2 0
BITMAP
E00F0000
E00F0000
E00F0000
E00F0000
E00F0000
E00F0000
E00FFF80
E00FFF80
E00FFF80
FFFF00F0
FFFF00F0
FFFF00F0
E00F00F0
E00F00F0
E00F00F0
E00F00F0
E00F00F0
E00F00F0
E00FFF80
E00FFF80
E00FFF80
ENDCHAR
STARTCHAR 040B
ENCODING 1035
SWIDTH 600 0
DWIDTH 20 0
BBX 19 21 -1 0
BITMAP
FFC000
FFC000
FFC000
1C0000
1C0000
1C0000
1C7E00
1C7E00
1C7E00
1F81E0
1F81E0
1F81E0
1C01E0
1C01E0
1C01E0
1C01E0
1C01E0
1C01E0
1C01E0
1C01E0
1C01E0
ENDCHAR
STARTCHAR 040C
ENCODING 1036
SWIDTH 600 0
DWIDTH 20 0
BBX 16 21 2 0
BITMAP
1C0F
1C0F
1C0F
E070
E070
E070
E380
E380
E380
FC00
FC00
FC00
E380
E380
E380
E070
E070
E070
E00F
E00F
E00F
ENDCHAR
STARTCHAR 040E
ENCODING 1038
SWIDTH 600 0
DWIDTH 20 0
BBX 16 26 2 0
BITMAP
0830
0FF0
0FF0
0000
0000
E00F
E00F
E00F
E00F
E00F
E00F
1C70
1C70
1C70
0380
0380
0380
0380
0380
0380
0380
0380
0380
0380
0380
0380
ENDCHAR
STARTCHAR 040F
ENCODING 1039
SWIDTH 600 0
DWIDTH 20 0
BBX 16 24 2 -3
BITMAP
E00F
E00F
E00F
E00F
E00F
E00F
E00F
E00F
E00F
E00F
E00F
E00F
E00F
E00F
E00F
E00F
E00F
E00F
FFFF
FFFF
FFFF
0380
0380
0380
ENDCHAR
STARTCHAR 0410
ENCODING 1040
SWIDTH 600 0
DWIDTH 20 0
BBX 16 21 2 0
BITMAP
0380
0380
0380
1C70
1C70
1C70
E00F
E00F
E00F
E00F
E00F
E00F
FFFF
FFFF
FFFF
E00F
E00F
E00F
E00F
E00F
E00F
ENDCHAR
STARTCHAR 0411
ENCODING 1041
SWIDTH 600 0
DWIDTH 20 0
BBX 16 21 2 0
BITMAP
FFF0
FFF0
FFF0
E00F
E00F
E00F
E000
E000
E000
FFF0
FFF0
FFF0
E00F
E00F
E00F
E00F
E00F
E00F
1FF0
1FF0
1FF0
ENDCHAR
STARTCHAR 0412
ENCODING 1042
SWIDTH 600 0
DWIDTH 20 0
BBX 16 21 2 0
BITMAP
1FF0
1FF0
1FF0
E00F
E00F
E00F
E00F
E00F
E00F
E3F0
E3F0
E3F0
E00F
E00F
E00F
E00F
E00F
E00F
1FF0
1FF0
1FF0
ENDCHAR
STARTCHAR 0413
ENCODING 1043
SWIDTH 480 0
DWIDTH 16 0
BBX 12 21 2 0
BITMAP
FFF0
FFF0
FFF0
E000
E000
E000
E000
E000
E000
E000
E000
E000
E000
E000
E000
E000
E000
E000
E000
E000
E000
ENDCHAR
STARTCHAR 0414
ENCODING 1044
SWIDTH 690 0
DWIDTH 23 0
BBX 19 21 2 0
BITMAP
1FFFE0
1FFFE0
1FFFE0
1C01E0
1C01E0
1C01E0
1C01E0
1C01E0
1C01E0
1C01E0
1C01E0
1C01E0
FC01E0
FC01E0
FC01E0
FFFFE0
FFFFE0
FFFFE0
E001E0
E001E0
E001E0
ENDCHAR
STARTCHAR 0415
ENCODING 1045
SWIDTH 600 0
DWIDTH 20 0
BBX 16 21 2 0
BITMAP
1FF0
1FF0
1FF0
E00F
E00F
E00F
E000
E000
E000
FF80
FF80
FF80
E000
E000
E000
E00F
E00F
E00F
1FF0
1FF0
1FF0
ENDCHAR
STARTCHAR 0416
ENCODING 1046
SWIDTH 960 0
DWIDTH 32 0
BBX 28 21 2 0
BITMAP
E00F00F0
E00F00F0
E00F00F0
1C0F0780
1C0F0780
1C0F0780
038F3C00
038F3C00
038F3C00
007FE000
007FE000
007FE000
038F3C00
038F3C00
038F3C00
1C0F0780
1C0F0780
1C0F0780
E00F00F0
E00F00F0
E00F00F0
ENDCHAR
STARTCHAR 0417
ENCODING 1047
SWIDTH 600 0
DWIDTH 20 0
BBX 16 21 2 0
BITMAP
1FF0
1FF0
1FF0
E00F
E00F
E00F
000F
000F
000F
1FF0
1FF0
1FF0
000F
000F
000F
E00F
E00F
E00F
1FF0
1FF0
1FF0
ENDCHAR
STARTCHAR 0418
ENCODING 1048
SWIDTH 600 0
DWIDTH 20 0
BBX 16 21 2 0
BITMAP
E00F
E00F
E00F
E07F
E07F
E07F
E38F
E38F
E38F
E38F
E38F
E38F
E38F
E38F
E38F
FC0F
FC0F
FC0F
E00F
E00F
E00F
ENDCHAR
STARTCHAR 0419
ENCODING 1049
SWIDTH 600 0
DWIDTH 20 0
BBX 16 26 2 0
BITMAP
0830
0FF0
0FF0
0000
0000
E00F
E00F
E00F
E07F
E07F
E07F
E38F
E38F
E38F
E38F
E38F
E38F
E38F
E38F
E38F
FC0F
FC0F
FC0F
E00F
E00F
E00F
ENDCHAR
STARTCHAR 041A
ENCODING 1050
SWIDTH 600 0
DWIDTH 20 0
BBX 16 28 2 0
BITMAP
0030
0030
00C0
0180
0180
0000
0000
1C0F
1C0F
1C0F
E070
E070
E070
E380
E380
E380
FC00
FC00
FC00
E380
E380
E380
E070
E070
E070
E00F
E00F
E00F
ENDCHAR
STARTCHAR 041B
ENCODING 1051
SWIDTH 690 0
DWIDTH 23 0
BBX 19 21 2 0
BITMAP
1FFFE0
1FFFE0
1FFFE0
1C01E0
1C01E0
1C01E0
1C01E0
1C01E0
1C01E0
1C01E0
1C01E0
1C01E0
1C01E0
1C01E0
1C01E0
1C01E0
1C01E0
1C01E0
FC01E0
FC01E0
FC01E0
ENDCHAR
STARTCHAR 041C
ENCODING 1052
SWIDTH 780 0
DWIDTH 26 0
BBX 22 21 2 0
BITMAP
1C01E0
1C01E0
1C01E0
E38F3C
E38F3C
E38F3C
E38F3C
E38F3C
E38F3C
E0703C
E0703C
E0703C
E0703C
E0703C
E0703C
E0703C
E0703C
E0703C
E0003C
E0003C
E0003C
ENDCHAR
STARTCHAR 041D
ENCODING 1053
SWIDTH 600 0
DWIDTH 20 0
BBX 16 21 2 0
BITMAP
E00F
E00F
E00F
E00F
E00F
E00F
E00F
E00F
E00F
FFFF
FFFF
FFFF
E00F
E00F
E00F
E00F
E00F
E00F
E00F
E00F
E00F
ENDCHAR
STARTCHAR 0420
ENCODING 1056
SWIDTH 600 0
DWIDTH 20 0
BBX 16 21 2 0
BITMAP
1FF0
1FF0
1FF0
E00F
E00F
E00F
E00F
E00F
E00F
E00F
E00F
E00F
FFF0
FFF0
FFF0
E000
E000
E000
E000
E000
E000
ENDCHAR
STARTCHAR 0421
ENCODING 1057
SWIDTH 600 0
DWIDTH 20 0
BBX 16 21 2 0
BITMAP
1FF0
1FF0
1FF0
E00F
E00F
E00F
E00F
E00F
E00F
E000
E000
E000
E00F
E00F
E00F
E00F
E00F
E00F
1FF0
1FF0
1FF0
ENDCHAR
STARTCHAR 0422
ENCODING 1058
SWIDTH 600 0
DWIDTH 20 0
BBX 16 21 2 0
BITMAP
1FF0
1FF0
1FF0
E38F
E38F
E38F
0380
0380
0380
0380
0380
0380
0380
0380
0380
0380
0380
0380
0380
0380
0380
ENDCHAR
STARTCHAR 0423
ENCODING 1059
SWIDTH 600 0
DWIDTH 20 0
BBX 16 21 2 0
BITMAP
E00F
E00F
E00F
E00F
E00F
E00F
1C70
1C70
1C70
0380
0380
0380
0380
0380
0380
0380
0380
0380
0380
0380
0380
ENDCHAR
STARTCHAR 0424
ENCODING 1060
SWIDTH 600 0
DWIDTH 20 0
BBX 16 21 2 0
BITMAP
0380
0380
0380
1FF0
1FF0
1FF0
E38F
E38F
E38F
E38F
E38F
E38F
E38F
E38F
E38F
1FF0
1FF0
1FF0
0380
0380
0380
ENDCHAR
STARTCHAR 0425
ENCODING 1061
SWIDTH 600 0
DWIDTH 20 0
BBX 16 21 2 0
BITMAP
E00F
E00F
E00F
1C70
1C70
1C70
1C70
1C70
1C70
0380
0380
0380
1C70
1C70
1C70
1C70
1C70
1C70
E00F
E00F
E00F
ENDCHAR
STARTCHAR 0426
ENCODING 1062
SWIDTH 600 0
DWIDTH 20 0
BBX 17 24 2 -3
BITMAP
E00F00
E00F00
E00F00
E00F00
E00F00
E00F00
E00F00
E00F00
E00F00
E00F00
E00F00
E00F00
E00F00
E00F00
E00F00
E00F00
E00F00
E00F00
FFFF00
FFFF00
FFFF00
000180
000180
000300
ENDCHAR
STARTCHAR 0427
ENCODING 1063
SWIDTH 600 0
DWIDTH 20 0
BBX 16 21 2 0
BITMAP
E00F
E00F
E00F
E00F
E00F
E00F
E00F
E00F
E00F
1FFF
1FFF
1FFF
000F
000F
000F
000F
000F
000F
000F
000F
000F
ENDCHAR
STARTCHAR 0428
ENCODING 1064
SWIDTH 780 0
DWIDTH 26 0
BBX 22 21 2 0
BITMAP
E0003C
E0003C
E0003C
E0703C
E0703C
E0703C
E0703C
E0703C
E0703C
E0703C
E0703C
E0703C
E38F3C
E38F3C
E38F3C
E38F3C
E38F3C
E38F3C
1C01E0
1C01E0
1C01E0
ENDCHAR
STARTCHAR 0429
ENCODING 1065
SWIDTH 780 0
DWIDTH 26 0
BBX 23 24 2 -3
BITMAP
E0003C
E0003C
E0003C
E0703C
E0703C
E0703C
E0703C
E0703C
E0703C
E0703C
E0703C
E0703C
E38F3C
E38F3C
E38F3C
E38F3C
E38F3C
E38F3C
1C01FC
1C01FC
1C01FC
000006
000006
00000C
ENDCHAR
STARTCHAR 042A
ENCODING 1066
SWIDTH 600 0
DWIDTH 20 0
BBX 19 21 -1 0
BITMAP
FFC000
FFC000
FFC000
1C0000
1C0000
1C0000
1FFE00
1FFE00
1FFE00
1C01E0
1C01E0
1C01E0
1C01E0
1C01E0
1C01E0
1C01E0
1C01E0
1C01E0
03FE00
03FE00
03FE00
ENDCHAR
STARTCHAR 042B
ENCODING 1067
SWIDTH 780 0
DWIDTH 26 0
BBX 22 21 2 0
BITMAP
E00000
E00000
E00000
E00000
E00000
E00000
E0003C
E0003C
E0003C
FFF03C
FFF03C
FFF03C
E00F3C
E00F3C
E00F3C
E00F3C
E00F3C
E00F3C
1FF03C
1FF03C
1FF03C
ENDCHAR
STARTCHAR 042C
ENCODING 1068
SWIDTH 600 0
DWIDTH 20 0
BBX 16 21 2 0
BITMAP
E000
E000
E000
E000
E000
E000
FFF0
FFF0
FFF0
E00F
E00F
E00F
E00F
E00F
E00F
E00F
E00F
E00F
1FF0
1FF0
1FF0
ENDCHAR
STARTCHAR 042D
ENCODING 1069
SWIDTH 600 0
DWIDTH 20 0
BBX 16 21 2 0
BITMAP
1FF0
1FF0
1FF0
E00F
E00F
E00F
000F
000F
000F
1FF0
1FF0
1FF0
000F
000F
000F
E00F
E00F
E00F
1FF0
1FF0
1FF0
ENDCHAR
STARTCHAR 042E
ENCODING 1070
SWIDTH 840 0
DWIDTH 28 0
BBX 24 21 2 0
BITMAP
E00FF8
E00FF8
E00FF8
E07007
E07007
E07007
E07007
E07007
E07007
FFF007
FFF007
FFF007
E07007
E07007
E07007
E07007
E07007
E07007
E00FF8
E00FF8
E00FF8
ENDCHAR
STARTCHAR 042F
ENCODING 1071
SWIDTH 600 0
DWIDTH 20 0
BBX 16 21 2 0
BITMAP
1FF0
1FF0
1FF0
E00F
E00F
E00F
E00F
E00F
E00F
E00F
E00F
E00F
1FFF
1FFF
1FFF
070F
070F
070F
780F
780F
780F
ENDCHAR
STARTCHAR 0430
ENCODING 1072
SWIDTH 690 0
DWIDTH 23 0
BBX 19 15 2 0
BITMAP
FFF000
FFF000
FFF000
000F00
000F00
FFFF00
FFFF00
FFFF00
E00F00
E00F00
E00F00
E00F00
1FF1E0
1FF1E0
1FF1E0
ENDCHAR
STARTCHAR 0431
ENCODING 1073
SWIDTH 600 0
DWIDTH 20 0
BBX 16 21 2 0
BITMAP
1FF0
1FF0
1FF0
E00F
E00F
E00F
E000
E000
E000
FFF0
FFF0
FFF0
E00F
E00F
E00F
E00F
E00F
E00F
1FF0
1FF0
1FF0
ENDCHAR
STARTCHAR 0432
ENCODING 1074
SWIDTH 600 0
DWIDTH 20 0
BBX 16 15 2 0
BITMAP
1FF0
1FF0
1FF0
E00F
E00F
E00F
E3F0
E3F0
E3F0
E00F
E00F
E00F
1FF0
1FF0
1FF0
ENDCHAR
STARTCHAR 0433
ENCODING 1075
SWIDTH 480 0
DWIDTH 16 0
BBX 12 15 2 0
BITMAP
FFF0
FFF0
FFF0
E000
E000
E000
E000
E000
E000
E000
E000
E000
E000
E000
E000
ENDCHAR
STARTCHAR 0434
ENCODING 1076
SWIDTH 690 0
DWIDTH 23 0
BBX 19 15 2 0
BITMAP
1FFFE0
1FFFE0
1FFFE0
1C01E0
1C01E0
1C01E0
FC01E0
FC01E0
FC01E0
FFFFE0
FFFFE0
FFFFE0
E001E0
E001E0
E001E0
ENDCHAR
STARTCHAR 0435
ENCODING 1077
SWIDTH 600 0
DWIDTH 20 0
BBX 16 15 2 0
BITMAP
1FF0
1FF0
1FF0
E00F
E00F
E00F
FF80
FF80
FF80
E00F
E00F
E00F
1FF0
1FF0
1FF0
ENDCHAR
STARTCHAR 0436
ENCODING 1078
SWIDTH 750 0
DWIDTH 25 0
BBX 21 15 2 0
BITMAP
C07018
C07018
307060
307060
0C7180
0C7180
03FE00
03FE00
03FE00
0FFF80
0C7180
307060
307060
C07018
C07018
ENDCHAR
STARTCHAR 0437
ENCODING 1079
SWIDTH 600 0
DWIDTH 20 0
BBX 16 15 2 0
BITMAP
1FF0
1FF0
1FF0
E00F
E00F
E00F
03FF
03FF
03FF
E00F
E00F
E00F
1FF0
1FF0
1FF0
ENDCHAR
STARTCHAR 0438
ENCODING 1080
SWIDTH 570 0
DWIDTH 19 0
BBX 16 15 2 0
BITMAP
E00F
E00F
E00F
E07F
E07F
E07F
E38F
E38F
E38F
FC0F
FC0F
FC0F
E00F
E00F
E00F
ENDCHAR
STARTCHAR 0439
ENCODING 1081
SWIDTH 600 0
DWIDTH 20 0
BBX 16 20 2 0
BITMAP
0C30
0FF0
0FF0
0000
0000
E00F
E00F
E00F
E07F
E07F
E07F
E38F
E38F
E38F
FC0F
FC0F
FC0F
E00F
E00F
E00F
ENDCHAR
STARTCHAR 043A
ENCODING 1082
SWIDTH 600 0
DWIDTH 20 0
BBX 16 15 2 0
BITMAP
E00F
E00F
E00F
E3F0
E3F0
E3F0
FC00
FC00
FC00
E3F0
E3F0
E3F0
E00F
E00F
E00F
ENDCHAR
STARTCHAR 043B
ENCODING 1083
SWIDTH 690 0
DWIDTH 23 0
BBX 19 15 2 0
BITMAP
1FFFE0
1FFFE0
1FFFE0
1C01E0
1C01E0
1C01E0
1C01E0
1C01E0
1C01E0
1C01E0
1C01E0
1C01E0
FC01E0
FC01E0
FC01E0
ENDCHAR
STARTCHAR 043C
ENCODING 1084
SWIDTH 780 0
DWIDTH 26 0
BBX 22 15 2 0
BITMAP
1C01E0
1C01E0
1C01E0
E38F3C
E38F3C
E38F3C
E38F3C
E38F3C
E38F3C
E0703C
E0703C
E0703C
E0003C
E0003C
E0003C
ENDCHAR
STARTCHAR 043D
ENCODING 1085
SWIDTH 600 0
DWIDTH 20 0
BBX 16 15 2 0
BITMAP
E00F
E00F
E00F
E00F
E00F
E00F
FFFF
FFFF
FFFF
FFFF
E00F
E00F
E00F
E00F
E00F
ENDCHAR
STARTCHAR 043E
ENCODING 1086
SWIDTH 600 0
DWIDTH 20 0
BBX 16 15 2 0
BITMAP
1FF0
1FF0
1FF0
E00F
E00F
E00F
E00F
E00F
E00F
E00F
E00F
E00F
1FF0
1FF0
1FF0
ENDCHAR
STARTCHAR 043F
ENCODING 1087
SWIDTH 600 0
DWIDTH 20 0
BBX 16 15 2 0
BITMAP
FFFF
FFFF
FFFF
E00F
E00F
E00F
E00F
E00F
E00F
E00F
E00F
E00F
E00F
E00F
E00F
ENDCHAR
STARTCHAR 0440
ENCODING 1088
SWIDTH 600 0
DWIDTH 20 0
BBX 16 21 2 -6
BITMAP
1FF0
1FF0
1FF0
E00F
E00F
E00F
E00F
E00F
E00F
E00F
E00F
E00F
FFF0
FFF0
FFF0
E000
E000
E000
E000
E000
E000
ENDCHAR
STARTCHAR 0441
ENCODING 1089
SWIDTH 600 0
DWIDTH 20 0
BBX 16 15 2 0
BITMAP
1FF0
1FF0
1FF0
E00F
E00F
E00F
E000
E000
E000
E00F
E00F
E00F
1FF0
1FF0
1FF0
ENDCHAR
STARTCHAR 0442
ENCODING 1090
SWIDTH 600 0
DWIDTH 20 0
BBX 16 15 2 0
BITMAP
1FF0
1FF0
1FF0
E38F
E38F
E38F
0380
0380
0380
0380
0380
0380
0380
0380
0380
ENDCHAR
STARTCHAR 0443
ENCODING 1091
SWIDTH 600 0
DWIDTH 20 0
BBX 16 21 2 -6
BITMAP
E00F
E00F
E00F
E00F
E00F
E00F
E00F
E00F
E00F
1FFF
1FFF
1FFF
000F
000F
000F
E00F
E00F
E00F
1FF0
1FF0
1FF0
ENDCHAR
STARTCHAR 0444
ENCODING 1092
SWIDTH 510 0
DWIDTH 17 0
BBX 14 21 1 0
BITMAP
0700
0700
0700
0700
1FE0
1FE0
1FE0
E71C
E71C
E71C
E71C
E71C
E71C
E71C
E71C
1FE0
1FE0
1FE0
0700
0700
0700
ENDCHAR
STARTCHAR 0445
ENCODING 1093
SWIDTH 600 0
DWIDTH 20 0
BBX 16 15 2 0
BITMAP
E00F
E00F
E00F
1C70
1C70
1C70
0380
0380
0380
1C70
1C70
1C70
E00F
E00F
E00F
ENDCHAR
STARTCHAR 0446
ENCODING 1094
SWIDTH 600 0
DWIDTH 20 0
BBX 17 18 2 -3
BITMAP
E00F00
E00F00
E00F00
E00F00
E00F00
E00F00
E00F00
E00F00
E00F00
E00F00
E00F00
E00F00
FFFF00
FFFF00
FFFF00
000180
000180
000200
ENDCHAR
STARTCHAR 0447
ENCODING 1095
SWIDTH 600 0
DWIDTH 20 0
BBX 16 15 2 0
BITMAP
E00F
E00F
E00F
E00F
E00F
E00F
E00F
E00F
E00F
1FFF
1FFF
1FFF
000F
000F
000F
ENDCHAR
STARTCHAR 0448
ENCODING 1096
SWIDTH 780 0
DWIDTH 26 0
BBX 22 15 2 0
BITMAP
E0703C
E0703C
E0703C
E0703C
E0703C
E0703C
E0703C
E0703C
E0703C
E0703C
E0703C
E0703C
FF8FFC
FF8FFC
FF8FFC
ENDCHAR
STARTCHAR 0449
ENCODING 1097
SWIDTH 780 0
DWIDTH 26 0
BBX 23 18 2 -3
BITMAP
E0703C
E0703C
E0703C
E0703C
E0703C
E0703C
E0703C
E0703C
E0703C
E0703C
E0703C
E0703C
FF8FFC
FF8FFC
FF8FFC
000006
000006
00000C
ENDCHAR
STARTCHAR 044A
ENCODING 1098
SWIDTH 600 0
DWIDTH 20 0
BBX 18 21 0 0
BITMAP
F80000
F80000
F80000
380000
380000
380000
3FFC00
3FFC00
3FFC00
3803C0
3803C0
3803C0
3803C0
3803C0
3803C0
3803C0
3803C0
3803C0
07FC00
07FC00
07FC00
ENDCHAR
STARTCHAR 044B
ENCODING 1099
SWIDTH 780 0
DWIDTH 26 0
BBX 22 21 2 0
BITMAP
E0003C
E0003C
E0003C
E0003C
E0003C
E0003C
FFF03C
FFF03C
FFF03C
E00F3C
E00F3C
E00F3C
E00F3C
E00F3C
E00F3C
E00F3C
E00F3C
E00F3C
1FF03C
1FF03C
1FF03C
ENDCHAR
STARTCHAR 044C
ENCODING 1100
SWIDTH 600 0
DWIDTH 20 0
BBX 16 21 0 0
BITMAP
E000
E000
E000
E000
E000
E000
FFF0
FFF0
FFF0
E00F
E00F
E00F
E00F
E00F
E00F
E00F
E00F
E00F
1FF0
1FF0
1FF0
ENDCHAR
STARTCHAR 044D
ENCODING 1101
SWIDTH 600 0
DWIDTH 20 0
BBX 16 15 2 0
BITMAP
1FF0
1FF0
1FF0
E00F
E00F
E00F
03FF
03FF
03FF
E00F
E00F
E00F
1FF0
1FF0
1FF0
ENDCHAR
STARTCHAR 044E
ENCODING 1102
SWIDTH 840 0
DWIDTH 28 0
BBX 24 15 2 0
BITMAP
E00FF8
E00FF8
E00FF8
E07007
E07007
E07007
FFF007
FFF007
FFF007
FFF007
E07007
E07007
E00FF8
E00FF8
E00FF8
ENDCHAR
STARTCHAR 044F
ENCODING 1103
SWIDTH 600 0
DWIDTH 20 0
BBX 16 15 2 0
BITMAP
1FF0
1FF0
1FF0
E00F
E00F
E00F
1FFF
1FFF
1FFF
070F
070F
070F
780F
780F
780F
ENDCHAR
STARTCHAR 0451
ENCODING 1105
SWIDTH 600 0
DWIDTH 20 0
BBX 16 22 2 0
BITMAP
3C38
3C38
3C38
3C38
0000
0000
0000
1FF0
1FF0
1FF0
E00F
E00F
E00F
FF80
FF80
FF80
E00F
E00F
E00F
1FF0
1FF0
1FF0
ENDCHAR
STARTCHAR 0452
ENCODING 1106
SWIDTH 630 0
DWIDTH 21 0
BBX 16 29 2 -8
BITMAP
7000
FF00
FF00
FF00
7000
7000
71F8
71F8
71F8
7E07
7E07
7E07
7007
7007
7007
7007
7007
7007
7007
7007
7007
0007
0007
0E07
0E07
0E07
01F8
01F8
01F8
ENDCHAR
STARTCHAR 0453
ENCODING 1107
SWIDTH 600 0
DWIDTH 20 0
BBX 16 23 2 0
BITMAP
00C0
00C0
0180
0780
0600
0000
0000
0000
1FF0
1FF0
1FF0
E00F
E00F
E00F
E000
E000
E000
E000
E000
E000
E000
E000
E000
ENDCHAR
STARTCHAR 0454
ENCODING 1108
SWIDTH 600 0
DWIDTH 20 0
BBX 16 15 2 0
BITMAP
1FF0
1FF0
1FF0
E00F
E00F
E00F
FF80
FF80
FF80
E00F
E00F
E00F
1FF0
1FF0
1FF0
ENDCHAR
STARTCHAR 0455
ENCODING 1109
SWIDTH 600 0
DWIDTH 20 0
BBX 16 15 2 0
BITMAP
1FFF
1FFF
1FFF
E000
E000
E000
1FF0
1FF0
1FF0
000F
000F
000F
FFF0
FFF0
FFF0
ENDCHAR
STARTCHAR 0456
ENCODING 1110
SWIDTH 210 0
DWIDTH 7 0
BBX 3 21 2 0
BITMAP
E0
E0
E0
00
00
00
E0
E0
E0
E0
E0
E0
E0
E0
E0
E0
E0
E0
E0
E0
E0
ENDCHAR
STARTCHAR 0457
ENCODING 1111
SWIDTH 330 0
DWIDTH 11 0
BBX 11 15 0 0
BITMAP
F0E0
F0E0
F0E0
0000
0000
0000
0E00
0E00
0E00
0E00
0E00
0E00
0E00
0E00
0E00
ENDCHAR
STARTCHAR 0458
ENCODING 1112
SWIDTH 510 0
DWIDTH 17 0
BBX 12 15 2 0
BITMAP
0070
0070
0070
0070
0070
0070
0070
0070
0070
E070
E070
E070
1F80
1F80
1F80
ENDCHAR
STARTCHAR 0459
ENCODING 1113
SWIDTH 930 0
DWIDTH 31 0
BBX 27 15 2 0
BITMAP
1FFE0000
1FFE0000
1FFE0000
1C0FFF00
1C0FFF00
1C0FFF00
1C0E00E0
1C0E00E0
1C0E00E0
1C0E00E0
1C0E00E0
1C0E00E0
FC0FFF00
FC0FFF00
FC0FFF00
ENDCHAR
STARTCHAR 045A
ENCODING 1114
SWIDTH 840 0
DWIDTH 28 0
BBX 24 15 2 0
BITMAP
E07000
E07000
E07000
E07FF8
E07FF8
E07FF8
FFF007
FFF007
FFF007
FFF007
E07007
E07007
E07FF8
E07FF8
E07FF8
ENDCHAR
STARTCHAR 045B
ENCODING 1115
SWIDTH 600 0
DWIDTH 20 0
BBX 16 21 2 0
BITMAP
FE00
FE00
FE00
E000
E000
E000
E3F0
E3F0
E3F0
FC0F
FC0F
FC0F
E00F
E00F
E00F
E00F
E00F
E00F
E00F
E00F
E00F
ENDCHAR
STARTCHAR 045C
ENCODING 1116
SWIDTH 600 0
DWIDTH 20 0
BBX 16 23 2 0
BITMAP
00C0
00C0
0180
0780
0600
0000
0000
0000
E00F
E00F
E00F
E3F0
E3F0
E3F0
FC00
FC00
FC00
E3F0
E3F0
E3F0
E00F
E00F
E00F
ENDCHAR
STARTCHAR 045E
ENCODING 1118
SWIDTH 600 0
DWIDTH 20 0
BBX 16 27 2 -6
BITMAP
0830
0FF0
0FF0
0000
0000
0000
E00F
E00F
E00F
E00F
E00F
E00F
E00F
E00F
E00F
1FFF
1FFF
1FFF
000F
000F
000F
E00F
E00F
E00F
1FF0
1FF0
1FF0
ENDCHAR
STARTCHAR 045F
ENCODING 1119
SWIDTH 600 0
DWIDTH 20 0
BBX 16 18 2 -3
BITMAP
E00F
E00F
E00F
E00F
E00F
E00F
E00F
E00F
E00F
E00F
E00F
E00F
FFFF
FFFF
FFFF
0380
0380
0380
ENDCHAR
STARTCHAR 0490
ENCODING 1168
SWIDTH 480 0
DWIDTH 16 0
BBX 12 23 2 0
BITMAP
0070
0070
FFF0
FFF0
FFF0
E000
E000
E000
E000
E000
E000
E000
E000
E000
E000
E000
E000
E000
E000
E000
E000
E000
E000
ENDCHAR
STARTCHAR 0491
ENCODING 1169
SWIDTH 600 0
DWIDTH 20 0
BBX 16 21 2 0
BITMAP
E00F
E00F
E00F
E00F
E00F
E00F
1C70
1C70
1C70
0380
0380
0380
0380
0380
0380
0380
0380
0380
0380
0380
0380
ENDCHAR
STARTCHAR 1E80
ENCODING 7808
SWIDTH 780 0
DWIDTH 26 0
BBX 22 28 2 0
BITMAP
018000
01C000
00C000
003000
003000
000000
000000
E0003C
E0003C
E0003C
E0703C
E0703C
E0703C
E0703C
E0703C
E0703C
E0703C
E0703C
E0703C
E38F3C
E38F3C
E38F3C
E38F3C
E38F3C
E38F3C
1C01E0
1C01E0
1C01E0
ENDCHAR
STARTCHAR 1E81
ENCODING 7809
SWIDTH 780 0
DWIDTH 26 0
BBX 22 22 2 0
BITMAP
018000
01C000
00C000
003000
003000
000000
000000
E0703C
E0703C
E0703C
E0703C
E0703C
E0703C
E0703C
E0703C
E0703C
E0703C
E0703C
E0703C
FF8FE0
FF8FE0
FF8FE0
ENDCHAR
STARTCHAR 1E82
ENCODING 7810
SWIDTH 780 0
DWIDTH 26 0
BBX 22 28 2 0
BITMAP
001800
007800
006000
00C000
00C000
000000
000000
E0003C
E0003C
E0003C
E0703C
E0703C
E0703C
E0703C
E0703C
E0703C
E0703C
E0703C
E0703C
E38F3C
E38F3C
E38F3C
E38F3C
E38F3C
E38F3C
1C01E0
1C01E0
1C01E0
ENDCHAR
STARTCHAR 1E83
ENCODING 7811
SWIDTH 780 0
DWIDTH 26 0
BBX 22 22 2 0
BITMAP
001800
007800
006000
00C000
00C000
000000
000000
E0703C
E0703C
E0703C
E0703C
E0703C
E0703C
E0703C
E0703C
E0703C
E0703C
E0703C
E0703C
FF8FE0
FF8FE0
FF8FE0
ENDCHAR
STARTCHAR 1E84
ENCODING 7812
SWIDTH 780 0
DWIDTH 26 0
BBX 22 27 2 0
BITMAP
038700
038700
038700
038700
000000
000000
E0003C
E0003C
E0003C
E0703C
E0703C
E0703C
E0703C
E0703C
E0703C
E0703C
E0703C
E0703C
E38F3C
E38F3C
E38F3C
E38F3C
E38F3C
E38F3C
1C01E0
1C01E0
1C01E0
ENDCHAR
STARTCHAR 1E85
ENCODING 7813
SWIDTH 780 0
DWIDTH 26 0
BBX 22 21 2 0
BITMAP
038700
038700
038700
038700
000000
000000
E0703C
E0703C
E0703C
E0703C
E0703C
E0703C
E0703C
E0703C
E0703C
E0703C
E0703C
E0703C
FF8FE0
FF8FE0
FF8FE0
ENDCHAR
STARTCHAR 1E9E
ENCODING 7838
SWIDTH 660 0
DWIDTH 22 0
BBX 18 21 2 0
BITMAP
FFFE00
FFFE00
FFFE00
E003C0
E003C0
E003C0
E003C0
E003C0
E003C0
E07E00
E07E00
E07E00
E003C0
E003C0
E003C0
E003C0
E003C0
E003C0
E7FE00
E7FE00
E7FE00
ENDCHAR
STARTCHAR 1EF2
ENCODING 7922
SWIDTH 600 0
DWIDTH 20 0
BBX 16 28 2 0
BITMAP
0C00
0E00
0600
0180
0180
0000
0000
E00F
E00F
E00F
E00F
E00F
E00F
1C70
1C70
1C70
0380
0380
0380
0380
0380
0380
0380
0380
0380
0380
0380
0380
ENDCHAR
STARTCHAR 1EF3
ENCODING 7923
SWIDTH 600 0
DWIDTH 20 0
BBX 16 28 2 -6
BITMAP
0C00
0E00
0600
0180
0180
0000
0000
E00F
E00F
E00F
E00F
E00F
E00F
E00F
E00F
E00F
1FFF
1FFF
1FFF
000F
000F
000F
E00F
E00F
E00F
1FF0
1FF0
1FF0
ENDCHAR
STARTCHAR 2013
ENCODING 8211
SWIDTH 390 0
DWIDTH 13 0
BBX 9 3 2 8
BITMAP
FF80
FF80
FF80
ENDCHAR
STARTCHAR 2014
ENCODING 8212
SWIDTH 510 0
DWIDTH 17 0
BBX 13 3 2 8
BITMAP
FFF8
FFF8
FFF8
ENDCHAR
STARTCHAR 2018
ENCODING 8216
SWIDTH 270 0
DWIDTH 9 0
BBX 5 6 2 15
BITMAP
60
E0
C0
78
78
78
ENDCHAR
STARTCHAR 2019
ENCODING 8217
SWIDTH 270 0
DWIDTH 9 0
BBX 5 6 2 15
BITMAP
E0
E0
E0
18
78
60
ENDCHAR
STARTCHAR 201A
ENCODING 8218
SWIDTH 270 0
DWIDTH 9 0
BBX 5 6 2 -3
BITMAP
E0
E0
E0
18
60
60
ENDCHAR
STARTCHAR 201C
ENCODING 8220
SWIDTH 480 0
DWIDTH 16 0
BBX 11 6 2 15
BITMAP
60C0
E1C0
C100
78E0
78E0
78E0
ENDCHAR
STARTCHAR 201D
ENCODING 8221
SWIDTH 480 0
DWIDTH 16 0
BBX 11 6 2 15
BITMAP
E1C0
E1C0
E1C0
1820
78E0
60C0
ENDCHAR
STARTCHAR 201E
ENCODING 8222
SWIDTH 480 0
DWIDTH 16 0
BBX 11 6 2 -3
BITMAP
E1C0
E1C0
E1C0
1820
60C0
60C0
ENDCHAR
STARTCHAR 2020
ENCODING 8224
SWIDTH 390 0
DWIDTH 13 0
BBX 9 21 2 0
BITMAP
1C00
1C00
1C00
1C00
FF80
FF80
FF80
FF80
1C00
1C00
1C00
1C00
1C00
1C00
1C00
1C00
1C00
1C00
1C00
1C00
1C00
ENDCHAR
STARTCHAR 2022
ENCODING 8226
SWIDTH 270 0
DWIDTH 9 0
BBX 5 5 2 8
BITMAP
F8
F8
F8
F8
F8
ENDCHAR
STARTCHAR 2026
ENCODING 8230
SWIDTH 630 0
DWIDTH 21 0
BBX 17 3 2 0
BITMAP
E1C380
E1C380
E1C380
ENDCHAR
STARTCHAR 2030
ENCODING 8240
SWIDTH 630 0
DWIDTH 21 0
BBX 18 25 1 -2
BITMAP
1F0000
1F0000
618000
618000
618000
618000
618000
618000
618000
618000
1F0000
000000
000000
FFFF80
FFFF80
000000
000000
000000
1F0F80
61B0C0
61B0C0
61B0C0
61B0C0
7FBFC0
1F0F80
ENDCHAR
STARTCHAR 2039
ENCODING 8249
SWIDTH 570 0
DWIDTH 19 0
BBX 16 28 2 -4
BITMAP
000F
000F
000F
0070
0070
0070
0380
0380
0380
1C00
1C00
1C00
E000
E000
E000
1C00
1C00
1C00
1F80
0380
0380
03F0
0070
0070
007F
000F
000F
000F
ENDCHAR
STARTCHAR 203A
ENCODING 8250
SWIDTH 570 0
DWIDTH 19 0
BBX 16 28 1 -4
BITMAP
E000
E000
E000
1C00
1C00
1C00
0380
0380
0380
0070
0070
0070
000F
000F
000F
0070
0070
0070
03F0
0380
0380
1F80
1C00
1C00
FC00
E000
E000
E000
ENDCHAR
STARTCHAR 203C
ENCODING 8252
SWIDTH 420 0
DWIDTH 14 0
BBX 10 21 2 0
BITMAP
E1C0
E1C0
E1C0
E1C0
E1C0
E1C0
E1C0
E1C0
E1C0
E1C0
E1C0
E1C0
E1C0
E1C0
E1C0
0000
0000
0000
E1C0
E1C0
E1C0
ENDCHAR
STARTCHAR 2070
ENCODING 8304
SWIDTH 360 0
DWIDTH 12 0
BBX 8 11 2 10
BITMAP
3E
3E
C3
C3
C3
C3
C3
C3
C3
FF
3E
ENDCHAR
STARTCHAR 2074
ENCODING 8308
SWIDTH 360 0
DWIDTH 12 0
BBX 8 11 2 10
BITMAP
07
07
1B
23
23
C3
FF
FF
03
03
03
ENDCHAR
STARTCHAR 2075
ENCODING 8309
SWIDTH 360 0
DWIDTH 12 0
BBX 8 11 2 10
BITMAP
3E
3E
C3
C3
C3
20
3E
1E
C3
FF
3E
ENDCHAR
STARTCHAR 2076
ENCODING 8310
SWIDTH 360 0
DWIDTH 12 0
BBX 8 11 2 10
BITMAP
3E
3E
C3
C0
C0
FE
FF
C3
C3
FF
3E
ENDCHAR
STARTCHAR 2077
ENCODING 8311
SWIDTH 360 0
DWIDTH 12 0
BBX 8 11 2 10
BITMAP
3E
3E
C3
03
03
03
03
03
03
03
03
ENDCHAR
STARTCHAR 2078
ENCODING 8312
SWIDTH 360 0
DWIDTH 12 0
BBX 8 11 2 10
BITMAP
3E
3E
C3
C3
C3
3E
FF
C3
C3
FF
3E
ENDCHAR
STARTCHAR 2079
ENCODING 8313
SWIDTH 360 0
DWIDTH 12 0
BBX 8 11 2 10
BITMAP
3E
3E
C3
C3
C3
3F
3F
03
C3
FF
3E
ENDCHAR
STARTCHAR 2080
ENCODING 8320
SWIDTH 360 0
DWIDTH 12 0
BBX 8 11 2 0
BITMAP
3E
3E
C3
C3
C3
C3
C3
C3
C3
C3
3E
ENDCHAR
STARTCHAR 2081
ENCODING 8321
SWIDTH 270 0
DWIDTH 9 0
BBX 5 11 2 0
BITMAP
20
20
D8
D8
18
18
18
18
18
18
18
ENDCHAR
STARTCHAR 2082
ENCODING 8322
SWIDTH 360 0
DWIDTH 12 0
BBX 8 11 2 0
BITMAP
3E
3E
C3
C3
03
3E
FE
C0
C3
C3
3E
ENDCHAR
STARTCHAR 2083
ENCODING 8323
SWIDTH 360 0
DWIDTH 12 0
BBX 8 11 2 0
BITMAP
3E
3E
C3
C3
03
3E
3F
03
C3
C3
3E
ENDCHAR
STARTCHAR 2084
ENCODING 8324
SWIDTH 360 0
DWIDTH 12 0
BBX 8 11 2 0
BITMAP
07
07
1B
3B
23
C3
FF
FF
03
03
03
ENDCHAR
STARTCHAR 2085
ENCODING 8325
SWIDTH 360 0
DWIDTH 12 0
BBX 8 11 2 0
BITMAP
3E
3E
C3
C3
C3
20
3E
1E
C3
C3
3E
ENDCHAR
STARTCHAR 2086
ENCODING 8326
SWIDTH 360 0
DWIDTH 12 0
BBX 8 11 2 0
BITMAP
3E
3E
C3
C3
C0
FE
FF
C3
C3
C3
3E
ENDCHAR
STARTCHAR 2087
ENCODING 8327
SWIDTH 360 0
DWIDTH 12 0
BBX 8 11 2 0
BITMAP
3E
3E
C3
C3
03
03
03
03
03
03
03
ENDCHAR
STARTCHAR 2088
ENCODING 8328
SWIDTH 360 0
DWIDTH 12 0
BBX 8 11 2 0
BITMAP
3E
3E
C3
C3
C3
3E
FF
C3
C3
C3
3E
ENDCHAR
STARTCHAR 2089
ENCODING 8329
SWIDTH 360 0
DWIDTH 12 0
BBX 8 11 2 0
BITMAP
3E
3E
C3
C3
C3
3F
3F
03
C3
C3
3E
ENDCHAR
STARTCHAR 20A1
ENCODING 8353
SWIDTH 600 0
DWIDTH 20 0
BBX 16 25 2 -2
BITMAP
01B0
01B0
1FF0
1FF0
1FF0
E36F
E36F
E36F
E36F
E24F
E24F
E6C0
E6C0
E6C0
E6CF
E6CF
E48F
E48F
ED8F
ED8F
1FF0
1FF0
1FF0
0900
1B00
ENDCHAR
STARTCHAR 20A3
ENCODING 8355
SWIDTH 600 0
DWIDTH 20 0
BBX 17 21 1 0
BITMAP
7FF800
7FF800
7FF800
700780
700780
700780
700000
700000
700000
7FC000
7FC000
7FC000
700000
700000
700000
700000
700000
700000
FC0000
FC0000
FC0000
ENDCHAR
STARTCHAR 20A4
ENCODING 8356
SWIDTH 690 0
DWIDTH 23 0
BBX 19 21 2 0
BITMAP
03FF00
03FF00
03FF00
1C01E0
1C01E0
1C01E0
1C0000
1FF000
1FF000
1FF000
1FF000
1C0000
1C0000
1FF000
1FF000
1FF1E0
1C01E0
1C01E0
FFFF00
FFFF00
FFFF00
ENDCHAR
STARTCHAR 20A7
ENCODING 8359
SWIDTH 1200 0
DWIDTH 40 0
BBX 36 21 2 0
BITMAP
1FF0000000
1FF0000000
1FF0000000
E00F000000
E00F000000
E00F000000
E00F000000
E00F000000
E00F000000
E00F000000
E00F000000
E00F100000
FFF0100000
FFF0100000
FFF07F83F0
E0007F8FF0
E000100C00
E0001003C0
E000104030
E000104030
E0000F8FC0
ENDCHAR
STARTCHAR 20AC
ENCODING 8364
SWIDTH 600 0
DWIDTH 20 0
BBX 16 21 2 0
BITMAP
1FF0
1FF0
1FF0
E00F
E00F
E00F
E00F
FF8F
FF8F
FF80
E000
E000
FF8F
FF8F
FF8F
E00F
E00F
E00F
1FF0
1FF0
1FF0
ENDCHAR
STARTCHAR 2116
ENCODING 8470
SWIDTH 1170 0
DWIDTH 39 0
BBX 35 21 2 0
BITMAP
E00F03FF00
E00F03FF00
E00F03FF00
FC0F1E01E0
FC0F1E01E0
FC0F1E01E0
E38F1E01E0
E38F1E01E0
E38F1E01E0
E38F1E01E0
E38F1E01E0
E38F1E01E0
E38F03FF00
E38F03FF00
E38F03FF00
E07F000000
E07F000000
E07F000000
E00F07FF00
E00F07FF00
E00F07FF00
ENDCHAR
STARTCHAR 2122
ENCODING 8482
SWIDTH 780 0
DWIDTH 26 0
BBX 22 11 2 10
BITMAP
3E0618
3E0618
DB1B6C
181B6C
181B6C
1818CC
1818CC
1818CC
1818CC
1818CC
18180C
ENDCHAR
STARTCHAR 2126
ENCODING 8486
SWIDTH 600 0
DWIDTH 20 0
BBX 19 21 0 0
BITMAP
07FC00
07FC00
07FC00
3803C0
3803C0
3803C0
3803C0
3803C0
3803C0
3803C0
3803C0
3803C0
3803C0
3803C0
3803C0
3803C0
3803C0
3803C0
F803E0
F803E0
F803E0
ENDCHAR
STARTCHAR 2153
ENCODING 8531
SWIDTH 870 0
DWIDTH 29 0
BBX 25 21 2 0
BITMAP
2000E000
2000E000
D800E000
1807E000
1807E000
1807E000
18070000
18070000
181C0000
181C0000
181C1F00
00FC1F00
00FC6180
00FC6180
00E00180
00E01F00
07001F80
07000180
07006180
07006180
07001F00
ENDCHAR
STARTCHAR 2154
ENCODING 8532
SWIDTH 900 0
DWIDTH 30 0
BBX 26 21 2 0
BITMAP
3E007800
3E007800
C3007800
0301F800
0301F800
3E01F800
FE01C000
C001C000
C30E0000
FF0E0000
3E0E0F80
003E0F80
003E30C0
003E30C0
003800C0
00380F80
01C00FC0
01C000C0
01C030C0
01C030C0
01C00F80
ENDCHAR
STARTCHAR 215B
ENCODING 8539
SWIDTH 870 0
DWIDTH 29 0
BBX 25 21 2 0
BITMAP
2000E000
2000E000
D800E000
1807E000
1807E000
1807E000
18070000
18070000
181C0000
181C0000
181C3E00
00FC3E00
00FC6180
00FC6180
00E06180
00E03E00
07007F80
07006180
07006180
07006180
07003E00
ENDCHAR
STARTCHAR 215C
ENCODING 8540
SWIDTH 930 0
DWIDTH 31 0
BBX 27 21 2 0
BITMAP
3E003800
3E003800
C3003800
0301F800
0301F800
3E01F800
0301E000
0301E000
C3070000
FF070000
3E0707C0
003F07C0
003F1860
003F1860
00381860
003807C0
00E01FE0
00E01860
00E01860
00E01860
00E007C0
ENDCHAR
STARTCHAR 215D
ENCODING 8541
SWIDTH 960 0
DWIDTH 32 0
BBX 28 21 2 0
BITMAP
3E001C00
3E001C00
C3001C00
C300FC00
C300FC00
2000FC00
3E00F000
1E00F000
C3038000
FF038000
3E0383E0
001F83E0
001F8C30
001F8C30
001C0C30
001C03E0
00700FF0
00700C30
00700C30
00700C30
007003E0
ENDCHAR
STARTCHAR 215E
ENCODING 8542
SWIDTH 990 0
DWIDTH 33 0
BBX 29 21 2 0
BITMAP
3E000E00
3E000E00
C3000E00
03007E00
03007E00
03007E00
03007000
03007000
03038000
03038000
030383E0
000F83E0
000F8618
000F8618
000E0618
000E03E0
007007F8
00700618
00700618
00700618
007003E0
ENDCHAR
STARTCHAR 2206
ENCODING 8710
SWIDTH 600 0
DWIDTH 20 0
BBX 16 21 2 0
BITMAP
0380
0380
0380
1C70
1C70
1C70
E00F
E00F
E00F
E00F
E00F
E00F
E00F
E00F
E00F
E00F
E00F
E00F
FFFF
FFFF
FFFF
ENDCHAR
STARTCHAR 220F
ENCODING 8719
SWIDTH 600 0
DWIDTH 20 0
BBX 16 21 2 0
BITMAP
FFFF
FFFF
FFFF
E00F
E00F
E00F
E00F
E00F
E00F
E00F
E00F
E00F
E00F
E00F
E00F
E00F
E00F
E00F
E00F
E00F
E00F
ENDCHAR
STARTCHAR 2211
ENCODING 8721
SWIDTH 780 0
DWIDTH 26 0
BBX 22 21 2 0
BITMAP
1FFFFC
1FFFFC
1FFFFC
E00000
E00000
E00000
1F8000
1F8000
1F8000
007FE0
007FE0
007FE0
1F8000
1F8000
1F8000
E00000
E00000
E00000
1FFFFC
1FFFFC
1FFFFC
ENDCHAR
STARTCHAR 2212
ENCODING 8722
SWIDTH 600 0
DWIDTH 20 0
BBX 12 3 4 8
BITMAP
FFF0
FFF0
FFF0
ENDCHAR
STARTCHAR 2215
ENCODING 8725
SWIDTH 540 0
DWIDTH 18 0
BBX 14 21 2 0
BITMAP
001C
001C
001C
00FC
00FC
00FC
00E0
00E0
0700
0700
0700
1F00
1F00
1F00
1C00
1C00
E000
E000
E000
E000
E000
ENDCHAR
STARTCHAR 221E
ENCODING 8734
SWIDTH 960 0
DWIDTH 32 0
BBX 28 15 2 0
BITMAP
1FF1FF80
1FF1FF80
1FF1FF80
E00F00F0
E00F00F0
E00F00F0
E00F00F0
E00F00F0
E00F00F0
E00F00F0
E00F00F0
E00F00F0
1FF1FF80
1FF1FF80
1FF1FF80
ENDCHAR
STARTCHAR 2248
ENCODING 8776
SWIDTH 600 0
DWIDTH 20 0
BBX 8 8 6 5
BITMAP
FB
FB
DF
00
00
FB
FB
DF
ENDCHAR
STARTCHAR 2260
ENCODING 8800
SWIDTH 600 0
DWIDTH 20 0
BBX 12 17 4 0
BITMAP
03C0
03C0
0380
0380
FFF0
FFF0
FFF0
0F00
0E00
FFF0
FFF0
FFF0
FFF0
1C00
3C00
3800
3800
ENDCHAR
STARTCHAR 2264
ENCODING 8804
SWIDTH 600 0
DWIDTH 20 0
BBX 12 26 4 -2
BITMAP
0070
0070
01F0
0180
0180
0600
0600
3800
3800
E000
E000
F800
3800
3E00
0600
0600
0180
0180
0070
0070
0000
0000
0000
0000
FFF0
FFF0
ENDCHAR
STARTCHAR 2265
ENCODING 8805
SWIDTH 600 0
DWIDTH 20 0
BBX 12 26 4 -2
BITMAP
E000
E000
F800
3800
3800
0600
0600
01C0
01C0
0070
0070
01F0
01C0
07C0
0600
0600
3800
3800
E000
E000
0000
0000
0000
0000
FFF0
FFF0
ENDCHAR
STARTCHAR FB00
ENCODING 64256
SWIDTH 960 0
DWIDTH 32 0
BBX 28 21 2 0
BITMAP
1FF1FF80
1FF1FF80
1FF1FF80
E00F00F0
E00F00F0
E00F00F0
E00F0000
E00F0000
E00F0000
FF8FFC00
FF8FFC00
FF8FFC00
E00F0000
E00F0000
E00F0000
E00F0000
E00F0000
E00F0000
E00F0000
E00F0000
E00F0000
ENDCHAR
STARTCHAR FB01
ENCODING 64257
SWIDTH 600 0
DWIDTH 20 0
BBX 16 21 2 0
BITMAP
1FF0
1FF0
1FF0
E00F
E00F
E00F
E000
E000
E000
FFFF
FFFF
FFFF
E00F
E00F
E00F
E00F
E00F
E00F
E00F
E00F
E00F
ENDCHAR
STARTCHAR FB02
ENCODING 64258
SWIDTH 600 0
DWIDTH 20 0
BBX 16 21 2 0
BITMAP
1FF0
1FF0
1FF0
E00F
E00F
E00F
E00F
E00F
E00F
FF8F
FF8F
FF8F
E00F
E00F
E00F
E00F
E00F
E00F
E00F
E00F
E00F
ENDCHAR
STARTCHAR FB03
ENCODING 64259
SWIDTH 960 0
DWIDTH 32 0
BBX 28 21 2 0
BITMAP
1FF1FF80
1FF1FF80
1FF1FF80
E00F00F0
E00F00F0
E00F00F0
E00F0000
E00F0000
E00F0000
FF8FFFF0
FF8FFFF0
FF8FFFF0
E00F00F0
E00F00F0
E00F00F0
E00F00F0
E00F00F0
E00F00F0
E00F00F0
E00F00F0
E00F00F0
ENDCHAR
STARTCHAR FB04
ENCODING 64260
SWIDTH 960 0
DWIDTH 32 0
BBX 28 21 2 0
BITMAP
1FF1FF80
1FF1FF80
1FF1FF80
E00F00F0
E00F00F0
E00F00F0
E00F00F0
E00F00F0
E00F00F0
FF8FFCF0
FF8FFCF0
FF8FFCF0
E00F00F0
E00F00F0
E00F00F0
E00F00F0
E00F00F0
E00F00F0
E00F00F0
E00F00F0
E00F00F0
ENDCHAR
STARTCHAR FB06
ENCODING 64262
SWIDTH 1110 0
DWIDTH 37 0
BBX 33 21 2 0
BITMAP
0000380000
0000380000
0000380000
0000380000
0000380000
0000380000
1FFFFFFC00
1FFFFFFC00
1FFFFFFC00
E000380000
E000380000
E000380000
1FF0380000
1FF0380000
1FF0380000
000F380380
000F380380
000F380380
FFF007FC00
FFF007FC00
FFF007FC00
ENDCHAR
ENDFONT
